  0
SECTION
  2
HEADER
  9
$ACADVER
  1
AC1014
  9
$HANDSEED
  5
FFFF
  9
$MEASUREMENT
 70
     1
  0
ENDSEC
  0
SECTION
  2
TABLES
  0
TABLE
  2
VPORT
  5
8
330
0
100
AcDbSymbolTable
 70
     4
  0
VPORT
  5
2E
330
8
100
AcDbSymbolTableRecord
100
AcDbViewportTableRecord
  2
*ACTIVE
 70
     0
 10
0.0
 20
0.0
 11
1.0
 21
1.0
 12
210.0
 22
148.5
 13
0.0
 23
0.0
 14
10.0
 24
10.0
 15
10.0
 25
10.0
 16
0.0
 26
0.0
 36
1.0
 17
0.0
 27
0.0
 37
0.0
 40
341.0
 41
1.24
 42
50.0
 43
0.0
 44
0.0
 50
0.0
 51
0.0
 71
     0
 72
   100
 73
     1
 74
     3
 75
     0
 76
     0
 77
     0
 78
     0
  0
ENDTAB
  0
TABLE
  2
LTYPE
  5
5
330
0
100
AcDbSymbolTable
 70
     1
  0
LTYPE
  5
14
330
5
100
AcDbSymbolTableRecord
100
AcDbLinetypeTableRecord
  2
BYBLOCK
 70
     0
  3

 72
    65
 73
     0
 40
0.0
  0
LTYPE
  5
15
330
5
100
AcDbSymbolTableRecord
100
AcDbLinetypeTableRecord
  2
BYLAYER
 70
     0
  3

 72
    65
 73
     0
 40
0.0
  0
LTYPE
  5
16
330
5
100
AcDbSymbolTableRecord
100
AcDbLinetypeTableRecord
  2
CONTINUOUS
 70
     0
  3
Solid line
 72
    65
 73
     0
 40
0.0
  0
ENDTAB
  0
TABLE
  2
LAYER
  5
2
100
AcDbSymbolTable
 70
2
  0
LAYER
  5
50
100
AcDbSymbolTableRecord
100
AcDbLayerTableRecord
  2
0
 70
0
  6
CONTINUOUS
  0
LAYER
  5
51
100
AcDbSymbolTableRecord
100
AcDbLayerTableRecord
  2
Layer_1
 70
0
  6
CONTINUOUS
  0
ENDTAB
  0
TABLE
  2
STYLE
  5
3
330
0
100
AcDbSymbolTable
 70
     1
  0
STYLE
  5
11
330
3
100
AcDbSymbolTableRecord
100
AcDbTextStyleTableRecord
  2
STANDARD
 70
     0
 40
0.0
 41
1.0
 50
0.0
 71
     0
 42
2.5
  3
txt
  4

  0
ENDTAB
  0
TABLE
  2
VIEW
  5
6
330
0
100
AcDbSymbolTable
 70
     0
  0
ENDTAB
  0
TABLE
  2
UCS
  5
7
330
0
100
AcDbSymbolTable
 70
     0
  0
ENDTAB
  0
TABLE
  2
APPID
  5
9
330
0
100
AcDbSymbolTable
 70
     2
  0
APPID
  5
12
330
9
100
AcDbSymbolTableRecord
100
AcDbRegAppTableRecord
  2
ACAD
 70
     0
  0
ENDTAB
  0
TABLE
  2
DIMSTYLE
  5
A
330
0
100
AcDbSymbolTable
 70
     1
  0
DIMSTYLE
105
27
330
A
100
AcDbSymbolTableRecord
100
AcDbDimStyleTableRecord
  2
ISO-25
 70
     0
  3

  4

  5

  6

  7

 40
1.0
 41
2.5
 42
0.625
 43
3.75
 44
1.25
 45
0.0
 46
0.0
 47
0.0
 48
0.0
140
2.5
141
2.5
142
0.0
143
0.03937007874016
144
1.0
145
0.0
146
1.0
147
0.625
 71
     0
 72
     0
 73
     0
 74
     0
 75
     0
 76
     0
 77
     1
 78
     8
170
     0
171
     3
172
     1
173
     0
174
     0
175
     0
176
     0
177
     0
178
     0
270
     2
271
     2
272
     2
273
     2
274
     3
340
11
275
     0
280
     0
281
     0
282
     0
283
     0
284
     8
285
     0
286
     0
287
     3
288
     0
  0
ENDTAB
  0
TABLE
  2
BLOCK_RECORD
  5
1
330
0
100
AcDbSymbolTable
 70
     1
  0
BLOCK_RECORD
  5
1F
330
1
100
AcDbSymbolTableRecord
100
AcDbBlockTableRecord
  2
*MODEL_SPACE
  0
BLOCK_RECORD
  5
1B
330
1
100
AcDbSymbolTableRecord
100
AcDbBlockTableRecord
  2
*PAPER_SPACE
  0
ENDTAB
  0
ENDSEC
  0
SECTION
  2
BLOCKS
  0
BLOCK
  5
20
330
1F
100
AcDbEntity
  8
0
100
AcDbBlockBegin
  2
*MODEL_SPACE
 70
     0
 10
0.0
 20
0.0
 30
0.0
  3
*MODEL_SPACE
  1

  0
ENDBLK
  5
21
330
1F
100
AcDbEntity
  8
0
100
AcDbBlockEnd
  0
BLOCK
  5
1C
330
1B
100
AcDbEntity
 67
     1
  8
0
100
AcDbBlockBegin
  2
*PAPER_SPACE
  1

  0
ENDBLK
  5
1D
330
1B
100
AcDbEntity
 67
     1
  8
0
100
AcDbBlockEnd
  0
ENDSEC
  0
SECTION
  2
ENTITIES
  0
LWPOLYLINE
  5
100
100
AcDbEntity
  8
Layer_1
 62
7
100
AcDbPolyline
 90
164
 70
1
 10
22.266242
 20
44.059043
 30
0.0
 10
22.005797
 20
43.133130
 30
0.0
 10
21.646127
 20
43.997415
 30
0.0
 10
21.410485
 20
43.918740
 30
0.0
 10
21.179102
 20
43.947390
 30
0.0
 10
21.075617
 20
43.815225
 30
0.0
 10
20.980277
 20
42.975743
 30
0.0
 10
21.061277
 20
42.801720
 30
0.0
 10
18.927302
 20
42.846270
 30
0.0
 10
18.638377
 20
42.769739
 30
0.0
 10
18.927302
 20
42.872595
 30
0.0
 10
17.687065
 20
42.740048
 30
0.0
 10
17.944030
 20
42.571455
 30
0.0
 10
16.562327
 20
41.960640
 30
0.0
 10
14.676010
 20
40.995195
 30
0.0
 10
14.330680
 20
40.189043
 30
0.0
 10
13.586537
 20
39.294518
 30
0.0
 10
13.250125
 20
38.789513
 30
0.0
 10
12.240497
 20
39.153060
 30
0.0
 10
12.081205
 20
39.099960
 30
0.0
 10
11.585110
 20
39.249953
 30
0.0
 10
11.266142
 20
39.312353
 30
0.0
 10
11.053750
 20
39.675503
 30
0.0
 10
10.920812
 20
39.613478
 30
0.0
 10
10.767722
 20
38.821665
 30
0.0
 10
10.702247
 20
37.903118
 30
0.0
 10
10.983235
 20
37.488030
 30
0.0
 10
11.354920
 20
37.204710
 30
0.0
 10
11.602577
 20
36.983018
 30
0.0
 10
11.832797
 20
36.770633
 30
0.0
 10
11.983562
 20
36.619860
 30
0.0
 10
11.287468
 20
36.001294
 30
0.0
 10
10.451875
 20
33.423158
 30
0.0
 10
10.123982
 20
32.829397
 30
0.0
 10
9.911207
 20
32.368575
 30
0.0
 10
9.610067
 20
31.031445
 30
0.0
 10
9.681392
 20
29.897790
 30
0.0
 10
9.477527
 20
29.304420
 30
0.0
 10
9.264745
 20
28.454085
 30
0.0
 10
9.131815
 20
27.497940
 30
0.0
 10
9.149665
 20
26.868907
 30
0.0
 10
9.140740
 20
26.382120
 30
0.0
 10
9.273677
 20
25.824008
 30
0.0
 10
9.477542
 20
25.310475
 30
0.0
 10
9.858520
 20
24.593077
 30
0.0
 10
10.495697
 20
23.760570
 30
0.0
 10
10.238732
 20
22.786597
 30
0.0
 10
10.424770
 20
22.228493
 30
0.0
 10
10.513907
 20
21.449085
 30
0.0
 10
11.062330
 20
20.279775
 30
0.0
 10
11.142557
 20
19.394558
 30
0.0
 10
11.257660
 20
19.181782
 30
0.0
 10
11.496797
 20
19.234882
 30
0.0
 10
11.638262
 20
18.924818
 30
0.0
 10
11.912657
 20
18.490740
 30
0.0
 10
12.408752
 20
17.250892
 30
0.0
 10
12.983530
 20
16.793557
 30
0.0
 10
13.224212
 20
16.609455
 30
0.0
 10
13.263362
 20
16.642005
 30
0.0
 10
13.262612
 20
16.644255
 30
0.0
 10
13.267862
 20
16.648755
 30
0.0
 10
13.206287
 20
16.852620
 30
0.0
 10
13.829117
 20
16.506135
 30
0.0
 10
14.262422
 20
16.269713
 30
0.0
 10
14.587982
 20
16.099958
 30
0.0
 10
15.641792
 20
15.621690
 30
0.0
 10
15.945265
 20
15.534098
 30
0.0
 10
16.017715
 20
15.512422
 30
0.0
 10
16.068865
 20
15.502747
 30
0.0
 10
16.297150
 20
15.453547
 30
0.0
 10
16.518062
 20
15.453547
 30
0.0
 10
16.702547
 20
15.453547
 30
0.0
 10
16.822307
 20
15.453547
 30
0.0
 10
16.826807
 20
15.447547
 30
0.0
 10
16.806632
 20
15.448298
 30
0.0
 10
16.819007
 20
15.390923
 30
0.0
 10
9.320627
 20
11.097390
 30
0.0
 10
5.073992
 20
5.708955
 30
0.0
 10
4.206212
 20
5.115195
 30
0.0
 10
3.110935
 20
3.973793
 30
0.0
 10
0.005312
 20
2.695185
 30
0.0
 10
2.428802
 20
0.000000
 30
0.0
 10
41.951624
 20
0.000000
 30
0.0
 10
41.376854
 20
1.370850
 30
0.0
 10
40.189327
 20
4.430737
 30
0.0
 10
36.946889
 20
11.142735
 30
0.0
 10
34.298987
 20
15.709508
 30
0.0
 10
30.977485
 20
16.209862
 30
0.0
 10
31.548385
 20
18.650415
 30
0.0
 10
31.990997
 20
18.774435
 30
0.0
 10
32.000297
 20
18.721335
 30
0.0
 10
32.407247
 20
18.977910
 30
0.0
 10
32.593277
 20
19.225957
 30
0.0
 10
32.673122
 20
19.572060
 30
0.0
 10
32.681672
 20
20.484023
 30
0.0
 10
32.850265
 20
20.509972
 30
0.0
 10
32.867740
 20
20.404162
 30
0.0
 10
32.974322
 20
20.448338
 30
0.0
 10
33.027422
 20
19.978988
 30
0.0
 10
33.248732
 20
20.218118
 30
0.0
 10
33.301832
 20
20.678558
 30
0.0
 10
33.789010
 20
20.456865
 30
0.0
 10
34.010312
 20
20.563447
 30
0.0
 10
34.107985
 20
20.545973
 30
0.0
 10
34.612600
 20
20.368462
 30
0.0
 10
34.780810
 20
20.430862
 30
0.0
 10
34.780810
 20
20.466113
 30
0.0
 10
34.399825
 20
20.740905
 30
0.0
 10
34.399825
 20
20.829262
 30
0.0
 10
34.842820
 20
20.909100
 30
0.0
 10
35.019940
 20
21.085830
 30
0.0
 10
34.435480
 20
21.351322
 30
0.0
 10
34.381255
 20
21.480383
 30
0.0
 10
34.039412
 20
21.895478
 30
0.0
 10
33.933220
 20
21.952852
 30
0.0
 10
34.000645
 20
22.204770
 30
0.0
 10
34.046020
 20
22.245870
 30
0.0
 10
33.921992
 20
22.355947
 30
0.0
 10
33.661547
 20
22.677630
 30
0.0
 10
33.665297
 20
22.697805
 30
0.0
 10
34.600491
 20
23.581314
 30
0.0
 10
35.090792
 20
26.098762
 30
0.0
 10
35.879110
 20
26.063137
 30
0.0
 10
35.870185
 20
26.169720
 30
0.0
 10
36.543397
 20
26.816190
 30
0.0
 10
37.234057
 20
27.427778
 30
0.0
 10
37.889827
 20
28.012238
 30
0.0
 10
37.774334
 20
28.082812
 30
0.0
 10
37.748009
 20
28.286677
 30
0.0
 10
37.729784
 20
28.428142
 30
0.0
 10
38.128597
 20
28.915320
 30
0.0
 10
38.039842
 20
29.039348
 30
0.0
 10
36.623257
 20
28.658363
 30
0.0
 10
35.677768
 20
29.147570
 30
0.0
 10
35.303575
 20
30.952020
 30
0.0
 10
35.578367
 20
31.554292
 30
0.0
 10
35.861290
 20
32.130225
 30
0.0
 10
36.197710
 20
32.997615
 30
0.0
 10
35.002435
 20
34.459148
 30
0.0
 10
35.215210
 20
34.964160
 30
0.0
 10
34.922590
 20
35.725740
 30
0.0
 10
34.709815
 20
36.691185
 30
0.0
 10
34.338130
 20
37.045425
 30
0.0
 10
33.647087
 20
38.116680
 30
0.0
 10
32.483552
 20
39.153053
 30
0.0
 10
31.549502
 20
40.894418
 30
0.0
 10
30.877840
 20
41.780408
 30
0.0
 10
30.323222
 20
42.120698
 30
0.0
 10
29.205460
 20
42.577260
 30
0.0
 10
25.802177
 20
43.180710
 30
0.0
 10
25.189817
 20
42.995453
 30
0.0
 10
25.160717
 20
43.005503
 30
0.0
 10
24.032875
 20
42.947003
 30
0.0
 10
23.941022
 20
43.073738
 30
0.0
 10
23.256565
 20
43.524098
 30
0.0
 10
23.170135
 20
43.527098
 30
0.0
 10
22.985657
 20
43.509248
 30
0.0
 10
22.978907
 20
43.725128
 30
0.0
 10
23.011832
 20
43.734428
 30
0.0
 10
23.011082
 20
43.735178
 30
0.0
 10
23.018882
 20
43.736678
 30
0.0
 10
22.824722
 20
43.943258
 30
0.0
 10
22.378240
 20
43.695593
 30
0.0
 10
22.361590
 20
43.993253
 30
0.0
  0
ENDSEC
  0
SECTION
  2
OBJECTS
  0
DICTIONARY
  5
C
330
0
100
AcDbDictionary
  3
ACAD_GROUP
350
D
  3
ACAD_MLINESTYLE
350
17
  0
DICTIONARY
  5
D
330
C
100
AcDbDictionary
  0
DICTIONARY
  5
1A
330
C
100
AcDbDictionary
  0
DICTIONARY
  5
17
330
C
100
AcDbDictionary
  3
STANDARD
350
18
  0
DICTIONARY
  5
19
330
C
100
AcDbDictionary
  0
ENDSEC
  0
EOF
