<?xml version="1.0" encoding="UTF-8" standalone="no"?>
<!-- Created with Inkscape (http://www.inkscape.org/) -->

<svg
   xmlns:dc="http://purl.org/dc/elements/1.1/"
   xmlns:cc="http://creativecommons.org/ns#"
   xmlns:rdf="http://www.w3.org/1999/02/22-rdf-syntax-ns#"
   xmlns:svg="http://www.w3.org/2000/svg"
   xmlns="http://www.w3.org/2000/svg"
   xmlns:sodipodi="http://sodipodi.sourceforge.net/DTD/sodipodi-0.dtd"
   xmlns:inkscape="http://www.inkscape.org/namespaces/inkscape"
   width="55.935497mm"
   height="58.745392mm"
   viewBox="0 0 55.935497 58.745392"
   version="1.1"
   id="svg8"
   inkscape:version="0.92.1 r15371"
   sodipodi:docname="jackson-silhouette.svg">
  <defs
     id="defs2" />
  <sodipodi:namedview
     id="base"
     pagecolor="#ffffff"
     bordercolor="#666666"
     borderopacity="1.0"
     inkscape:pageopacity="0.0"
     inkscape:pageshadow="2"
     inkscape:zoom="1.4"
     inkscape:cx="289.52847"
     inkscape:cy="17.586937"
     inkscape:document-units="mm"
     inkscape:current-layer="layer1"
     showgrid="false"
     fit-margin-top="0"
     fit-margin-left="0"
     fit-margin-right="0"
     fit-margin-bottom="0"
     inkscape:window-width="1680"
     inkscape:window-height="987"
     inkscape:window-x="-8"
     inkscape:window-y="-8"
     inkscape:window-maximized="1" />
  <metadata
     id="metadata5">
    <rdf:RDF>
      <cc:Work
         rdf:about="">
        <dc:format>image/svg+xml</dc:format>
        <dc:type
           rdf:resource="http://purl.org/dc/dcmitype/StillImage" />
        <dc:title></dc:title>
      </cc:Work>
    </rdf:RDF>
  </metadata>
  <g
     inkscape:label="Layer 1"
     inkscape:groupmode="layer"
     id="layer1">
    <path
       inkscape:connector-curvature="0"
       style="display:inline;opacity:1;fill:#000000;fill-opacity:1;fill-rule:nonzero;stroke:none;stroke-width:0.03527778"
       d="m 29.688323,1.8457031e-6 c 0,0 -0.72756,0.6228400042969 -0.34726,1.2345499542969 0,0 -0.62279,-0.65601995 -0.47956,-1.15237995 0,0 -0.28668,-0.0383 -0.31419,0.1049 0,0 -0.19845,-0.15395 -0.30851,-0.0382 -0.11042,0.11571 -0.13798,0.17622 -0.13798,0.17622 0,0 -0.49143,0.39516 -0.12712,1.11930995 l 0.108,0.23203 c 0,0 -1.81802,-0.37834 -2.8453,-0.0594 -1.02729,0.31891 0,-0.0351 0,-0.0351 0,0 -1.38166,0.25963 -1.65365,0.17673 l 0.34262,0.22479 c 0,0 -1.48808,0.55443 -1.84227,0.81442 0,0 -2.00744,0.57889 -2.51509,1.28726 0,0 -0.38953,0.8745 -0.46044,1.07487 0,0 -0.94491,0.62543 -0.99219,1.1927 0,0 -0.44855,0.56645 -0.44855,0.67334 0,0 -1.05125,-0.048 -1.34617,-0.48473 0,0 -0.20075,-0.0234 -0.21239,0.0708 0,0 -0.56656,-0.29453 -0.66146,-0.19999 0,0 -0.31875,-0.17739 -0.42529,-0.0832 0,0 -0.36574,-0.28347 -0.28319,-0.4842 l -0.17725,0.0827 c 0,0 -0.36817,0.44002 -0.20412,1.05575 -0.0419,0.0888 -0.29317,0.6545 -0.0873,1.22473 0.0628,0.197 0.17821,0.3899 0.37465,0.55345 l 0.49558,0.37776 c 0,0 0.12948,0.22468 0.33021,0.29559 0.20108,0.0709 0.14186,0.24791 0.30696,0.28318 0.16545,0.0356 0.20102,0.20103 0.20102,0.20103 0,0 -1.79425,0.7785902 -2.04225,4.2622702 0,0 -0.42554,0.24805 -0.43719,0.79168 0,0 -0.31897,0.22426 -0.2837,0.61443 0,0 -0.6139,0.93265 -0.40152,1.78284 0.21272,0.8502 0.27218,1.12172 0.0951,1.51154 -0.17745,0.38946 -0.36601,0.56644 -0.27182,0.79116 0,0 -0.47244,0.77959 -0.28371,1.13378 0,0 -0.44853,0.83777 -0.17724,1.27486 0,0 -0.12968,0.67326 0.0238,0.83871 0,0 -0.14171,0.4836 -0.0119,0.64905 0,0 -0.10603,0.43688 0.17725,0.74415 0.28328,0.30727 0.27182,0.48433 0.27182,0.68471 0,0.20144 0.11816,0.74451 0.50797,0.95653 0,0 0.12955,1.09837 0.84957,1.11001 0,0 -0.73209,0.69644 -0.34262,1.29863 0,0 -0.0585,0.4725 0.24805,0.74414 0,0 -0.0582,0.49629 0.11885,1.03921 0.1771,0.54364 0.62539,1.25181 0.73123,1.55908 0.10653,0.30657 0.0364,0.92065 0.10697,1.18029 l 0.15347,0.2837 0.31885,-0.0708 c 0,0 0.13005,0.22468 0.18862,0.41342 0.0593,0.18873 0.35422,0.47223 0.36586,0.57877 0.0116,0.10619 0.28399,1.25202 0.66146,1.65313 0.35982,0.3823 0.7292,0.58922 0.76637,0.60978 0.17957,0.15315 0.32091,0.24547 0.32091,0.24547 l 0.0522,-0.0434 -0.001,-0.003 0.007,-0.006 -0.0821,-0.27182 c 0,0 0.39544,0.22206 0.83044,0.46198 0.15625,0.0934 0.35627,0.20045 0.57774,0.31523 0.17715,0.0952 0.33717,0.17933 0.43408,0.22634 0.41311,0.20073 1.02691,0.50822 1.40508,0.63769 0.13058,0.045 0.27107,0.0827 0.40463,0.11679 0.0303,0.008 0.0711,0.0234 0.0966,0.0289 0.0235,0.005 0.0451,0.008 0.0682,0.0129 0.17562,0.0411 0.30438,0.0656 0.30438,0.0656 h 0.29455 c 0.10084,0.003 0.1815,0.003 0.24598,0 h 0.15968 l 0.006,0.008 c -0.009,-5.3e-4 -0.0174,-0.002 -0.0269,-0.001 0,0 0.0156,0.0717 0.0165,0.0765 -2.23438,0.85051 -8.4068,4.51793 -9.99784,5.72471 -1.7653,1.3395 -5.2356703,6.69739 -5.6621803,7.18458 -0.42581,0.48718 -0.73053,0.54791 -1.15704,0.79168 -0.42615,0.24342 -0.97354,1.21707 -1.46037,1.52187 -0.48719,0.30374 -3.95810002,1.279 -4.14083002,1.70481 -0.18274,0.42651 3.23132002,3.59358 3.23132002,3.59358 H 55.935499 c 0,0 -0.52295,-1.34061 -0.76636,-1.8278 -0.24377,-0.48683 -1.27892,-3.65334 -1.58337,-4.07985 -0.30409,-0.4258 -3.89709,-7.91463 -4.32325,-8.94933 -0.42616,-1.03505 -2.434806,-5.05328 -3.530536,-6.08903 -0.78462,-0.74094 -3.14193,-0.73153 -4.42867,-0.66714 0.31458,-1.11449 0.69428,-2.51247 0.7612,-3.25407 0,0 0.48361,-0.0592 0.59015,-0.16536 l 0.0124,0.0708 c 0,0 0.30624,-0.2719 0.5426,-0.3421 0.23636,-0.0713 0.21312,-0.142 0.24804,-0.33073 0.0353,-0.18874 0.10646,-0.30766 0.10646,-0.46147 0,-0.15275 0.0823,-0.93267 0.0114,-1.21595 l 0.22479,-0.0346 0.0233,0.14108 0.14211,-0.0589 c 0,0 0.11772,0.43706 0.0708,0.6258 0,0 0.28343,-0.11776 0.29508,-0.31884 0.0116,-0.20038 0.0708,-0.61392 0.0708,-0.61392 0,0 0.4252,0.31887 0.64957,0.29559 0.22437,-0.0243 0.29507,-0.14211 0.29507,-0.14211 l 0.13023,0.0233 c 0,0 0.44846,0.25996 0.67282,0.23668 0.22437,-0.0236 0.22428,-0.0832 0.22428,-0.0832 v -0.047 c 0,0 -0.49563,-0.22422 -0.50798,-0.36639 v -0.11781 c 0,0 0.57902,0.0823 0.59066,-0.10645 0,0 0.22417,-0.12946 0.23616,-0.23564 0,0 -0.56691,-0.20124 -0.77928,-0.35399 0,0 -0.0283,-0.0764 -0.0723,-0.17208 -0.0195,-0.20042 -0.12684,-0.42029 -0.45579,-0.55346 -0.0445,-0.0284 -0.0904,-0.0555 -0.14159,-0.0765 l 0.0899,-0.33589 c 0.0254,-0.0227 0.0605,-0.0548 0.0605,-0.0548 l -0.16537,-0.14677 -0.34726,-0.42891 0.005,-0.0269 c 0,0 2.69158,-1.62983 1.90066,-4.53461 0,0 0.81509,0.1061 1.05109,0.0475 l -0.0119,-0.14211 c 0,0 0.897616,-0.25977 0.897616,-0.86196 0,0 1.00343,-0.28346 0.92088,-0.81545 0,0 0.69692,-0.32985 0.87436,-0.77928 l -0.15399,-0.0941 -0.0351,-0.27182 -0.0243,-0.18862 c 0,0 0.3663,-0.3423 0.53175,-0.64957 l -0.11834,-0.16537 c 0,0 -1.31022,0.66179 -1.88878,0.50798 -0.578896,-0.15346 -2.196316,-0.56654 -1.759576,-3.05821 l 0.36639,-0.80303 c 0,0 0.37723,-0.54319 0.37723,-0.76791 0,0 0.67328,-0.20014 0.44856,-1.15652 -0.22367,-0.95638 -1.54679,-1.81925 -1.5937,-1.94871 0,0 0.34296,-0.36608 0.2837,-0.67335 -0.0593,-0.30727 -0.41344,-0.70817 -0.39016,-1.01544 0.0233,-0.30727 -0.0713,-1.0509 -0.2837,-1.2872602 -0.21273,-0.23636 -0.49558,-0.47232 -0.49558,-0.47232 0,0 -0.22465,-0.85014 -0.92139,-1.42834 -0.69679,-0.57891 -1.55138,-1.38183 -1.55138,-1.38183 0,0 0.2271,-1.58592 -1.2454,-2.32182 0,0 -0.0789,-1.03845 -0.89555,-1.18132 0,0 -0.24666,-0.53168 -0.73949,-0.45372 0,0 -0.79044,-0.5703 -1.49035,-0.60875 0,0 -2.76147,-1.06353995 -4.53771,-0.8046 0,0 -0.63516,0.0131 -0.81648,0.24701 -0.18169,0.23354 -0.0388,-0.0134 -0.0388,-0.0134 0,0 -1.28365,-0.0645 -1.50379,0.078 0,0 -0.045,-0.0713 -0.12247,-0.16898 -0.18005,-0.27751 -0.46711,-0.56251995 -0.91261,-0.60047995 -0.0379,-0.004 -0.0761,-0.006 -0.11524,-0.004 -0.078,0.001 -0.15915,0.007 -0.24597,0.0238 0,0 -0.0764,-0.22789 -0.009,-0.28784 0.0129,-0.006 0.0253,-0.0112 0.0439,-0.0124 l -10e-4,-0.001 c 0.004,9e-5 0.006,-0.002 0.0104,-0.002 l -0.25888,-0.27544 c 0,0 -0.55686,0.10409 -0.59531,0.33022 l -0.0222,-0.39688 z"
       id="path6978" />
  </g>
</svg>
