<?xml version="1.0" encoding="UTF-8" standalone="no"?>
<!-- Created with Inkscape (http://www.inkscape.org/) -->

<svg
   xmlns:dc="http://purl.org/dc/elements/1.1/"
   xmlns:cc="http://creativecommons.org/ns#"
   xmlns:rdf="http://www.w3.org/1999/02/22-rdf-syntax-ns#"
   xmlns:svg="http://www.w3.org/2000/svg"
   xmlns="http://www.w3.org/2000/svg"
   xmlns:sodipodi="http://sodipodi.sourceforge.net/DTD/sodipodi-0.dtd"
   xmlns:inkscape="http://www.inkscape.org/namespaces/inkscape"
   width="55.935497mm"
   height="58.745392mm"
   viewBox="0 0 55.935497 58.745392"
   version="1.1"
   id="svg8"
   inkscape:version="0.92.1 r15371"
   sodipodi:docname="tubman-silhouette.svg">
  <defs
     id="defs2" />
  <sodipodi:namedview
     id="base"
     pagecolor="#ffffff"
     bordercolor="#666666"
     borderopacity="1.0"
     inkscape:pageopacity="0.0"
     inkscape:pageshadow="2"
     inkscape:zoom="2.8"
     inkscape:cx="176.47421"
     inkscape:cy="84.203165"
     inkscape:document-units="mm"
     inkscape:current-layer="layer1"
     showgrid="false"
     fit-margin-top="0"
     fit-margin-left="0"
     fit-margin-right="0"
     fit-margin-bottom="0"
     inkscape:window-width="1680"
     inkscape:window-height="987"
     inkscape:window-x="-8"
     inkscape:window-y="-8"
     inkscape:window-maximized="1"
     inkscape:snap-page="true" />
  <metadata
     id="metadata5">
    <rdf:RDF>
      <cc:Work
         rdf:about="">
        <dc:format>image/svg+xml</dc:format>
        <dc:type
           rdf:resource="http://purl.org/dc/dcmitype/StillImage" />
        <dc:title />
      </cc:Work>
    </rdf:RDF>
  </metadata>
  <g
     inkscape:label="Layer 1"
     inkscape:groupmode="layer"
     id="layer1">
    <path
       style="display:inline;opacity:1;fill:#000000;stroke:#000000;stroke-width:0"
       d="m 113.95508,26.748047 c -0.7158,-0.02343 -1.44883,-0.02668 -2.1543,0.0059 -1.7912,0.08126 -3.15964,0.758623 -4.42383,0.705078 -2.93387,-0.12427 -2.32244,-1.006028 -5.66211,-0.578125 -2.20063,0.281953 -2.540849,1.572957 -4.564449,2.1875 -1.856882,0.563917 -5.345485,0.86512 -6.976563,1.216797 -3.44496,0.742764 -4.819625,2.842178 -9.865234,5.595703 -3.830499,2.090414 -8.347613,6.352627 -11.72461,10.06836 -2.789797,3.069638 -4.384088,7.249579 -6.134765,9.921875 -2.645118,4.037612 -6.212355,9.545353 -8.22461,16.46289 -2.809519,12.114471 -2.792892,28.019426 -0.01563,32.951176 l 1.681641,2.33984 c 0.155868,1.42123 0.411693,2.44026 1.457031,3.15625 0,0 0.649699,1.01622 0.867188,1.57422 0.23811,0.61092 0.488064,1.25493 0.466797,1.91015 -0.02646,0.81099 -0.633944,1.48423 -0.730469,2.32227 -0.120491,1.0462 0.377919,2.06 0.289062,3.10938 -0.06368,0.75184 -0.935843,1.39008 -0.773437,2.12695 0.280516,1.27272 2.755859,2.77344 2.755859,2.77344 0.880188,-0.0246 1.587213,0.12923 2.261719,0.38281 0.701786,0.26385 1.368373,0.63565 2.158203,1.02344 l 1.525391,-0.48633 c 2.106905,0.19805 3.887256,0.81816 5.339843,1.85742 2.8737,7.50143 8.56996,23.09335 5.888672,29.59375 -1.376182,0.64297 -1.459106,1.11659 -1.855468,2.49609 l -8.03711,14.33985 c -0.07616,0.0129 -0.156858,0.0814 -0.240234,0.21875 -1.157734,1.90725 -3.521003,2.25505 -6.011719,2.58398 l -1.595703,1.2832 -11.806641,4.62696 c -2.671358,-0.92521 -3.718485,0.25199 -4.830078,2.60156 -4.212669,0.80245 -7.737964,4.30304 -11.539062,5.65625 -6.589413,-0.1115 -6.121746,0.76373 -7.244141,3.83789 -1.604258,0.97039 -2.876291,2.09983 -4.767578,3.29297 -1.500669,1.36996 -3.869425,1.37947 -5.425781,1.52734 C 7.643012,198.55569 4.1101151,202.2518 0,206.29688 v 6.15429 9.57813 h 38.095703 5.326172 6.242187 47.126954 26.583984 4.72852 1.00781 7.14258 18.34765 17.37696 25.34179 14.08985 v -10.64063 l -2.45899,-0.46289 -2.70312,-1.5957 -13.16993,-7.17969 -5.29296,-3.4707 c -3.19195,0.13992 -5.93561,-0.68959 -8.59766,-2.61524 -3.60873,-2.06368 -7.76256,-3.44637 -12.46289,-4.14648 l -4.02149,-2.08008 c -3.11471,0.39815 -5.85939,0.33294 -8.23437,-0.19336 l -4.71875,1.16602 c -2.52409,-1.58377 -5.37621,-2.64595 -9.04688,-2.79688 0,0 -2.77126,-3.03278 -3.69335,-4.42187 l -0.0723,-0.0293 c 0.81238,-1.06783 1.15783,-3.19912 1.68945,-5.00391 0.85118,-2.88962 1.65625,-5.46484 1.65625,-5.46484 l 1.87891,-1.82813 5.08008,-4.75 0.20703,-0.25976 2.88867,-3.16406 0.58008,-1.16992 0.48633,-0.60547 2.69531,-4.16993 0.28711,-0.26757 2.2539,-3.88282 6.91211,-16.00976 0.28516,-0.26758 3.53906,-7.26367 c 8.7262,-1.60479 12.59623,-22.4672 10.42578,-25.61914 L 177.75,99.410156 c 0.684,-2.754807 1.7543,-5.793502 1.0957,-8.734375 1.01808,-1.47798 1.51959,-3.926528 1.21094,-5.669922 l 0.26172,-4.767578 C 178.17004,70.844742 175.77257,62.358728 170.21484,56.087891 164.12675,47.771437 150.49786,35.545927 140.58398,32.445312 134.84139,30.509645 128.4875,29.273125 122.5,27.8125 l -3.75,-0.685547 c -0.65253,-0.05333 -2.64753,-0.308713 -4.79492,-0.378906 z"
       transform="scale(0.26458333)"
       id="path4528" />
  </g>
</svg>
