<?xml version="1.0" encoding="UTF-8" standalone="no"?>
<!-- Created with Inkscape (http://www.inkscape.org/) -->

<svg
   xmlns:dc="http://purl.org/dc/elements/1.1/"
   xmlns:cc="http://creativecommons.org/ns#"
   xmlns:rdf="http://www.w3.org/1999/02/22-rdf-syntax-ns#"
   xmlns:svg="http://www.w3.org/2000/svg"
   xmlns="http://www.w3.org/2000/svg"
   xmlns:sodipodi="http://sodipodi.sourceforge.net/DTD/sodipodi-0.dtd"
   xmlns:inkscape="http://www.inkscape.org/namespaces/inkscape"
   width="55.935497mm"
   height="58.745392mm"
   viewBox="0 0 55.935497 58.745392"
   version="1.1"
   id="svg8"
   inkscape:version="0.92.1 r15371"
   sodipodi:docname="tubman-portrait.svg">
  <defs
     id="defs2" />
  <sodipodi:namedview
     id="base"
     pagecolor="#ffffff"
     bordercolor="#666666"
     borderopacity="1.0"
     inkscape:pageopacity="0.0"
     inkscape:pageshadow="2"
     inkscape:zoom="2.8"
     inkscape:cx="60.200228"
     inkscape:cy="107.90886"
     inkscape:document-units="mm"
     inkscape:current-layer="layer1"
     showgrid="false"
     fit-margin-top="0"
     fit-margin-left="0"
     fit-margin-right="0"
     fit-margin-bottom="0"
     inkscape:window-width="1680"
     inkscape:window-height="987"
     inkscape:window-x="-8"
     inkscape:window-y="-8"
     inkscape:window-maximized="1" />
  <metadata
     id="metadata5">
    <rdf:RDF>
      <cc:Work
         rdf:about="">
        <dc:format>image/svg+xml</dc:format>
        <dc:type
           rdf:resource="http://purl.org/dc/dcmitype/StillImage" />
        <dc:title></dc:title>
      </cc:Work>
    </rdf:RDF>
  </metadata>
  <g
     inkscape:label="Layer 1"
     inkscape:groupmode="layer"
     id="layer1">
    <path
       inkscape:connector-curvature="0"
       style="display:inline;opacity:1;fill:#000000;stroke:#000000;stroke-width:0"
       d="M 27.167335,6.8967375 25.414986,7.6760182 24.988655,7.5979868 24.429,7.82743 24.217643,7.8088272 23.74067,8.0289687 l -0.293522,-0.0093 -1.268657,0.8097697 -0.09405,0.093534 -0.678511,0.2847372 -2.525428,1.9099614 -0.04858,0.130741 -0.545703,0.541052 -0.05529,0.06873 -0.10542,0.178801 -0.31626,0.348299 -0.156063,0.289388 -0.170015,0.164848 -0.13746,0.454236 -0.252697,0.174149 -0.05013,0.110071 -0.170015,0.165365 -0.348816,1.187524 -0.346232,0.08061 -0.06666,0.153479 -0.03876,0.401526 -0.243396,0.06873 -0.02274,0.169499 -0.112655,0.116788 -0.261483,0.280087 -0.05013,0.110071 -0.05529,0.06873 -0.03669,0.421679 c 0.177345,0.09177 0.134335,0.2082 -0.128674,0.348816 l -0.09612,0.07338 -0.10542,0.1788 -0.206706,0.21084 c -0.130007,0.234521 -0.150071,0.557201 -0.05995,0.9679 l -0.196887,0.293522 -0.133325,0.119372 c -0.0093,0.444011 -0.137764,0.792261 -0.385506,1.045415 0.08402,0.430877 0.05173,0.768977 -0.09664,1.013891 l 0.0646,0.202055 -0.137976,1.018026 0.114722,0.280086 -0.117305,0.07545 c 0.07578,0.331495 0.04133,0.586137 -0.103353,0.763777 -0.118649,0.01039 -0.121684,0.17093 -0.0093,0.481625 l 0.0093,0.08268 0.0093,1.210779 0.141594,0.527616 -0.04547,0.339514 0.150895,0.233578 c 0.0378,0.642176 0.166119,1.171581 0.384989,1.587501 l 0.444934,0.619082 c 0.0097,0.388972 0.108164,0.649939 0.295589,0.782381 l 0.08992,0.05271 0.35295,0.921906 -0.266134,0.614434 -0.05529,1.385445 0.729155,0.733806 0.571024,0.06201 0.112138,0.07131 0.486275,0.238747 0.403593,-0.128675 c 0.557452,0.0524 1.028502,0.216468 1.412834,0.491441 l 0.293522,0.761193 -5.29e-4,0.376206 0.614433,1.394746 0.10542,0.573093 -0.02739,0.128675 c 0.255574,0.370056 0.396115,0.883528 0.42168,1.540991 l 0.01395,0.500227 c 0.219767,0.524478 0.358757,1.149582 0.417028,1.875853 l -0.280086,0.679029 -0.332796,0.204121 -0.05271,0.0894 -0.10542,0.366903 c 0.122536,0.476756 0.341691,0.821672 0.657841,1.034563 l 0.176733,0.08475 0.266134,0.325562 0.42168,0.224793 0.07338,0.09663 0.146761,0.192755 0.151412,0.04548 0.124024,0.174665 0.11007,0.05013 0.118856,0.133326 0.197404,0.08268 0.07338,0.09612 0.132808,0.06873 0.170016,0.02326 0.09819,-0.05271 -0.479041,-1.305346 -0.210839,-0.20619 -0.128158,-0.02739 -0.305408,0.07545 -0.05736,-0.140044 0.302824,-0.28422 0.02325,-0.169498 -0.795817,-0.01654 0.208773,-0.190169 0.09819,-0.05271 0.05323,-0.0894 0.04548,-0.151413 -0.15348,-0.254765 -0.169498,-0.02273 -0.190686,-0.208775 0.03256,-0.08733 -0.02791,-0.05943 0.09664,-0.07338 -0.05064,-0.07803 0.21549,-0.128675 0.248047,0.160713 0.07338,0.09664 0.28422,0.11472 0.123507,0.174152 0.08268,-0.0093 0.174666,-0.124023 0.05013,-0.298172 -0.56844,-0.229444 -0.181385,-0.502296 -0.130741,-0.04806 -0.06873,-0.242879 0.101285,-0.03204 0.07803,-0.05064 0.130224,0.236162 0.298173,0.05064 0.0026,-0.355534 -0.05271,-0.0987 -0.0894,-0.05271 C 21.755376,39.95044 21.636085,39.692077 21.61108,39.315945 l -0.238745,-0.07803 0.09663,-0.07338 0.401009,0.03927 0.07131,0.07545 0.151412,0.04599 -0.04134,0.192754 -0.128674,-0.02791 -0.0987,0.05271 0.08062,0.158647 0.01137,-0.08526 0.172083,0.04392 0.128158,0.215492 0.140043,-0.05736 0.04341,-0.172083 0.195337,0.06201 0.0615,0.55759 c -0.15047,0.100272 -0.186543,0.278371 -0.108004,0.534334 0.238507,0.06549 0.330988,0.02027 0.277502,-0.135392 l -0.07286,-0.284221 0.08682,-0.156062 0.160714,-0.05943 0.518314,0.715201 -0.09663,0.261482 0.362251,0.440801 0.133326,0.06873 -0.01395,0.06408 -0.06873,0.13281 -0.133326,0.307472 0.06201,0.181386 0.08475,0.01138 -0.06873,0.132807 0.110071,0.05064 0.105419,0.0093 0.17415,0.25218 0.348816,0.128675 0.07803,-0.05064 0.272852,0.01188 -0.07131,0.300241 -0.14211,0.03669 0.0093,0.08268 0.07803,0.137459 0.199471,0.103354 -0.04599,0.339514 -0.263549,0.2589 0.1788,0.293521 0.314193,0.0067 0.06615,0.222726 -0.192753,0.146762 -0.09612,0.07338 -0.366902,0.08217 -0.156063,-0.08682 -0.0708,-0.264065 -0.344165,-0.08733 -0.0186,-0.164849 0.163298,-0.03876 -0.167432,-0.0026 c -0.08284,-0.169119 -0.01323,-0.23241 0.208773,-0.190169 l 0.169499,-0.164849 -0.08733,-0.03204 c 0.143738,-0.0856 0.150089,-0.15629 0.0186,-0.211357 l -0.40566,-0.644404 -0.149345,-0.02532 -0.217558,0.108005 -0.05788,0.236159 0.291454,0.364321 0.130742,0.04857 -0.04599,0.151413 -0.05943,0.02739 0.167432,0.0021 c 0.07336,0.159025 0.02448,0.220178 -0.146762,0.183451 l -0.02997,-0.0801 -0.330212,0.224277 -0.02325,0.170013 c 0.102108,0.141909 0.298796,0.155109 0.589628,0.03927 l 0.130741,0.424264 -0.03204,0.08682 0.118856,-0.05478 0.06925,0.05478 0.118856,-0.05478 0.119372,0.132807 -0.08733,0.156065 c -0.118648,0.0104 -0.12175,0.170942 -0.0093,0.481623 l 0.07338,0.09612 0.114721,-0.09612 0.142111,0.151414 0.06925,0.05529 -0.09663,0.07338 -0.06408,-0.01394 0.06873,0.05478 0.12144,0.153995 0.15813,-0.0801 0.08733,0.03204 -0.0186,0.210842 0.174666,0.252179 0.325562,0.110072 0.07338,0.09663 0.110071,0.05064 0.06873,0.05478 0.368969,0.126089 0.497645,0.530202 0.149347,0.02532 0.212905,0.226859 0.289388,0.156065 0.07338,0.09612 0.155546,0.08733 0.110069,0.05064 0.240813,0.0987 0.167431,0.19017 0.635103,0.264067 0.07597,0.116787 0.06873,0.0553 0.130741,0.04806 0.07131,0.07545 0.51108,0.278019 0.07131,0.07545 0.325562,0.298172 0.465606,0.240813 0.07079,0.07596 0.291457,0.176733 0.07079,0.07545 0.559657,0.334865 0.06873,0.05529 0.476975,0.344168 0.06873,0.05478 0.202057,0.124024 0.06873,0.05478 0.557073,0.314708 0.112654,0.0708 0.174149,0.0646 2.190565,-1.914613 0.126089,-0.181385 0.626319,-0.571023 0.231511,-0.360186 0.0553,-0.06873 c 0.44508,-0.809966 0.731242,-1.747271 0.858345,-2.811716 l 0.380855,-0.522449 1.344104,-1.256771 0.05478,-0.06873 0.764294,-0.837158 0.15348,-0.309541 0.128674,-0.160197 0.713134,-1.103294 0.07597,-0.07079 0.596344,-1.027329 1.828829,-4.235916 0.07545,-0.0708 0.936376,-1.921846 1.139984,-0.460955 0.04806,-0.130741 0.05478,-0.06873 0.463536,-0.344164 0.676963,-1.809191 0.07545,-0.0708 c -0.02437,-0.571228 0.06156,-1.054474 0.25735,-1.449523 l -0.0093,-0.08268 0.206705,-0.775147 -0.07803,-0.325562 c 0.212612,-0.26873 0.266116,-0.664808 0.160714,-1.18804 L 47.093826,26.22942 47.54806,24.298788 47.4659,23.931886 c 0.206475,-0.348873 0.28126,-0.803399 0.224792,-1.362708 l -0.05064,-0.07803 0.06925,-1.261422 c -0.403847,-2.685493 -1.25148,-4.799371 -2.542562,-6.34173 l -0.130741,-0.04806 -0.84129,-1.181324 -0.09405,-0.09405 -0.362251,-0.440283 -0.247531,-0.160714 -0.149344,-0.213424 -0.130225,-0.04806 -0.541571,-0.545703 -0.06873,-0.05529 -0.236162,-0.245462 -0.339513,-0.04599 -0.868683,-0.864547 -0.110069,-0.05064 -0.07338,-0.09612 -0.282154,-0.09405 -0.07131,-0.07596 -0.199472,-0.103353 -0.167431,-0.190169 -0.110072,-0.05064 -0.07338,-0.09612 L 39.89523,10.123946 39.340224,9.8299074 39.262193,9.6924479 38.936631,9.3942748 38.780569,9.3069417 38.661713,9.1741333 38.250884,9.052177 38.083453,8.8620078 37.196167,8.5845051 l -0.07131,-0.075964 -1.199409,-0.4521686 0.07131,0.2640666 -0.156062,0.288871 -0.296105,0.1581301 0.135392,0.2775024 0.1788,-0.082682 0.05064,-0.1100709 0.577744,-0.252181 0.0052,-0.1467609 0.0341,0.1219562 0.135393,-0.098702 0.09612,0.3028241 -0.02273,0.1694987 0.103351,0.1767332 0.158131,0.1080039 0.265615,0.1374593 0.128675,0.027388 0.417547,0.1834517 -0.06925,0.3214274 -0.238228,0.1100707 -0.210841,-0.018603 -0.133324,0.119372 0.124024,0.17415 0.15141,0.04599 0.09612,0.114722 -0.02997,0.107487 -0.387572,0.272851 -0.05064,0.110588 -0.201538,0.06408 -0.08268,0.0093 -0.747757,-0.147278 0.261482,-0.467672 0.09664,-0.07338 -0.256834,-0.242879 -0.316775,0.160197 -0.08682,-0.03204 -0.07803,0.05064 0.01344,-0.0646 0.142629,-0.4123779 0.48369,-0.3462323 c 0.04954,-0.1810273 0.0076,-0.2463802 -0.12609,-0.1953368 l -0.23151,-0.01602 -0.04806,0.1307412 -0.532268,-0.087333 0.236162,-0.1307412 c 0.03001,-0.1816303 -0.08482,-0.2103003 -0.344165,-0.086816 l -0.05271,0.2775024 0.197403,0.2702678 -0.119372,0.243396 -0.247531,0.2154908 0.07751,0.137459 0.406178,0.08061 0.07545,0.304891 -0.06408,0.17415 0.385506,0.08268 0.105418,0.197404 -0.02997,0.107487 -0.30489,0.07596 -0.288872,-0.344165 c -0.309153,-0.02422 -0.416486,0.0779 -0.321427,0.306958 l -0.0186,0.211356 0.474906,0.135393 0.07131,0.07545 0.375687,0.752408 c 0.229974,-0.0868 0.337355,-0.06398 0.321427,0.06873 l 0.242879,0.307475 -0.02997,0.108004 -0.566372,-0.02067 -0.1788,0.45837 0.144177,0.172082 0.130741,0.04806 0.02739,0.05995 0.01188,-0.08527 0.346231,0.108004 -0.318844,0.140043 -0.07597,-0.117305 -0.169497,-0.02274 -0.151413,0.330212 0.08475,0.01137 0.08475,0.199471 0.19482,0.438216 0.401524,0.03927 0.202054,-0.06408 0.199472,0.102837 0.144177,0.360184 0.293524,0.0093 0.119372,-0.05478 0.282154,0.09405 0.247528,0.348299 0.19017,0.02119 0.353467,-0.206705 0.545703,0.211356 0.06873,0.05478 0.170013,0.02325 0.24288,-0.06873 0.587044,0.206189 0.15348,0.254765 0.0987,0.135392 -0.314192,0.180868 -0.140044,-0.130742 -0.04083,0.0047 0.169501,0.399459 -0.192755,0.334863 -0.02532,0.33693 -0.103352,0.01137 -0.119375,0.243396 0.07338,0.09612 c -0.150445,-0.02511 -0.194019,0.02169 -0.130742,0.140044 0.213159,-0.112798 0.303006,-0.0602 0.268716,0.158129 l -0.126605,0.36897 -0.29559,0.158647 -0.167431,-0.190686 -0.272852,-0.01137 -0.582911,0.398942 -0.08217,0.0093 -0.334861,-0.0047 -0.0987,0.05271 0.07545,0.116789 0.396875,-0.0021 0.194821,0.06201 0.128675,0.0279 0.07803,-0.05064 0.587044,0.0186 0.24288,-0.06873 0.518313,0.151412 c 0.339437,-0.0293 0.570627,-0.145799 0.692981,-0.348816 l 0.06408,-0.17415 0.247531,-0.215491 0.07338,0.09612 -0.11679,0.828373 -0.181383,0.06149 -0.215492,-0.05943 -0.03927,0.588594 c 0.02447,-0.03057 0.07975,-0.03645 0.165364,-0.01809 l 0.178801,0.105419 -0.325562,0.07803 c -0.03654,-0.07921 -0.04274,-0.134203 -0.0186,-0.164848 l -0.499713,0.01395 0.02066,-0.190169 -0.1788,-0.294039 -0.218075,0.108004 -0.03928,0.401526 0.0987,0.134875 0.25218,0.01395 0.362252,0.628385 -0.07545,0.07131 -0.231511,0.172082 -0.04858,0.130742 -0.05013,0.11007 -0.06666,0.153479 -0.07596,0.0708 -0.164849,0.394808 0.325562,0.110071 0.119372,-0.05529 0.692465,0.216008 0.362252,-0.124024 0.153479,0.06666 0.112655,0.07131 0.29352,0.0093 0.430983,-0.256832 0.146762,0.192753 0.238744,0.07803 0.224792,0.518315 -0.07803,0.238228 -0.546219,0.353467 C 41.899964,22.748699 41.552254,22.689335 41.11067,22.77732 l -0.01138,0.08527 -0.210841,-0.0186 c -0.08138,0.195693 -0.273765,0.28667 -0.576191,0.272852 l -0.12609,-0.19482 -0.334865,0.183451 -0.110072,0.137459 -0.545703,0.164848 -0.08733,-0.03204 -0.238228,0.11007 -0.08268,0.0093 -0.151413,0.142111 0.0047,-0.146762 -0.06873,-0.05529 -0.08268,0.0093 -0.09612,0.07338 0.07338,0.09663 0.06408,0.01344 -0.119372,0.05529 0.133326,0.06873 c 0.04463,0.125996 -0.05476,0.171755 -0.298174,0.137459 l -0.243396,-0.119372 -0.09612,-0.114722 -0.05271,-0.09819 -0.190685,-0.02067 -0.03876,0.212907 -0.172082,0.144694 -0.234093,0.151412 -0.298172,-0.05064 -0.139528,0.05736 -0.121957,0.598413 -0.210839,0.170015 -0.09198,0.302307 0.05271,0.0987 0.0894,0.05271 0.142111,0.151412 -0.03204,0.08733 0.0093,0.08268 -0.05013,0.11007 -0.05529,0.06873 -0.0093,0.293522 0.07338,0.284221 c -0.174319,0.0862 -0.223155,0.272806 -0.14676,0.559654 l 0.105418,0.197406 -0.03204,0.463021 0.118856,0.321426 -0.07338,0.467672 0.119372,0.132808 0.132807,0.06925 0.07338,0.09612 -0.194818,0.126092 -0.05271,0.0894 -0.09405,0.470255 0.440283,-0.174149 -0.06666,0.905886 0.05271,0.0987 c 0.01159,0.07951 0.131734,0.09382 0.360185,0.04341 l 0.07338,0.09664 -0.06459,0.174149 0.1788,0.293524 c 0.135779,-0.03177 0.196413,0.07292 0.181385,0.314192 -0.107945,-0.01868 -0.124368,0.08766 -0.04858,0.318842 l -0.233577,0.715719 c -0.289012,0.207581 -0.694563,0.322035 -1.215945,0.343649 l -0.107487,-0.02997 -0.02997,0.108003 -0.04599,0.151413 -0.160713,0.05943 -0.201538,-0.124024 -0.352952,-0.733806 c -1.023495,0.01601 -1.756992,0.250725 -2.199865,0.703834 l -0.121438,0.222208 -0.419613,0.172082 -0.22686,-0.350882 -0.211357,0.169497 -0.0186,0.587045 0.318842,0.612368 0.0894,0.05271 c 0.110043,0.23854 0.348752,0.31659 0.715719,0.234093 l 0.114723,-0.09612 0.06408,0.01394 0.08062,-0.406175 c 0.609147,-0.03415 1.086472,-0.184772 1.432988,-0.451651 l 0.232027,0.01601 c 0.01889,0.346165 0.135932,0.584263 0.350882,0.713653 l 1.68982,0.355533 0.07131,0.264068 -0.02326,0.169497 0.153996,0.254765 0.09353,0.09405 0.394806,0.541052 -0.130741,0.328147 0.153479,0.06666 0.607717,0.01603 -0.05736,0.236162 -0.08268,0.385506 0.05271,0.09818 0.170016,0.02326 c 0.05075,0.105815 -0.02207,0.141473 -0.218075,0.107487 l -0.240813,-0.0987 0.277503,0.428916 0.28422,0.114721 -0.252182,0.174667 -1.023191,-0.179318 -0.210841,0.1695 -0.05943,0.216005 0.05271,0.09819 0.339513,0.04599 c 0.06052,0.118658 0.01696,0.165449 -0.130741,0.140041 l -0.119372,0.0553 -0.174665,-0.0646 -0.318328,-0.04806 -0.112654,-0.07132 h -0.376206 l -0.398941,0.1695 -0.651124,-0.220141 -0.610299,0.151411 -0.422195,-0.03669 -1.371492,0.444418 -1.586984,-0.367419 -0.447,0.300757 -0.06201,0.194821 c 0.841843,0.0292 1.601547,0.160739 2.279449,0.394806 l 0.770495,-0.210839 c 0.601465,0.172884 1.291482,0.235871 2.069124,0.188619 l 0.770496,-0.210841 0.825272,0.28422 0.486275,-0.137459 h 0.376204 l 0.284739,-0.07338 0.281636,0.09457 0.318844,0.424262 0.07131,0.07545 -0.314193,-0.0067 -0.0987,0.05271 -0.04806,0.130741 -0.07596,-0.11679 -0.107487,-0.02997 -0.174667,0.123508 -0.100767,0.784447 c -0.352891,0.0336 -0.589934,0.157551 -0.711068,0.371554 l -0.743108,0.08217 -0.174665,-0.06408 -0.568442,0.146762 -0.08268,0.0093 -0.412895,0.04599 -0.738455,-0.252698 -0.495578,0.05478 c -0.188015,-0.188452 -0.485754,-0.239 -0.894003,-0.151929 l -1.03663,-0.490924 -0.06873,-0.05478 c -0.231476,-0.227991 -0.563197,-0.330843 -0.995288,-0.307991 l -0.298173,-0.238744 -0.165364,-0.1695 -0.13281,-0.06873 -0.765845,-0.312126 -0.06873,-0.05529 -0.04858,0.130741 -0.419611,-0.01603 -0.172085,-0.04341 -0.02273,0.169497 -0.28422,0.07338 -0.08062,0.218074 -0.04806,0.130742 0.759126,-0.126093 0.128159,0.215493 -0.08268,0.385506 0.1881,0.188102 -0.01344,0.06408 0.110072,0.05013 -0.07803,0.238744 -0.0553,0.06873 -0.132808,0.307475 0.10077,0.156065 -0.08268,0.196887 -0.148828,-0.02532 -0.07596,-0.304892 0.04392,-0.360186 c -0.283805,0.15407 -0.412993,0.119563 -0.387572,-0.103351 l -0.12609,-0.382924 -0.172082,-0.04341 -0.05064,-0.07803 0.06459,-0.174149 -0.05736,-0.140044 0.07338,-0.09199 -0.819071,-0.0341 -0.180869,0.06149 c 0.01958,-0.09968 -0.07291,-0.117195 -0.277503,-0.05271 l -0.08268,0.0093 -0.07131,-0.07545 0.112654,-0.117305 0.334865,-0.183452 c 0.06449,0.154437 0.221863,0.19317 0.47232,0.115239 l 0.04134,-0.192754 -0.124024,-0.174665 -0.196887,-0.08217 0.03204,-0.08733 -0.12609,-0.0067 0.190167,-0.167431 -0.105418,-0.0093 -0.279569,0.114723 -0.422199,-0.224793 0.211358,-0.734322 -0.21549,-0.24753 -0.195337,-0.06201 -0.0801,-0.346231 0.156065,-0.288872 0.149344,0.02532 -0.362252,-0.628386 -0.396875,-0.186036 -0.0894,-0.428913 0.364837,-0.103355 0.0093,-0.29352 -0.05271,-0.0987 -0.422196,-0.03669 -0.08475,-0.199472 -0.08268,0.0093 -0.128158,-0.02739 -0.337447,0.162782 0.03927,-0.213424 0.139526,-0.05736 0.09405,-0.09405 0.165365,-0.0181 0.444934,-0.320911 -0.121438,-0.342098 -0.170016,-0.02273 -0.11679,-0.300754 0.02325,-0.1695 -0.06201,-0.181385 -0.0894,-0.05271 -0.130742,-0.04806 -0.07596,-0.116787 -0.215491,-0.05994 -0.435632,0.21549 -0.156063,-0.08682 -0.116789,-0.300757 0.07597,-0.0708 0.0615,-0.195336 -0.272852,-0.01138 -0.137459,0.266133 -0.19017,-0.02066 0.04548,-0.339513 0.149345,0.02532 -0.02739,-0.05943 -0.07803,-0.137975 -0.12144,-0.15348 -0.172083,-0.04393 -0.07803,-0.137459 -0.458887,-0.1788 -0.06615,-0.222726 0.176734,-0.102836 0.08682,0.03204 0.0987,-0.05271 -0.0894,-0.240813 -0.394291,0.398941 -0.137976,0.07803 -0.172083,0.144176 c 0.07886,0.158417 0.02307,0.220626 -0.167431,0.186034 l -0.155546,-0.08733 0.114721,-0.472321 -0.816487,-0.57826 -0.126091,-0.382921 -0.19482,-0.06201 -0.312126,0.201538 -0.148828,-0.02532 -0.195337,-0.249597 0.488859,-0.117306 0.02532,-0.148828 -0.07338,-0.09664 -0.176733,0.103354 -0.268201,-0.346234 -0.202054,0.06408 -0.135393,-0.277503 -0.692464,0.160197 c -0.04949,-0.245255 0.0079,-0.418581 0.172083,-0.52038 l 0.137459,-0.07803 0.03256,-0.08681 -0.05064,-0.07803 0.04134,-0.192755 0.05064,0.07803 0.0047,-0.146759 -0.05064,-0.07803 c -0.01065,-0.296929 0.08442,-0.509596 0.284738,-0.637686 l 0.366902,-0.270269 0.176734,-0.667658 0.190169,-0.167433 0.234094,-0.339513 0.09612,-0.07338 0.408761,-0.651124 0.05478,-0.06873 0.06666,-0.153479 0.190169,-0.167431 0.05529,-0.06873 0.573608,-0.857829 0.575675,-0.272851 0.116789,0.300756 -0.130741,0.327629 -0.07597,0.07131 -0.01344,0.628385 0.05271,0.0987 0.469738,0.09405 -0.03204,0.274919 -0.137459,0.07803 0.185518,0.167432 0.01137,-0.08475 0.02997,0.0801 0.213423,0.03927 0.132809,0.256833 0.284737,0.114721 0.107487,0.218075 c 0.323548,-0.09718 0.556923,-0.06749 0.699699,0.0894 l 0.536401,-0.05943 0.288873,0.156061 0.07338,0.09612 0.211357,0.0186 0.28422,-0.261482 0.02532,-0.149347 0.406178,-0.295587 0.288869,0.156062 0.389642,0.687813 1.073319,0.257347 0.213423,-0.148828 c -0.03915,-0.427693 0.0565,-0.759235 0.286806,-0.993738 l 0.316259,-0.160195 0.19947,0.103352 0.334864,0.756544 0.470255,-0.09405 0.371554,0.147278 0.112138,0.258897 0.231511,0.01603 0.0987,-0.05271 0.01138,-0.272852 -0.169497,-0.398941 0.513664,-0.266134 c 0.194205,-0.158059 0.217475,-0.453101 0.06925,-0.885217 l -0.05269,-0.09873 -0.291457,-0.176733 -0.116787,0.264066 -0.181385,0.06201 -0.201538,-0.124023 -0.05736,-0.140043 -0.0894,-0.05271 -0.436147,-0.160714 c 0.0067,-0.140052 -0.115528,-0.175092 -0.366903,-0.10542 l -0.07338,0.09147 -0.990637,0.110071 c -0.09638,0.311586 -0.347218,0.499859 -0.752409,0.564307 l 0.256833,0.430981 -0.124023,0.201537 -0.325562,0.07803 c -0.142224,-0.02604 -0.204962,-0.15145 -0.188103,-0.376206 l 0.05529,-0.256832 -0.490926,-0.09147 -0.408242,0.08682 -0.0987,-0.323495 -0.19482,-0.06201 -0.169498,-0.02274 -0.656291,0.114722 -0.380339,0.334346 -0.98857,0.318844 -0.07131,-0.07596 -0.10542,-0.0093 -0.06873,-0.05478 0.03204,-0.08733 0.298173,-0.137459 0.08733,-0.156063 0.325561,-0.07752 0.169499,0.02274 0.03669,-0.234094 -0.217558,-0.0801 -0.259415,-0.451653 0.02067,-0.190686 0.07131,-0.112137 -0.238745,-0.07803 -0.09819,0.05271 -0.02325,0.169499 -0.06666,0.153996 -0.10542,0.1788 0.08475,0.01137 c 0.08221,0.238842 0.06736,0.352075 -0.04547,0.339515 l -0.03927,-0.162781 -0.06873,0.132808 -0.08268,-0.1788 0.02997,-0.108004 -0.153481,-0.06666 -0.248046,-0.160197 0.156062,-0.288871 c 0.276133,0.0029 0.422833,-0.05565 0.440284,-0.174667 l -0.05013,-0.07803 -0.170015,-0.02274 -0.118856,0.05529 -0.07803,-0.137976 0.183451,-0.04134 0.03669,-0.233578 0.06408,-0.174666 -0.139526,-0.506429 0.32091,-0.119373 0.06666,-0.153479 0.304891,-0.640271 -0.139526,0.05736 -0.08733,-0.03204 -0.21549,0.316777 -0.140043,0.05736 -0.06666,-0.222725 0.124023,-0.202055 0.181385,-0.06149 0.01602,-0.232027 0.02739,-0.128158 0.06201,-0.19482 0.162781,-0.03927 -0.07803,-0.325561 0.05736,-0.236162 0.199987,-0.08475 0.258899,-1.052649 0.07597,-0.07131 0.135392,-0.286288 0.116789,-0.07596 0.124023,-0.201538 0.05064,-0.110071 0.233577,-0.339514 0.11472,-0.09664 0.243398,-0.256832 0.270783,-0.384989 0.32091,-0.307475 0.234096,-0.338998 0.05478,-0.06873 0.479558,-0.95188 0.07596,-0.07131 c 0.530523,-0.615969 1.267655,-1.066521 2.211082,-1.352262 l 0.476975,0.156063 c 0.186267,-0.204542 0.510501,-0.296622 0.97255,-0.275435 l 0.408245,-0.274919 0.05013,-0.11007 0.337447,-0.162781 0.0987,-0.428915 0.254764,-0.153479 0.323493,-0.663008 0.398944,-0.357601 0.124024,-0.201538 0.09818,-0.05271 -0.134877,-0.465605 0.02739,-0.504878 -0.100769,-0.156063 0.03204,-0.08682 -0.261482,-0.47284 0.05736,-0.236161 0.321427,-0.118856 -0.318842,-0.42478 -0.456303,0.218075 -0.07596,-0.304891 0.02066,-0.1906864 c 0.10519,0.018976 0.121613,-0.087347 0.04858,-0.3188437 l -0.284739,-0.1147217 -0.137459,0.078031 -0.01344,0.064079 -0.03669,-0.1421102 0.105421,-0.3669028 0.1881,0.1881024 0.05013,-0.1100709 -0.0708,-0.2635499 -0.199472,-0.1033529 -0.08268,0.0093 -0.07803,0.050126 -0.03204,-0.1007692 C 32.725421,8.5663938 32.665313,8.5244158 32.5179,8.6020599 l -0.01188,0.084749 -0.0341,-0.1214395 0.158129,-0.080099 -0.07338,-0.096635 -0.20619,-0.1648479 -0.775147,-0.3948078 -0.366903,0.082682 -0.08061,-0.1586469 0.07596,-0.070797 0.334862,-0.1834512 0.582393,0.1653646 -0.03204,0.086816 0.197403,0.082682 0.252182,-0.1741495 -0.05736,-0.1400432 -0.108002,-0.029972 -0.09819,0.05271 -0.114723,0.096635 -0.153995,-0.066663 -0.172083,-0.2315104 -0.414962,-0.1632977 -1.174088,-0.03669 -0.366903,0.082682 -0.43098,-0.1193726 -0.07803,0.050126 -0.476972,-0.1560626 -0.518832,0.2247924 -0.5364,-0.3167767 -0.330214,0.03669 -0.07803,0.050643 z m 5.999633,0.5880777 -0.222726,0.066663 -0.02946,0.1080038 0.747241,0.1467609 0.0987,-0.05271 -0.0708,-0.075964 z m 0.894519,0.1519288 -0.140044,0.057361 0.172083,0.2315104 0.575675,0.1033529 c 0.07896,-0.343086 -0.05025,-0.4403149 -0.387572,-0.291455 z m -1.392679,1.1988933 0.05064,0.078031 -0.07803,0.050643 z m -7.274492,0.3472656 0.09147,0.073381 0.10542,0.197404 0.344165,0.087333 0.119373,-0.055294 0.252181,0.013951 0.192237,0.2294434 0.174664,0.064079 0.151413,0.2340947 -0.160713,0.05943 -0.100769,-0.1560633 -0.04599,-0.03669 -0.843876,-0.07338 -0.09663,-0.1147218 0.0186,-0.2108399 -0.403592,0.1281576 -0.170016,-0.022738 0.05994,-0.2154908 z m 8.799463,0.4030764 -0.04548,0.1514118 0.102836,0.1767335 0.236162,0.057361 0.181385,-0.062012 -0.0801,-0.1581298 -0.280088,-0.073381 -0.06873,-0.055294 z m 0.596344,0.1012857 -0.100766,0.03204 z m 4.259173,0.1539957 0.210841,0.018603 0.100767,0.1560633 -0.05478,0.256831 -0.229441,0.192754 -0.128675,0.724503 0.08733,0.03204 0.05943,0.160714 -0.0186,0.21084 0.05995,0.160713 c -0.122342,0.152872 -0.351958,0.219949 -0.688331,0.201539 l 0.02326,-0.169499 0.05943,-0.215491 0.07338,-0.09198 -0.01344,-0.124023 -0.09199,-0.07338 0.124024,-0.01344 -0.09663,-0.114722 0.156062,-0.476974 -0.21549,-0.436149 0.312123,-0.201538 0.06873,-0.1328081 z m -14.751554,0.00672 0.09147,0.073381 -0.05943,0.2154903 0.08682,0.408244 0.216008,0.05994 0.242879,-0.06873 0.238745,-0.110071 -0.0047,-0.04134 0.05943,-0.21549 0.256832,0.05478 0.242879,0.307475 -0.06408,0.174149 -0.353467,0.206706 -0.128157,-0.02791 -0.202055,0.06408 -0.293522,-0.0093 -0.151412,-0.233577 -0.311609,-0.174667 -0.132808,-0.06873 -0.133326,-0.06873 0.07803,-0.4268471 0.114721,-0.096118 0.128675,0.027388 z m 5.816183,0.065112 0.08733,0.032039 0.338998,0.4221963 0.412895,0.330213 -0.07803,0.05064 -0.600996,-0.142111 -0.270269,-0.555521 z m -6.669361,0.1550293 -0.08733,0.343648 -0.348816,0.248047 -0.132809,-0.06925 0.06408,-0.17415 0.05994,-0.21549 z m 11.286131,0.21084 -0.01188,0.08475 -0.116787,0.07545 0.08733,0.220141 0.06873,0.05529 0.07803,-0.05064 0.0093,-0.293522 z m -5.992915,0.03772 0.08682,0.03204 0.151411,0.234094 0.128675,0.02739 0.123507,0.362252 -0.238228,0.110071 -0.293524,-0.0093 -0.197403,-0.270785 -0.09147,-0.07338 -0.261482,-0.09612 0.0181,-0.21084 z m -1.706354,0.06408 0.279569,0.261482 -0.05943,0.215491 -0.0093,-0.08268 -0.765844,-0.124023 0.07338,-0.09147 0.155546,-0.101286 z m -5.522661,0.319877 0.04599,0.03669 0.183451,0.146761 -0.486275,0.137459 0.06408,-0.174149 0.07338,-0.09198 z m 1.472261,0.08733 0.08733,0.03204 0.09612,0.114721 0.0093,0.08268 0.05064,0.07803 -0.101286,0.220142 -0.215491,-0.05995 0.04134,-0.380338 z m 6.444567,0.07906 0.13281,0.06873 0.105937,0.197404 -0.0186,0.21084 0.05478,0.119372 0.133324,0.06873 0.20619,0.353467 -0.481624,0.1788 -0.279569,-0.261483 0.04134,-0.380855 -0.05529,-0.119372 0.0093,-0.293523 z m -2.821017,0.187585 0.210842,0.394808 -0.252183,-0.01395 -0.110069,-0.238745 z m 7.928716,0.08165 -0.140044,0.05736 0.0801,0.158647 0.133326,-0.119373 z m -12.134659,0.05064 0.09612,0.114722 -0.114722,0.09612 0.142111,0.527616 -0.132809,-0.06873 -0.09663,-0.114722 -0.0047,-0.417545 z m 2.013314,0.06925 0.435632,0.536918 0.07803,-0.05064 h 0.376205 l 0.188102,0.188102 -0.133325,0.307475 -0.614433,-0.266133 -0.201538,0.06408 -0.101286,0.220141 -0.114722,0.09612 -0.238228,-0.266133 0.05943,-0.215491 -0.05013,-0.07803 0.03204,-0.463021 z m 1.509468,0.04134 0.265617,0.137976 0.14211,0.151412 -0.10542,0.1788 -0.357601,-0.211356 z m 11.118185,0.02067 0.220142,0.100769 0.05529,0.119372 -0.02326,0.169499 -0.242879,0.06873 -0.09612,-0.114722 0.0181,-0.210839 z m 1.426787,0.05064 0.05943,0.160714 -0.08682,-0.03204 z m -10.696506,0.01654 0.293523,0.384989 0.343646,0.08733 c 0.183357,0.648318 0.475391,1.145243 0.875917,1.490866 l -0.0093,0.293522 -0.32091,0.119372 -0.09663,-0.114721 -0.132807,-0.06873 -0.105421,-0.197404 -0.256831,-0.05529 -0.302824,-0.467672 0.124021,-0.38964 -0.0093,-0.08268 -0.202054,-0.312126 -0.09147,-0.07338 -0.247528,-0.348816 0.03204,-0.08682 -0.05064,-0.07803 z m -4.211112,0.09095 0.128674,0.02739 0.05478,0.119373 -0.02739,0.128157 -0.07803,0.05064 -0.09198,0.302824 -0.32091,0.118856 0.0047,-0.334864 0.110071,-0.137459 z m 14.251843,0.0072 0.1695,0.02274 -0.0186,0.21084 -0.07338,0.09198 -0.03204,0.08682 -0.160194,-0.31626 z m -18.320329,0.235128 0.146761,0.192753 c 0.04278,0.134558 0.0061,0.180292 -0.110071,0.137459 l -0.03204,0.08682 -0.216008,-0.05943 0.0186,-0.21084 0.110071,-0.137976 z m 0.756543,0.04134 0.01395,0.123506 -0.31626,0.160714 0.02274,-0.169499 z m 9.871748,0.100769 c 0.02199,-0.0059 0.05089,-0.0037 0.08682,0.0062 v 5.29e-4 l 0.09147,0.07338 0.100769,0.155546 0.08733,0.03256 0.183451,0.146761 0.07803,0.325561 -0.238744,0.110071 -0.05478,-0.119372 -0.133327,-0.06873 -0.05013,-0.07803 -0.110072,-0.238745 0.08268,-0.0093 -0.133323,-0.06873 c -0.0596,-0.160554 -0.05612,-0.249923 0.0098,-0.267684 z m -9.188069,0.03204 0.05943,0.160713 -0.252181,-0.01395 -0.05064,-0.07751 z m 1.720309,0.05994 0.146244,0.192753 -0.17415,-0.06408 z m -0.871782,0.05529 -0.06873,0.132808 0.0047,0.417546 -0.476973,0.220141 -0.128675,-0.02791 0.156063,-0.100769 -0.08733,-0.408244 0.04134,-0.0046 -0.0047,-0.04134 -0.0093,-0.08268 0.133325,0.06925 0.156063,-0.101286 0.05013,0.07803 z m 19.14095,0.0077 c -0.05815,0.229334 -0.01984,0.322872 0.114723,0.280086 l 0.0093,0.08268 0.133326,0.06873 -0.743106,0.45837 -0.463539,-0.03204 -0.08733,-0.03204 -0.100766,-0.156063 -0.119375,0.05478 0.09199,0.07338 0.05943,0.160714 c 0.116147,0.293584 0.09655,0.490812 -0.05943,0.591695 l -0.573617,-0.27078 -0.564306,0.188102 -0.339514,-0.04599 0.105937,-0.178801 c 0.116242,-0.207919 0.341058,-0.31645 0.674375,-0.325561 l 0.07338,-0.09198 0.274918,-0.155547 0.105937,-0.1788 0.252182,0.01343 0.926558,-0.311609 0.07338,-0.09147 z m -21.053494,0.07906 0.01809,0.164848 -0.156063,0.100768 c -0.107035,0.03973 -0.140556,-0.01184 -0.100769,-0.155546 z m 18.402493,0.131775 0.09147,0.07338 -0.03669,0.421679 -0.298172,-0.05013 -0.06873,-0.243396 z m -17.756021,0.04703 0.220141,0.476973 c 0.08252,0.241593 -0.06259,0.313415 -0.435632,0.215491 l 0.06408,-0.550354 z m 6.063714,0.03772 0.146759,0.192753 -0.160198,0.05943 -0.211355,-0.01809 -0.05013,-0.07803 z m -3.46749,0.0088 0.128674,0.02739 0.160197,0.316259 -0.02739,0.128675 -0.848525,0.261491 -0.202055,-0.312126 0.468188,-0.302824 0.118856,-0.05478 z m 3.995106,0.225309 0.09198,0.07338 c 0.134559,-0.04278 0.201586,0.06138 0.201539,0.312126 l -0.156062,0.100769 -0.05943,0.21549 0.05478,0.119373 0.298173,0.05064 0.13281,0.444934 0.422195,0.03669 0.151411,0.234094 -0.133324,0.306958 0.05529,0.119373 0.1788,0.10542 0.09198,-0.302824 0.5271,-0.14211 c 0.192707,-0.272122 0.478629,-0.456706 0.857827,-0.554488 l 0.256834,0.05478 0.119372,0.321427 -1.050581,0.701249 -0.174152,-0.06408 -0.07803,0.05064 -0.08733,-0.03204 c -0.174285,-0.06424 -0.238071,-0.0153 -0.192232,0.146772 l 0.220141,0.100769 0.118857,-0.05529 -0.07338,0.09198 0.09663,0.114721 -0.220141,0.274919 -0.25735,-0.05478 -0.109553,-0.238745 -0.390158,-0.124024 -0.398941,0.170016 0.04599,0.03669 0.187585,0.188102 0.0093,0.08216 0.05064,0.07803 -0.105421,0.178801 -0.339516,-0.04547 -0.408241,0.08682 -0.422198,-0.03669 -0.09147,-0.07338 0.110072,-0.513664 -0.100769,-0.156063 -0.197405,0.10542 -0.119373,0.05478 -0.417029,0.0052 -0.275435,0.155546 -0.169498,-0.02274 0.05478,-0.633036 0.216008,0.05943 0.242879,-0.06873 0.128674,-0.348299 0.27957,-0.114722 0.385505,0.458887 0.38499,0.08268 0.146762,0.192753 0.07338,-0.09198 0.390158,-0.252181 -0.101286,-0.156063 -0.28422,0.07338 -0.0181,0.21084 -0.09198,-0.07338 -0.0093,-0.08217 -0.151406,-0.234095 -0.311607,-0.174666 -0.100759,-0.155546 0.02739,-0.128674 0.486275,-0.137459 -0.256834,-0.431499 c -0.07643,-0.186546 -0.02913,-0.261002 0.14211,-0.224275 l -0.05013,-0.454236 z m 10.522355,0.295589 0.0093,0.08268 -0.128672,-0.0279 z M 25.17004,12.86175 c 0.02427,-9.53e-4 0.0545,0.0035 0.09043,0.01343 l 0.306958,0.133325 0.307474,0.509013 -0.09198,0.302824 -0.07338,-0.284221 -0.440283,-0.202054 -0.160197,-0.31626 c -0.03209,-0.100918 -0.01184,-0.15321 0.06098,-0.156063 z m -4.955253,0.113688 0.128157,0.02739 0.266134,0.513664 -0.202055,0.0646 -0.21084,-0.0186 -0.05943,-0.160714 -0.128674,-0.02739 0.05064,-0.298173 z m 17.595309,0.0124 0.09612,0.114721 0.179316,0.105421 -0.0739,0.09198 -0.08682,-0.03204 -0.188103,-0.188102 z m -16.118397,0.116272 0.04599,0.03669 c 0.241595,-0.08252 0.331466,-0.02301 0.270268,0.1788 l -0.302824,0.284221 -0.509013,-0.06873 0.05529,-0.256832 0.07338,-0.09147 z m -2.921785,0.03152 0.0093,0.08268 -0.119372,0.05478 z m 4.770251,0.05581 0.05064,0.07803 -0.02325,0.170015 c -0.131505,0.07031 -0.178838,0.01983 -0.142111,-0.151412 l -0.08268,0.0093 z m 17.664038,0.255798 0.137977,0.110071 -0.0739,0.09147 -0.05013,-0.07803 z m -18.127575,0.08837 0.08733,0.03204 0.238745,0.266134 -0.0279,0.128157 -0.160197,0.05994 -0.128675,-0.0279 -0.05943,-0.160197 c -0.106989,-0.211016 -0.09052,-0.310429 0.05013,-0.298173 z m -2.210718,0.03617 0.100769,0.156063 -0.06408,0.17415 -0.02739,0.128674 -0.160714,0.05943 -0.13746,-0.486275 0.128158,0.02739 z m -0.701766,0.07803 -0.0047,0.334864 -0.119373,0.05478 -0.128158,-0.02739 -0.05064,-0.07803 c -0.07335,-0.159024 -0.0383,-0.218581 0.10542,-0.178801 l 0.08733,0.03204 z m 22.058601,0.311092 0.09147,0.07338 -0.07338,0.09198 -0.08733,-0.03204 -0.05013,-0.07803 z m -23.714314,0.206706 0.02274,0.206706 -0.202054,0.06408 -0.05943,-0.160714 z m 0.591695,0.05995 0.196887,0.270268 -0.256831,-0.05478 z m 1.550293,0.03669 0.137459,0.110071 -0.06873,0.133325 -0.170016,-0.02325 0.02791,-0.128157 z m 3.623552,0.266649 c 0.229335,0.05815 0.279863,0.136274 0.151411,0.234095 l -0.170015,-0.02274 z m -3.977019,0.315743 0.05478,0.119373 -0.04082,0.0046 z m 0.72037,0.08733 0.09147,0.07338 0.09198,0.07338 -0.216007,-0.05943 z m -2.522844,0.238229 0.01344,0.124023 -0.169499,-0.02325 z m 7.242452,0.491959 0.06408,0.202055 -0.119372,0.05478 -0.215491,-0.05943 0.02739,-0.128674 z m 0.444934,0.243396 0.08682,0.03204 0.192753,0.229444 0.344165,0.08733 -0.137978,0.266134 -0.297657,-0.05064 -0.174667,-0.06408 -0.201538,-0.312125 z m 1.004073,0.03514 c 0.02236,-0.0025 0.0514,9e-4 0.08733,0.01085 l 0.128675,0.02739 0.14211,0.151412 -0.325562,0.07803 -0.05064,-0.07803 c -0.05502,-0.119235 -0.049,-0.18222 0.0181,-0.189652 z m -8.834086,0.582394 0.0093,0.08268 -0.08733,-0.03204 z m 1.56838,0.202571 0.179317,0.10542 -0.03256,0.08682 -0.155546,0.101286 -0.101286,-0.156062 z m 21.063315,0.379822 0.137459,0.11007 -0.238229,0.110071 -0.0553,-0.119373 z m -19.430339,0.02377 0.09198,0.07338 c 0.07336,0.159025 -0.0048,0.209554 -0.234094,0.151412 l -0.05943,-0.160714 z m 3.724836,0.04651 0.01344,0.124024 -0.21084,-0.0186 z m -1.036629,0.449585 0.224276,0.142111 -0.110071,0.137459 -0.293522,-0.0093 -0.06408,-0.201538 z m 16.200561,0.250631 -0.02273,0.169499 -0.119373,0.05529 -0.09612,-0.114722 z m -20.411673,0.968417 0.05478,0.119372 -0.02739,0.128674 -0.160713,0.05943 0.05994,-0.21549 z m 19.647895,0.996838 -0.376203,0.188102 0.07338,0.09612 0.256833,0.05529 0.172083,-0.144177 z m -1.427302,0.106453 c -0.15366,-0.0054 -0.202407,0.06606 -0.146244,0.214458 l 0.119372,0.132808 0.1695,0.02325 0.0987,-0.05271 0.05271,-0.0894 -0.105421,-0.197404 c -0.07453,-0.0189 -0.137398,-0.0292 -0.188618,-0.03101 z m 2.199867,1.020093 0.08682,0.03204 0.252698,0.389641 -0.522964,-0.192753 0.02739,-0.128158 z m -9.597864,2.144572 c -0.105193,0.0061 -0.216728,0.0205 -0.33538,0.04341 l -0.08268,0.0093 -0.438217,0.0067 -0.116789,0.264066 -0.364837,-0.08527 -0.07545,-0.116789 -0.08733,-0.03204 -0.417545,0.192236 -0.08733,0.344165 0.197403,0.08268 0.04806,-0.130742 0.0987,0.135393 0.144693,0.172082 0.903306,0.234094 0.07131,0.07545 0.36897,0.126607 0.272851,0.199471 0.424262,0.05736 0.108006,0.218075 -0.162783,0.03876 0.121442,0.153479 0.06408,0.01395 0.05064,-0.110071 0.151413,-0.14211 0.196887,0.08268 0.05994,0.160197 -0.03204,0.08733 0.102836,0.176733 0.07131,-0.112655 0.610298,-0.338997 0.38499,0.08268 0.135393,-0.0987 0.05271,-0.0894 0.33745,-0.162781 0.0894,-0.135392 0.233577,-0.151412 0.08268,-0.0093 0.05064,-0.11007 -0.05271,-0.0987 c -0.311007,0.08465 -0.48591,0.07621 -0.525034,-0.02532 l -0.07803,0.05064 -0.195337,-0.06201 c 0.06548,-0.238507 0.02077,-0.330987 -0.134876,-0.277502 l -0.243396,-0.119371 0.03462,-0.44235 c -0.01741,-0.08165 -0.151361,-0.09488 -0.401527,-0.03927 l -0.08216,0.0093 -0.591696,-0.05994 -0.197406,0.10542 c -0.194414,-0.13305 -0.449742,-0.190352 -0.765314,-0.172066 z m 5.168676,0.310575 -0.132808,0.119373 -0.01394,0.06408 -0.06408,-0.01344 0.05271,0.09819 c 0.215577,0.0095 0.320281,-0.0506 0.314193,-0.180868 z m 7.176307,0.08165 0.14211,0.151412 -0.02739,0.128674 -0.316775,0.160197 -0.09612,-0.114721 0.07338,-0.09147 z m -0.940512,0.188102 0.04599,0.03669 0.118856,0.32091 -0.196887,0.10542 -0.298174,-0.05064 -0.10077,-0.155546 0.06408,-0.174666 z m -1.669667,0.769979 0.38499,0.08268 0.160714,-0.05943 0.215492,0.05943 0.197403,0.270784 0.256831,0.05529 0.07803,-0.05064 0.210838,0.0186 0.24288,0.306958 -0.06408,0.174666 -0.724503,-0.128674 -0.596347,0.274918 -0.468188,-0.07338 -0.408244,0.08733 -0.132808,-0.06925 -0.444934,0.133326 -0.334862,-0.0047 -0.440285,0.17415 -0.170016,-0.02325 0.09198,-0.302824 0.07338,-0.09147 c 0.455713,-0.412736 1.079688,-0.690999 1.87172,-0.834575 z m -14.377932,0.550354 -0.13746,0.07803 -0.02739,0.128157 0.155546,0.08733 0.133325,-0.119372 z m 13.694254,0.821139 0.0093,0.08268 0.555003,0.10542 0.233577,0.224792 -0.08268,0.385508 -0.270266,0.196887 -0.334862,-0.0047 -0.238747,0.110069 c 0.0061,0.305795 0.09925,0.518396 0.27957,0.637689 l 0.403592,0.247531 c 0.33332,-0.0091 0.54432,-0.116047 0.633037,-0.320911 l 0.289388,-0.408244 -0.05064,-0.07751 0.06925,-0.509529 0.228928,-0.192237 0.256831,0.05478 0.238744,0.266134 0.04548,0.789099 -0.07803,0.05012 -0.02739,0.128675 c -0.244702,0.305753 -0.626835,0.501518 -1.146699,0.587044 l -0.03204,0.08682 -0.518313,0.224792 0.05943,0.160713 0.862478,0.238747 0.118856,-0.0553 0.431499,0.119375 0.09147,0.07338 0.481623,0.197403 0.08268,-0.0093 0.444934,-0.13281 0.09612,0.114723 0.307475,-0.243396 -0.05013,-0.07752 -0.0553,-0.119372 0.0186,-0.211357 0.266134,-0.238228 0.08682,0.03204 0.256832,0.0553 0.124023,0.362251 -0.08733,0.344165 0.05064,0.07803 0.08682,0.03204 0.243398,0.306959 -0.536919,0.43615 c -0.03366,0.198758 0.06734,0.229039 0.302824,0.09147 l 0.14211,0.151413 -0.0047,0.334862 -0.532268,0.100769 -0.160713,0.435631 0.110072,0.238747 -0.06873,0.132807 -0.03204,0.08733 -0.426847,0.298172 -0.07338,0.09147 -0.50901,0.307473 -0.02273,0.1695 0.220141,0.100769 0.08217,-0.0088 0.08733,0.03204 0.119374,-0.05529 0.05478,0.119373 -0.220141,0.275433 -0.07338,0.09147 -0.398942,0.169497 -0.248047,0.403592 -0.261482,-0.09612 0.02791,-0.128675 -0.266134,-0.137459 -0.46354,0.344164 -0.09612,-0.11472 0.124023,-0.01394 -0.119372,-0.32091 -0.403593,0.128159 -0.256831,-0.0553 -0.05995,-0.160198 -0.128156,-0.0279 -0.05064,0.298173 -0.03204,0.08733 -0.08733,-0.03204 -0.08682,-0.03204 -0.133326,-0.06873 -0.05013,-0.07803 0.0047,-0.334862 -0.165364,-0.358119 -0.187587,-0.188103 -0.151411,-0.233576 0.05064,-0.298173 -0.105937,-0.197403 -0.334346,-0.75706 0.114721,-0.09612 -0.128675,-0.02739 -0.196887,-0.270785 0.123507,-0.390158 -0.118856,-0.32091 -0.128675,-0.02739 0.137978,-0.64234 -0.151413,-0.234092 -0.09198,-0.07338 -0.476457,-0.907954 0.07803,-0.05064 0.196887,-0.10542 0.07338,-0.09198 0.293523,-0.366903 0.390157,-0.627867 c 0.269116,-0.08557 0.438703,-0.06279 0.509011,0.06873 l 0.119375,-0.05529 0.183451,-0.605131 z m -1.770951,0.990637 -0.14211,0.224793 -0.05064,-0.07803 z m -0.325562,0.829924 0.09147,0.07338 -0.08268,0.0093 -0.03669,0.04599 z m 5.384684,1.82676 -0.158647,0.0801 0.112657,0.259416 c 0.209761,0.05753 0.288425,0.01392 0.236159,-0.130741 l -0.119372,-0.133326 z m 1.486214,0.211357 0.302308,0.09147 -0.05478,0.256834 -0.215489,-0.05943 -0.146762,-0.192754 z m -22.512837,0.114724 -0.204122,0.04392 0.15813,0.29559 0.07131,-0.112138 0.03204,-0.08733 z m 0.66766,0.176731 -0.112655,0.305408 0.169499,0.02273 0.0987,-0.240813 z m -2.273247,0.419613 0.05064,0.07803 0.288871,0.343649 -0.11007,0.137977 -0.133326,-0.06925 -0.05013,-0.07803 -0.302824,-0.09147 -0.05943,-0.160714 z m 22.468914,0.433049 -0.336931,0.162782 c -0.09609,0.339408 -0.03277,0.47175 0.190169,0.396875 l 0.169498,-0.165367 z m -4.479314,0.49661 0.243396,0.68368 -0.119372,0.05478 -0.21549,-0.05943 -0.238747,-0.266134 0.03669,-0.04599 0.220144,-0.274918 z m -16.420703,0.02429 0.137459,0.110588 0.09147,0.07338 -0.256831,-0.05529 z m 2.398303,1.656747 0.0186,0.164849 -0.03256,0.08733 -0.100769,-0.156062 z m -2.696993,0.173633 -0.03204,0.08733 -0.08733,-0.03256 z m 16.939535,0.503327 0.0181,0.164849 -0.587044,0.3576 c -0.238541,0.110043 -0.339551,0.07976 -0.302824,-0.09147 l 0.105421,-0.179316 z m 1.28416,0.275437 0.128156,0.02739 -0.132807,0.307475 -0.08733,-0.03256 -0.110072,-0.238228 z m -0.07338,0.467672 0.05478,0.119372 0.302823,0.09147 0.09147,0.07338 0.564306,0.188618 -0.02739,0.128157 -0.06873,0.132807 -0.404108,0.128675 -0.08682,0.343649 -0.156062,0.101285 -0.03204,0.08682 -0.353465,0.206705 c -0.214074,0.07946 -0.313486,0.06248 -0.298175,-0.05064 l 0.07338,-0.09198 0.105418,-0.178803 0.197405,-0.105418 0.110069,-0.137459 0.110072,-0.137461 0.11007,-0.137975 -0.174149,-0.06408 -0.197403,0.105421 -0.302308,-0.09147 0.02273,-0.170016 0.160713,-0.05943 -0.0093,-0.08268 0.08733,-0.344164 z M 27.126511,34.58239 c -0.08405,5.29e-4 -0.107129,0.04652 -0.06976,0.138494 l -0.02739,0.128672 0.105421,0.0093 0.1695,-0.165364 -0.07338,-0.09612 c -0.04151,-0.01003 -0.07637,-0.01513 -0.104386,-0.01498 z m -5.062739,0.336931 0.01809,0.165365 -0.169498,-0.02326 z m -0.733806,0.541052 0.04547,0.03669 0.09199,0.0739 -0.234095,0.150894 0.02325,-0.1695 z m 17.622698,1.012857 0.21549,0.05943 c 0.171238,0.03672 0.232436,0.211058 0.183452,0.522964 l -0.156065,0.10077 c -0.311896,-0.04898 -0.431477,0.0063 -0.358116,0.165364 l -0.330213,0.03617 0.197405,-0.105418 0.07338,-0.09147 0.02273,-0.169497 -0.05013,-0.07803 0.09199,-0.302823 z m -11.903149,0.06614 0.1881,0.188103 -0.110069,0.137975 -0.170016,-0.02326 -0.05478,-0.119372 -0.0093,-0.08216 z m -3.550689,0.394293 0.09198,0.07338 0.06408,0.201538 -0.430981,-0.119372 z m 0.6196,0.683162 -0.02325,0.170016 0.08733,0.03204 -0.02326,0.169497 -0.07803,0.05064 c -0.08863,-0.29664 -0.07593,-0.437507 0.03721,-0.422196 z m 2.526978,0.555522 0.128674,0.02791 0.123508,0.362251 c -0.0092,0.168185 0.104029,0.183547 0.339513,0.04599 l 0.124024,0.362251 -0.326078,0.07803 -0.220141,-0.477491 -0.118856,0.05529 -0.08733,-0.03204 -0.09612,-0.114721 0.05943,-0.215493 z m -5.283915,0.210323 -0.0186,0.210838 -0.09612,-0.114721 z m 4.669482,0.275952 0.09612,0.114721 0.08268,-0.0093 -0.03669,0.42168 -0.302823,-0.09147 -0.197404,-0.270782 0.07338,-0.09147 0.08268,-0.0093 z m 1.288295,1.069184 0.09198,0.07338 -0.03204,0.08682 -0.188103,0.188103 -0.06408,-0.202054 z m 3.522781,0.486794 0.261483,0.09612 0.09198,0.07338 0.738454,0.252698 0.302308,0.09147 0.105421,0.197405 0.133323,0.06873 0.371555,0.334865 -0.404109,0.128675 c -0.226282,-0.03063 -0.319302,0.0072 -0.279569,0.114205 l -0.192755,0.146759 -0.09612,-0.114721 0.151414,-0.14211 -0.142111,-0.151411 0.01344,0.124024 -0.174151,-0.06408 -0.28887,-0.344164 -0.426847,-0.07803 -0.100769,0.220144 -0.06408,-0.202057 -0.174149,-0.06408 -0.151413,-0.234095 0.0181,-0.210839 z m 0.541052,1.862418 0.0181,0.164848 -0.160197,0.05943 z m 3.059245,0.07855 0.133326,0.06873 0.07803,-0.05064 c 0.66358,-0.04575 1.215406,0.03219 1.655712,0.234096 l 0.09147,0.0739 0.133326,0.06873 0.192235,0.229444 -0.06873,0.132808 0.05994,0.160716 -0.284736,0.07338 -0.1695,-0.02326 -0.600996,0.234093 -0.21549,-0.05994 -0.09199,-0.07338 -0.284221,0.07338 -0.426847,-0.07803 -0.362251,0.123508 -0.724504,-0.128159 -0.316777,0.160197 -1.105358,0.20619 -0.380857,-0.04134 -0.156062,0.100769 0.128675,0.0279 -0.24288,0.06873 -0.174667,-0.0646 -0.05943,-0.160197 -0.1695,-0.02326 -0.07803,0.05064 c -0.385308,0.04274 -0.685147,-0.02146 -0.899171,-0.192754 l 0.03669,-0.04599 -0.132808,-0.06873 -0.08268,0.0093 0.01394,-0.252179 0.297657,0.05013 0.39946,-0.169497 0.14211,-0.224793 0.156062,-0.100769 0.201538,0.312126 0.358119,0.210839 0.196887,-0.105421 0.101285,-0.220141 0.151413,-0.142111 0.169498,0.02273 0.481623,-0.1788 0.252183,0.01394 0.09198,0.07338 0.220144,0.100769 0.752409,-0.37569 0.08682,0.03204 z m -6.477125,1.512054 0.09199,0.07338 c 0.04278,0.134559 0.0061,0.180811 -0.110071,0.137978 l -0.09612,-0.114724 z m -5.944339,0.283703 0.08682,0.03204 -0.03204,0.08682 -0.174149,-0.06408 z m 6.975286,0.317812 c 0.03306,-1.85e-4 0.0746,0.0074 0.125055,0.02273 l 0.183452,0.146761 -0.07338,0.09199 -0.298172,-0.05064 c -0.05731,-0.139911 -0.03615,-0.210285 0.06304,-0.210838 z m -5.09478,0.05839 0.0047,0.04134 -0.124023,0.01394 z m -0.995289,0.444934 -0.02997,0.107487 0.270268,0.366903 0.149345,0.02532 0.07545,0.117306 0.179318,-0.08268 -0.0093,-0.08268 -0.07338,-0.09612 -0.06925,-0.05529 -0.222209,-0.121442 -0.07131,-0.07545 z m 10.283611,0.02946 0.05064,0.07803 -0.08733,-0.03256 z m -8.28425,0.668176 0.0093,0.08217 -0.164848,0.0186 z m 0.532268,0.274918 0.09147,0.07338 c 0.266061,-0.113094 0.373465,-0.02703 0.321427,0.257347 l -0.160713,0.05943 -0.192753,-0.229444 -0.09147,-0.07338 z m -7.62124,0.427882 c -0.414404,0.282781 -0.951236,0.467458 -1.610238,0.554487 l -0.422197,0.339514 -3.12384,1.224216 c -0.185288,-0.113178 -0.451095,-0.125825 -0.797884,-0.03721 l -0.280086,0.302823 -0.17415,0.500229 -0.435632,0.21549 -0.08268,0.0093 -0.264067,0.0708 c 0.18219,0.336407 0.150879,0.493236 -0.09405,0.470254 -0.157505,0.112197 -0.204744,0.312624 -0.14211,0.600996 l -0.268201,-0.346747 -0.10542,-0.196887 0.396875,-0.190688 -0.08268,-0.1788 -0.08268,0.0093 -0.2475304,0.21549 -0.050643,0.110072 -0.4909262,0.09612 -0.2108398,-0.0181 -0.2273763,0.401007 c -0.3109801,-0.0659 -0.3949293,0.05491 -0.252181,0.362255 l -0.3095419,0.03462 C 8.1082996,50.579183 7.6601563,50.559184 7.1142947,50.661516 l -0.5276165,0.330214 -0.1741496,0.49971 -0.2568318,0.132808 0.027389,0.05995 -0.3002401,0.116787 -0.048576,0.130741 -0.6831623,0.430982 -0.055294,0.06873 c -0.3043156,0.270568 -0.7460115,0.431274 -1.3255006,0.481624 l -1.1653034,0.04547 -0.2547648,0.153479 -0.057361,0.236162 0.1059367,0.0093 c 0.5767513,-0.125267 0.9956732,-0.05314 1.2567707,0.216006 l -0.013952,0.06408 0.7524088,5.29e-4 1.9699055,0.993222 0.070797,0.07596 0.2475301,0.160198 0.1607138,0.128674 0.1421103,0.151411 0.2020546,0.124023 0.06873,0.05478 0.2382284,0.266134 0.068729,0.05478 0.1767335,0.08527 0.1627809,0.148828 0.2475299,0.160713 0.06873,0.05529 0.075964,0.116789 0.2222087,0.121441 c 0.491354,0.310468 0.8508844,0.786107 1.0779705,1.426785 l -0.2201416,0.08733 -0.2526979,-0.01394 -0.041341,0.192751 0.8738486,0.341583 0.1250569,0.375171 h 1.359607 l -0.02377,-0.01447 -0.199471,-0.291454 -0.0894,-0.05271 -0.497128,-0.717786 -0.0894,-0.05323 -0.165364,-0.357603 0.0093,-0.105418 c 0.425672,-0.03049 0.737752,0.08102 0.93586,0.334862 l 0.164847,0.170016 0.06873,0.05478 1.302763,0.817004 0.164848,0.1695 0.119372,0.04651 h 4.093291 l 0.0186,-0.139528 0.197404,-0.105936 0.124023,-0.389639 0.183451,0.146759 -0.137976,0.266134 c -0.143717,-0.03978 -0.178778,0.01976 -0.10542,0.1788 l -0.06718,0.04341 H 20.3569 l -0.12299,-0.01085 -0.05064,-0.07803 0.156063,-0.10077 0.101285,0.189654 h 0.50798 l -0.205672,-0.317813 0.02274,-0.170013 0.197404,-0.10542 0.10542,0.197403 0.312126,0.174151 -0.124024,0.221692 h 4.352706 l 0.01395,-0.02379 0.56689,-0.543119 0.05478,-0.06873 0.520899,-0.392224 0.04806,-0.130741 0.332795,-0.204121 0.05271,-0.0894 0.135392,-0.0987 0.05271,-0.0894 1.057298,-0.827857 0.09405,-0.09405 0.823722,-0.676444 0.05271,-0.0894 0.20619,-0.210839 0.01394,-0.252182 -1.41025,-0.658357 -0.07131,-0.07597 -2.066023,-1.107943 -0.07131,-0.07596 -1.850533,-1.048515 -0.0708,-0.07545 -0.963243,-0.582941 -0.07338,-0.09612 -0.639754,-0.305408 -0.07131,-0.07545 -0.467672,-0.449586 -0.492993,-0.112654 -0.364835,-0.460954 -0.56379,-0.376206 -0.83044,-0.889868 -0.06873,-0.05529 -0.387573,-0.479041 -0.0894,-0.05323 -1.02681,-1.348756 -0.08527,-0.387572 z m -5.699911,2.679938 0.256832,0.05478 0.234094,0.224793 0.178801,0.105937 0.05943,0.160194 0.0052,0.417547 0.220142,0.100769 0.100769,0.156062 0.118855,0.697116 -0.252181,-0.01344 -0.210839,-0.394809 -0.119373,0.05529 -0.08733,-0.03204 0.0052,-0.334862 -0.206706,-0.353467 -0.08682,-0.03204 -0.803052,-0.454234 0.0646,-0.174152 0.07803,-0.05064 0.08682,0.03204 z m 25.111127,0.892453 -0.135389,0.09819 0.02479,2.484085 c -0.06894,0.734809 -0.316963,1.326563 -0.743625,1.775085 l -0.05478,0.06873 -0.481624,0.555004 -0.01394,0.252182 0.210842,0.20619 0.242879,0.119372 0.06924,0.05529 0.121441,0.15348 0.268201,0.158131 0.160713,0.128672 0.199472,0.103354 0.0708,0.07545 0.649055,0.387572 0.07131,0.07597 0.559138,0.334862 0.06925,0.0553 1.389581,1.036629 0.06873,0.05529 0.589111,0.603065 0.0894,0.05271 0.224793,0.14211 c 0.0096,0.0074 0.01839,0.01577 0.0279,0.02326 h 4.597654 c -0.142716,-0.294629 -0.317484,-0.545581 -0.5271,-0.749308 l -0.22221,-0.121441 -0.06873,-0.05529 -0.09664,-0.302308 0.01394,-0.252698 c -0.336643,-0.221761 -0.546227,-0.602308 -0.628386,-1.14205 0.403718,-0.379109 0.456081,-1.039374 0.156581,-1.981274 l -0.164849,-0.734322 0.01394,-1.380276 -0.07803,-0.326081 0.02997,-0.107487 0.470257,-0.09405 c 0.163266,0.140698 0.416854,0.168241 0.761193,0.08268 l 0.293521,0.197406 0.114723,0.09147 1.527038,0.582912 1.082622,0.15141 0.110069,0.05064 0.398944,0.206706 0.07803,-0.05064 1.502233,0.543637 0.162782,0.149344 0.220141,0.100769 0.08268,-0.196887 -0.174148,-0.252698 -0.07338,-0.09612 -0.738455,-0.440283 -0.711068,-0.0052 -1.192694,-0.390157 -0.110069,-0.05013 -0.325562,-0.298174 c -0.954815,-0.546024 -2.053844,-0.911852 -3.297473,-1.09709 l -1.064019,-0.550354 c -0.82413,0.105344 -1.550297,0.08809 -2.178677,-0.05116 l -1.183908,0.256831 c -0.667834,-0.419039 -1.487053,-0.648396 -2.458249,-0.68833 z m -27.6706603,0.519866 0.013435,0.123505 -0.2935221,-0.0093 z m 2.2613603,0.417545 0.05478,0.119372 -0.188102,0.188103 -0.10542,-0.197403 z m 1.853117,0.128674 -0.05529,0.257347 -0.21549,-0.05994 -0.05064,-0.07803 z m -6.4037434,0.292489 0.3121258,0.174665 0.1281573,0.02739 0.1426271,0.151413 -0.8578287,0.1788 -0.3715535,0.04134 c 0.076417,0.186545 0.057848,0.27214 -0.055294,0.256831 l 0.0093,-0.293523 -0.064079,-0.202055 z m 5.4906204,0.143143 0.132809,0.444934 -0.118856,0.0553 -0.08268,0.0093 -0.05943,-0.160713 -0.08268,0.0093 0.09612,-0.261483 z m 1.201994,0.284736 0.09147,0.07338 -0.0186,0.211358 -0.118856,0.05478 -0.0047,-0.04134 -0.0093,-0.08268 z m -0.321427,0.495578 0.21549,0.435634 0.128675,0.02739 0.150895,0.234095 -0.155546,0.10077 -0.170016,-0.02273 -0.192752,-0.229444 -0.0093,-0.08268 -0.164848,-0.357601 0.07803,-0.05064 z m 1.550293,0.412896 0.09198,0.07338 -0.07338,0.09199 -0.08733,-0.03204 z m -6.2978068,0.113688 0.1834512,0.14676 -0.073381,0.09147 -0.1694987,-0.02273 c -0.073354,-0.159036 -0.053711,-0.230801 0.059428,-0.21549 z m 1.8391638,0.0047 0.110071,0.238747 0.0047,0.04134 -0.169498,-0.02326 -0.05478,-0.118856 z m 4.440556,0.09302 -0.05529,0.256831 0.14211,0.5271 -0.275435,0.156062 -0.17415,-0.06408 -0.10542,-0.197403 0.02739,-0.128158 0.0646,-0.174665 0.151411,-0.142111 0.07752,-0.05013 z m 0.591695,0.05943 0.04547,0.03669 0.133326,0.06873 0.05478,0.119374 0.05529,0.119372 -0.114721,0.09612 0.07751,0.326078 v 0.375687 c -0.03673,0.171236 0.01061,0.221718 0.142111,0.151413 l 0.0093,0.08268 0.160714,-0.05943 0.188102,0.188102 -0.06408,0.174149 0.66921,0.0093 -0.362251,0.500226 -0.17415,-0.06459 -0.160714,-0.316259 -0.430981,-0.119372 -0.156063,-0.275437 -0.169499,-0.02273 -0.238745,-0.642337 0.06925,-0.132807 0.270268,-0.197406 0.05995,-0.21549 -0.133325,-0.06873 z m -1.284676,0.100769 -0.05478,0.256831 0.06408,0.202054 -0.188102,-0.188103 0.08268,-0.0093 -0.128674,-0.02791 -0.05478,-0.119372 z m -0.926558,0.311608 0.04599,0.03669 c 0.16208,-0.04583 0.21369,0.04611 0.155546,0.275437 l -0.192237,0.146759 -0.252697,-0.01394 0.09663,-0.261483 z m 4.462776,0.299206 0.09198,0.07338 -0.05943,0.215492 -0.114721,0.09612 0.0093,-0.293523 z m 2.857707,0.142627 0.137976,0.110072 -0.0646,0.174148 c -0.131504,0.07031 -0.180434,0.006 -0.146761,-0.192751 z m -5.674072,0.0863 -0.04599,0.338997 -0.118856,0.0553 -0.170016,-0.02326 -0.06408,-0.201539 0.151412,-0.14211 0.08733,0.03204 z M 1.2655562,53.692337 1.0588504,53.715065 3.6770833e-7,54.582716 v 1.628322 L 0.21032345,56.045158 l 0.0961182,-0.07338 0.20618897,-0.211357 0.0552938,-0.06873 0.3648356,-0.290938 0.0940511,-0.282152 -0.32142737,-0.06873 -0.25218099,0.362252 -0.19016927,-0.02066 -0.0666626,-0.222726 0.12609049,-0.36897 0.0759644,-0.07131 0.0299723,-0.107487 0.68781334,-0.57826 z m 22.2580728,0.03824 0.09147,0.07338 -0.08733,0.344165 -0.298173,-0.05064 0.09663,-0.260966 z m 27.972453,0.02429 c -0.05348,0.0013 -0.112091,0.01005 -0.1757,0.02687 l -0.02066,0.190169 c 0.354033,0.403715 0.582848,0.963391 0.687297,1.678967 l -0.0093,0.293523 0.242879,1.436087 -0.1788,0.646473 0.309542,0.153995 0.187068,0.564309 h 3.39721 v -2.815334 l -0.650608,-0.122473 -0.7152,-0.422195 -0.268719,0.02997 0.323496,1.029911 -0.06408,0.174149 0.05013,0.07803 c 0.09014,0.4107 0.05516,0.721162 -0.105417,0.931209 l 0.0093,0.08268 -0.05271,0.277503 -0.06666,0.15348 -0.339514,0.518313 -0.160713,0.05943 -0.108005,-0.02945 -0.350367,-0.901756 0.03204,-0.08682 -0.151413,-0.610298 0.0067,-0.314193 -0.0894,-0.05271 -0.39429,-0.917774 0.08733,-0.343648 c -0.211286,-0.09636 -0.332041,-0.305766 -0.362252,-0.628386 l 0.105418,-0.179316 -0.169497,-0.210841 -0.194821,-0.06201 -0.190685,-0.208775 -0.176218,-0.08475 -0.0987,-0.135393 c -0.06946,-0.136472 -0.184254,-0.202657 -0.344681,-0.198953 z m -29.848825,0.01704 0.146762,0.192754 -0.110071,0.137459 -0.252181,-0.01394 0.0186,-0.210839 z m -3.004467,0.04031 0.170015,0.02326 -0.05064,0.298173 -0.119372,0.05478 -0.256832,-0.05478 0.09664,-0.261483 z m -6.141744,0.01291 0.09198,0.07338 -0.110071,0.137459 -0.05529,-0.119372 z m 10.467578,0.176218 0.09612,0.114721 -0.252181,-0.01394 z m -0.05064,0.298172 0.137459,0.110072 0.08733,0.03204 0.08217,-0.0093 0.174666,0.06408 0.07338,0.28474 0.298173,0.05013 0.06873,-0.132808 0.08682,0.03204 0.119372,-0.05478 0.114722,0.279569 -0.160714,0.05994 -0.08216,0.0093 -0.03256,0.08682 -0.27957,0.114723 -0.1788,-0.10542 -0.14211,-0.151414 -0.09664,-0.11472 -0.192237,-0.229444 -0.101285,-0.156062 z m 4.536157,0.207224 -0.06408,0.174149 -0.05064,-0.07803 z m -5.618778,0.205156 0.08733,0.03204 0.297656,0.426847 -0.28422,0.07338 -0.256832,-0.430982 z m -6.210991,0.145727 0.05529,0.119372 -0.05529,0.256831 -0.160197,0.05943 -0.07338,-0.284221 z m -1.871203,0.08216 0.08733,0.03204 0.297656,0.426847 -0.123507,0.01394 -0.07803,0.05013 -0.339514,-0.422198 z m 0.889868,0.486277 0.132808,0.06924 0.10542,0.196887 -0.128157,-0.02739 0.0093,0.08268 -0.128675,-0.02739 -0.279569,0.114205 -0.05064,-0.07803 0.01395,-0.25218 z m 1.389579,0.09663 0.0047,0.04134 -0.08216,0.0093 z m 0.09198,0.07338 0.01344,0.124023 -0.132809,-0.06873 z m 6.315894,0.05168 0.174149,0.06459 0.197404,0.270267 -0.02274,0.170016 -0.174666,-0.06459 -0.155546,0.101285 -0.05064,-0.07803 -0.261483,-0.09664 0.01395,-0.252179 z m -7.751982,0.191201 0.05995,0.160713 -0.03204,0.08733 0.03669,-0.04599 0.614432,0.266133 0.08268,-0.0093 c 0.244646,-0.05499 0.389793,-0.0013 0.435632,0.160714 l -0.06873,0.132807 -0.03256,0.08733 -0.256832,-0.05529 -0.09147,-0.07338 -0.170015,-0.02273 -0.398942,0.1695 -0.306958,-0.509013 z m 12.086602,0.08062 0.220141,0.100769 -0.09147,0.302824 -0.252695,-0.01394 -0.10077,-0.156064 0.11007,-0.137459 z m -3.830258,0.132292 0.01395,0.123507 -0.08733,-0.03204 z m -3.981153,0.08888 c 0.02733,-0.0048 0.06261,-0.0024 0.10542,0.0067 l 0.01395,0.123505 -0.156063,0.100769 c -0.05731,-0.139927 -0.0453,-0.21667 0.03669,-0.230991 z m 2.462899,0.162779 0.275436,0.220142 -0.05529,0.256833 -0.169499,-0.02273 -0.14211,-0.151413 0.01809,-0.210839 z m -3.031856,0.1695 0.256832,0.05478 0.05529,0.119372 -0.03256,0.08733 0.133325,0.06873 0.05943,-0.21549 0.440284,0.201539 0.47749,-0.220142 0.08682,0.03255 0.17415,0.440285 0.133325,0.06873 -0.05994,0.215493 -0.174149,0.68781 -0.339514,-0.04547 0.0047,-0.711067 -0.403593,0.128156 -0.0047,-0.04134 -0.476974,-0.156064 -0.05943,-0.160197 -0.0093,-0.08268 -0.275435,-0.220141 -0.06408,-0.202054 z m 4.774902,0.09715 0.13746,0.110072 -0.02739,0.128156 -0.325562,0.07803 -0.06408,-0.202057 z m -7.371126,0.232545 0.114721,0.279569 -0.124023,0.01394 0.03204,-0.08733 -0.05013,-0.07803 z m 18.331696,0.432014 -0.284736,0.261483 -0.05064,0.110072 -0.155549,0.100769 -0.208772,0.190169 -0.05271,0.08992 -0.353465,0.394293 -0.05478,0.06873 -0.326596,0.295074 h 1.251087 l 0.210323,-0.04496 0.05633,0.04496 h 1.889808 l -0.549323,-0.45062 -0.24081,-0.0987 -0.460955,-0.575675 z m -17.960143,0.279054 0.04599,0.03669 c 0.189603,-0.04888 0.242813,0.05636 0.160197,0.316259 l 0.215491,0.05995 -0.0093,-0.08268 0.07803,0.325562 -0.408244,0.08733 -0.07338,-0.284737 -0.21549,-0.05943 -0.100769,-0.156062 0.02274,-0.1695 z m 9.375655,0.130225 0.306959,0.132808 -0.07338,0.09198 -0.08682,-0.03256 -0.04599,-0.03669 -0.132809,-0.06873 z"
       id="path5267" />
  </g>
</svg>
