<?xml version="1.0" encoding="UTF-8" standalone="no"?>
<!-- Created with Inkscape (http://www.inkscape.org/) -->

<svg
   xmlns:dc="http://purl.org/dc/elements/1.1/"
   xmlns:cc="http://creativecommons.org/ns#"
   xmlns:rdf="http://www.w3.org/1999/02/22-rdf-syntax-ns#"
   xmlns:svg="http://www.w3.org/2000/svg"
   xmlns="http://www.w3.org/2000/svg"
   xmlns:sodipodi="http://sodipodi.sourceforge.net/DTD/sodipodi-0.dtd"
   xmlns:inkscape="http://www.inkscape.org/namespaces/inkscape"
   width="11.480188mm"
   height="1.4816666mm"
   viewBox="0 0 11.480188 1.4816666"
   version="1.1"
   id="svg8"
   inkscape:version="0.92.1 r15371"
   sodipodi:docname="tubman-copperplate.svg">
  <defs
     id="defs2" />
  <sodipodi:namedview
     id="base"
     pagecolor="#ffffff"
     bordercolor="#666666"
     borderopacity="1.0"
     inkscape:pageopacity="0.0"
     inkscape:pageshadow="2"
     inkscape:zoom="11.2"
     inkscape:cx="32.158807"
     inkscape:cy="-5.9357888"
     inkscape:document-units="mm"
     inkscape:current-layer="layer1"
     showgrid="false"
     fit-margin-top="0"
     fit-margin-left="0"
     fit-margin-right="0"
     fit-margin-bottom="0"
     inkscape:window-width="1680"
     inkscape:window-height="987"
     inkscape:window-x="-8"
     inkscape:window-y="-8"
     inkscape:window-maximized="1" />
  <metadata
     id="metadata5">
    <rdf:RDF>
      <cc:Work
         rdf:about="">
        <dc:format>image/svg+xml</dc:format>
        <dc:type
           rdf:resource="http://purl.org/dc/dcmitype/StillImage" />
        <dc:title></dc:title>
      </cc:Work>
    </rdf:RDF>
  </metadata>
  <g
     inkscape:label="Layer 1"
     inkscape:groupmode="layer"
     id="layer1"
     transform="translate(-29.723064,-83.111586)">
    <g
       aria-label="TUBMAN"
       style="font-style:normal;font-variant:normal;font-weight:800;font-stretch:normal;font-size:2.64583325px;line-height:2;font-family:'Copperplate Gothic Std';-inkscape-font-specification:'Copperplate Gothic Std Ultra-Bold';font-variant-ligatures:normal;font-variant-caps:normal;font-variant-numeric:normal;font-feature-settings:normal;text-align:center;letter-spacing:0px;word-spacing:0px;writing-mode:lr-tb;text-anchor:middle;fill:#000000;fill-opacity:1;stroke:none;stroke-width:0.26458332px;stroke-linecap:butt;stroke-linejoin:miter;stroke-opacity:1"
       id="text4487">
      <path
         d="m 30.728481,84.577377 v -0.03175 c -0.06615,-0.0053 -0.07408,-0.02381 -0.07408,-0.04762 v -0.989541 h 0.455084 c 0.0291,0 0.03969,0.01323 0.04763,0.07408 h 0.03175 v -0.470958 h -0.03175 c -0.0079,0.06085 -0.01852,0.07408 -0.04763,0.07408 h -1.307042 c -0.0291,0 -0.03969,-0.01323 -0.04763,-0.07408 h -0.03175 v 0.470958 h 0.03175 c 0.0079,-0.06085 0.01852,-0.07408 0.04763,-0.07408 h 0.455083 v 0.989541 c 0,0.02381 -0.0079,0.04233 -0.07408,0.04762 v 0.03175 z"
         style="font-style:normal;font-variant:normal;font-weight:800;font-stretch:normal;font-family:'Copperplate Gothic Std';-inkscape-font-specification:'Copperplate Gothic Std Ultra-Bold';stroke-width:0.26458332px"
         id="path4489" />
      <path
         d="m 32.629057,83.974127 c 0,0.203729 -0.121708,0.28575 -0.333375,0.28575 -0.211667,0 -0.333375,-0.08202 -0.333375,-0.28575 v -0.709083 c 0,-0.02381 0.0079,-0.04233 0.07408,-0.04762 v -0.03175 h -0.545041 v 0.03175 c 0.06615,0.0053 0.07408,0.02381 0.07408,0.04762 v 0.709083 c 0,0.465667 0.325438,0.619125 0.73025,0.619125 0.404813,0 0.73025,-0.153458 0.73025,-0.619125 v -0.709083 c 0,-0.02381 0.0079,-0.04233 0.07408,-0.04762 v -0.03175 h -0.545041 v 0.03175 c 0.06615,0.0053 0.07408,0.02381 0.07408,0.04762 z"
         style="font-style:normal;font-variant:normal;font-weight:800;font-stretch:normal;font-family:'Copperplate Gothic Std';-inkscape-font-specification:'Copperplate Gothic Std Ultra-Bold';stroke-width:0.26458332px"
         id="path4491" />
      <path
         d="m 33.600987,84.498002 c 0,0.02381 -0.0079,0.04233 -0.07408,0.04762 v 0.03175 h 1.021292 c 0.375708,0 0.534458,-0.179916 0.534458,-0.391583 0,-0.195792 -0.129646,-0.291042 -0.306917,-0.338667 v -0.0053 c 0.148167,-0.03175 0.254,-0.129646 0.254,-0.288396 0,-0.261938 -0.20902,-0.367771 -0.49477,-0.367771 h -1.008063 v 0.03175 c 0.06615,0.0053 0.07408,0.02381 0.07408,0.04762 z m 0.396875,-1.031875 h 0.359834 c 0.227541,0 0.28575,0.01587 0.28575,0.121709 0,0.105833 -0.05821,0.121708 -0.28575,0.121708 h -0.359834 z m 0,0.513292 h 0.449792 c 0.185208,0 0.259292,0.04233 0.259292,0.15875 0,0.116417 -0.07408,0.15875 -0.259292,0.15875 h -0.449792 z"
         style="font-style:normal;font-variant:normal;font-weight:800;font-stretch:normal;font-family:'Copperplate Gothic Std';-inkscape-font-specification:'Copperplate Gothic Std Ultra-Bold';stroke-width:0.26458332px"
         id="path4493" />
      <path
         d="m 37.232807,84.577377 v -0.03175 c -0.06615,-0.0053 -0.07408,-0.02381 -0.07408,-0.04762 v -1.232958 c 0,-0.02381 0.0079,-0.04233 0.07408,-0.04762 v -0.03175 h -0.717021 v 0.03175 c 0.04233,0.0026 0.0635,0.01587 0.0635,0.04762 0,0.0344 -0.142875,0.306917 -0.264583,0.568854 -0.02646,-0.07144 -0.248709,-0.550333 -0.248709,-0.568854 0,-0.03175 0.02117,-0.04498 0.0635,-0.04762 v -0.03175 h -0.690562 v 0.03175 c 0.06615,0.0053 0.07408,0.02381 0.07408,0.04762 v 1.232958 c 0,0.02381 -0.0079,0.04233 -0.07408,0.04762 v 0.03175 h 0.465667 v -0.03175 c -0.06615,-0.0053 -0.07408,-0.02381 -0.07408,-0.04762 v -0.989541 h 0.0053 l 0.465667,1.037166 0.470958,-1.026583 0.0053,0.0053 v 0.973666 c 0,0.02381 -0.0079,0.04233 -0.07408,0.04762 v 0.03175 z"
         style="font-style:normal;font-variant:normal;font-weight:800;font-stretch:normal;font-family:'Copperplate Gothic Std';-inkscape-font-specification:'Copperplate Gothic Std Ultra-Bold';stroke-width:0.26458332px"
         id="path4495" />
      <path
         d="m 38.357245,83.434377 0.256645,0.629709 h -0.492125 z m 0.325437,0.841375 c 0.01058,0.0344 0.08996,0.227542 0.08996,0.238125 0,0.01588 -0.01323,0.0291 -0.05027,0.03175 v 0.03175 h 0.521229 v -0.03175 c -0.03175,0 -0.04763,-0.01587 -0.07408,-0.07937 -0.164041,-0.402166 -0.489479,-1.19327 -0.489479,-1.214437 0,-0.02646 0.01852,-0.03175 0.04762,-0.0344 v -0.03175 h -0.690562 v 0.03175 c 0.02381,0.0026 0.05292,0.0079 0.05292,0.02646 0,0.01588 -0.447145,1.180042 -0.470958,1.240896 -0.01588,0.04233 -0.03175,0.05292 -0.06879,0.06085 v 0.03175 h 0.468313 v -0.03175 c -0.03704,0 -0.04762,-0.01058 -0.04762,-0.02646 0,-0.01588 0.01588,-0.05027 0.08467,-0.243417 z"
         style="font-style:normal;font-variant:normal;font-weight:800;font-stretch:normal;font-family:'Copperplate Gothic Std';-inkscape-font-specification:'Copperplate Gothic Std Ultra-Bold';stroke-width:0.26458332px"
         id="path4497" />
      <path
         d="m 39.64221,84.498002 c 0,0.02381 -0.0079,0.04233 -0.07408,0.04762 v 0.03175 h 0.502708 v -0.03175 c -0.06615,-0.0053 -0.07408,-0.02381 -0.07408,-0.04762 v -0.830791 c 0.6985,0.78052 0.764646,0.814916 0.764646,0.849312 0,0.01852 -0.01323,0.0291 -0.06085,0.0291 v 0.03175 h 0.502708 v -0.03175 c -0.06615,-0.0053 -0.07408,-0.02381 -0.07408,-0.04762 v -1.232958 c 0,-0.02381 0.0079,-0.04233 0.07408,-0.04762 v -0.03175 h -0.484187 v 0.03175 c 0.03439,0.0026 0.05556,0.01587 0.05556,0.04762 v 0.706438 c -0.185208,-0.20373 -0.642937,-0.690563 -0.642937,-0.719667 0,-0.01587 0.01323,-0.03175 0.07408,-0.0344 v -0.03175 h -0.637646 v 0.03175 c 0.06615,0.0053 0.07408,0.02381 0.07408,0.04762 z"
         style="font-style:normal;font-variant:normal;font-weight:800;font-stretch:normal;font-family:'Copperplate Gothic Std';-inkscape-font-specification:'Copperplate Gothic Std Ultra-Bold';stroke-width:0.26458332px"
         id="path4499" />
    </g>
  </g>
</svg>
