<?xml version="1.0" encoding="UTF-8" standalone="no"?>
<!-- Created with Inkscape (http://www.inkscape.org/) -->

<svg
   xmlns:dc="http://purl.org/dc/elements/1.1/"
   xmlns:cc="http://creativecommons.org/ns#"
   xmlns:rdf="http://www.w3.org/1999/02/22-rdf-syntax-ns#"
   xmlns:svg="http://www.w3.org/2000/svg"
   xmlns="http://www.w3.org/2000/svg"
   xmlns:sodipodi="http://sodipodi.sourceforge.net/DTD/sodipodi-0.dtd"
   xmlns:inkscape="http://www.inkscape.org/namespaces/inkscape"
   width="55.935497mm"
   height="58.745392mm"
   viewBox="0 0 55.935497 58.745392"
   version="1.1"
   id="svg8"
   inkscape:version="0.92.1 r15371"
   sodipodi:docname="tubman-portrait.svg">
  <defs
     id="defs2" />
  <sodipodi:namedview
     id="base"
     pagecolor="#ffffff"
     bordercolor="#666666"
     borderopacity="1.0"
     inkscape:pageopacity="0.0"
     inkscape:pageshadow="2"
     inkscape:zoom="1.979899"
     inkscape:cx="82.669939"
     inkscape:cy="157.79307"
     inkscape:document-units="mm"
     inkscape:current-layer="layer1"
     showgrid="false"
     fit-margin-top="0"
     fit-margin-left="0"
     fit-margin-right="0"
     fit-margin-bottom="0"
     inkscape:window-width="1680"
     inkscape:window-height="987"
     inkscape:window-x="-8"
     inkscape:window-y="-8"
     inkscape:window-maximized="1" />
  <metadata
     id="metadata5">
    <rdf:RDF>
      <cc:Work
         rdf:about="">
        <dc:format>image/svg+xml</dc:format>
        <dc:type
           rdf:resource="http://purl.org/dc/dcmitype/StillImage" />
        <dc:title />
      </cc:Work>
    </rdf:RDF>
  </metadata>
  <g
     inkscape:label="Layer 1"
     inkscape:groupmode="layer"
     id="layer1">
    <path
       style="display:inline;opacity:1;fill:#000000;stroke:#000000;stroke-width:0"
       d="m 30.150615,7.0771773 c -0.189388,-0.0062 -0.383336,-0.007 -0.569991,0.0016 -0.473924,0.0215 -0.835989,0.200719 -1.170472,0.186552 -0.776254,-0.03288 -0.614479,-0.266179 -1.498101,-0.152963 -0.582253,0.0746 -0.672266,0.416178 -1.207677,0.578776 -0.4913,0.149203 -1.414326,0.228897 -1.845882,0.321945 -0.911479,0.196523 -1.275193,0.751992 -2.610177,1.480529 -1.013486,0.5530887 -2.208638,1.6807997 -3.102135,2.6639207 -0.738134,0.812175 -1.159957,1.918117 -1.623157,2.625162 -0.699854,1.068285 -1.643686,2.525542 -2.176095,4.355807 -0.743352,3.205286 -0.73892,7.413473 -0.0041,8.718331 l 0.444934,0.619083 c 0.04124,0.376036 0.108927,0.645652 0.385506,0.835091 0,0 0.171899,0.268875 0.229443,0.416513 0.063,0.161639 0.129134,0.332025 0.123507,0.505393 -0.007,0.214572 -0.167731,0.392703 -0.19327,0.614434 -0.03188,0.276807 0.09999,0.545045 0.07648,0.822691 -0.01685,0.198926 -0.247609,0.367794 -0.204639,0.562755 0.07422,0.336743 0.729155,0.733806 0.729155,0.733806 0.232883,-0.0065 0.41995,0.03419 0.598413,0.101285 0.185681,0.06981 0.362049,0.168183 0.571025,0.270785 l 0.403558,-0.128674 c 0.557452,0.0524 1.028503,0.216471 1.412834,0.491442 0.760333,1.984753 2.267468,6.110115 1.558044,7.830013 -0.364115,0.170119 -0.386055,0.295431 -0.490926,0.660423 0,0 1.050284,1.670818 3.01687,2.981214 1.600471,1.066443 4.445071,2.857442 6.728274,4.32842 1.893692,1.220036 3.322278,2.203997 3.322278,2.204 1.302446,-1.098727 2.402475,-2.132679 3.174479,-3.133662 0.216963,-0.281289 0.308312,-0.848489 0.449584,-1.328084 0.225209,-0.764545 0.438216,-1.445905 0.438216,-1.445905 l 0.497129,-0.483693 1.344104,-1.256771 0.05478,-0.06873 0.764293,-0.837157 0.153481,-0.309542 0.128677,-0.160197 0.713132,-1.103294 0.07596,-0.07079 0.596345,-1.02733 1.828829,-4.235916 0.07545,-0.0708 0.936377,-1.921846 c 2.308807,-0.424601 3.33275,-5.944446 2.758487,-6.778397 l -0.01395,-1.170999 c 0.180975,-0.728876 0.464159,-1.532865 0.289904,-2.31097 0.269365,-0.391049 0.402059,-1.038894 0.320395,-1.500167 l 0.06925,-1.261422 c -0.568409,-2.485376 -1.202745,-4.730631 -2.673226,-6.38979 -1.610807,-2.200395 -5.216785,-5.4350607 -7.839832,-6.2554317 -1.519394,-0.512146 -3.200528,-0.839308 -4.78472,-1.225765 1.489938,1.3663 3.0298,3.5858867 3.45767,7.3189327 0.414364,-0.07345 4.287379,1.037338 4.394047,1.214396 l 1.182357,0.886768 c 1.170916,1.910128 1.976149,4.470062 1.831414,6.254399 -2.5746,0.03254 -4.455242,0.554458 -6.496246,1.019059 -0.448021,1.600797 -0.286993,5.828765 0.305409,6.438365 0.589081,0.606187 0.560575,1.273842 0.31936,1.641761 -0.249068,0.379897 -0.53026,0.561848 -0.788067,0.632521 -0.744003,0.203954 -1.093176,0.07198 -1.397331,-0.612368 -1.21821,-0.125603 -2.066708,0.43887 -2.268077,0.98547 -0.05633,0.152895 -0.273381,0.139989 -0.429432,0.07028 -0.05469,-0.02442 -0.08399,-0.149725 -0.08165,-0.288353 0.0031,-0.18375 0.133843,-0.459404 0.133843,-0.459404 0,0 -0.102471,0.01794 -0.214459,0.07131 -0.106706,0.05087 -0.228872,0.252553 -0.248562,0.291971 -0.08749,0.175146 -0.0186,0.587044 -0.0186,0.587044 0.137526,0.503904 0.666319,0.988911 1.013373,0.967382 0.431991,-0.0268 0.243335,-0.350784 0.255799,-0.593243 0.01323,-0.257246 0.664224,-0.08952 0.950847,-0.19327 0.531677,-0.192445 0.378894,-0.468172 0.842325,-0.292489 0.190312,0.07215 0.12198,0.671078 0.336931,0.800468 0,0 0.466714,0.137728 0.70745,0.15813 0.313868,0.0266 0.943613,-0.04806 0.943613,-0.04806 0.373997,1.189461 0.671113,2.577944 1.21543,3.734139 l -0.690915,0.406694 -0.650089,0.06615 c 0,0 -0.421727,-0.216861 -0.677995,-0.194305 -0.231013,0.02035 -0.814244,0.113355 -1.18029,0.07235 -0.369565,-0.0414 -0.798949,-0.38534 -0.971518,-0.236678 -0.428673,0.369279 -0.714431,0.458226 -1.338935,0.503843 -0.542488,0.02331 -1.586984,-0.399457 -1.586984,-0.399457 -0.241943,0.144214 -0.425728,0.233915 -0.509013,0.495578 0.841843,0.02918 1.723742,0.333113 2.097029,0.394806 0.318572,0.05265 0.503772,-0.18179 0.952915,-0.210839 0.499351,-0.0323 1.077453,0.199218 1.579748,0.130741 0.364014,-0.04963 0.637752,-0.233891 0.99632,-0.251663 0.365192,-0.0181 0.482053,0.24289 0.841809,0.270782 0.399283,0.03096 0.874533,-0.234238 1.324986,-0.194302 0.515027,0.04566 0.767808,0.424889 1.211294,0.647504 -2.064406,2.548726 -7.173875,1.601552 -8.775173,-0.03979 l -0.804603,-0.08165 c -0.05172,-0.01244 -0.0033,0.300418 0.21704,0.606166 0.420283,0.583263 1.127408,0.346305 1.391647,0.563271 0.276289,0.226859 1.944863,0.874919 2.482536,0.868164 0.27025,-0.0034 -0.373219,0.67369 -1.501201,0.185002 -1.56631,-0.678595 -2.467684,-0.885589 -2.690792,-0.776179 -0.136784,0.06708 -0.02981,0.28865 -0.0646,0.39274 -0.08941,0.267578 -0.84087,0.06453 -0.978752,-0.152961 -1.307766,-2.062852 -1.529278,-5.294722 -3.133652,-7.239351 -0.545957,-0.661741 -2.309804,-1.409218 -2.982764,-1.927013 -0.839212,-0.645716 -1.98015,-1.264746 -2.553849,-2.084113 0.267485,-0.966078 1.364843,-3.384158 2.623096,-4.722191 l 2.378666,-3.768762 0.02222,-0.09043 0.04806,-0.02015 0.291455,-0.461987 c 0.337864,-0.822404 1.017484,-1.731545 1.675352,-2.60966 1.032874,-1.378682 1.138585,-1.953991 2.074806,-2.494429 0.654171,-0.377625 2.163558,-0.353717 2.560568,-0.584461 1.441731,-0.837938 2.021562,-2.560917 1.868101,-3.910872 -0.167703,-1.4752587 -1.320252,-2.7829197 -2.486152,-3.9191407 -0.172648,-0.01411 -0.700492,-0.08168 -1.268655,-0.100252 z m 1.722374,16.1359657 c -1.277001,-0.01461 -3.124774,0.09565 -3.68763,0.286287 -1.423435,0.482114 -2.588989,2.165243 -2.588988,2.165243 0.357115,0.09297 1.227749,-1.755748 3.084051,-1.690853 1.533844,0.05362 4.163446,1.080386 4.558894,0.930175 0.351397,-0.133476 0.265001,-1.12627 -0.3483,-1.632975 -0.230092,-0.03426 -0.59236,-0.05301 -1.018027,-0.05788 z m 8.863026,1.348238 c 1.028824,-7.15e-4 1.418413,0.345791 1.858801,0.935343 -1.937863,-0.274761 -3.373742,0.150252 -4.545975,0.613916 l -0.170017,-0.02325 c 0.379937,-0.648053 1.82837,-1.525295 2.857191,-1.526005 z m -11.357446,0.733805 c -0.254328,0.0033 -0.510114,0.02111 -0.768945,0.05426 -0.507723,0.06928 -1.203365,0.272078 -1.69137,0.470773 -1.031197,0.419861 -1.761132,1.04128 -1.761132,1.04128 l 0.03204,0.0646 c 0.566397,-0.128514 0.543218,0.04928 0.836641,0.06046 0.290031,0.01103 0.596116,-0.191625 0.973069,0.240297 0.257257,-0.136022 0.393438,-0.638937 0.728639,-0.751893 0.888685,0.186367 0.332885,0.87743 0.697629,0.94723 l 1.041281,0.199469 0.213424,-0.148828 c -0.03915,-0.427691 0.0565,-0.759233 0.286805,-0.993738 l 0.31626,-0.160196 0.199469,0.103353 0.334865,0.756544 0.470254,-0.09405 0.371554,0.147277 c 0.06324,0.235331 0.297122,0.40907 0.411346,0.393774 0.36327,-0.04865 -0.0024,-0.549918 -0.127125,-0.843359 0.186656,-0.0527 0.426718,0.01921 0.513665,-0.266134 -0.514435,-0.833394 -1.334508,-1.088221 -2.318724,-1.187524 -0.252957,-0.02552 -0.505314,-0.03685 -0.759642,-0.03359 z m -0.349332,0.727604 c 0,0 0.164171,0.06905 0.202054,0.259933 0.03788,0.190879 -0.07082,0.293995 -0.15658,0.375688 -0.0808,0.07697 -0.261943,0.08896 -0.396359,0.04909 -0.142206,-0.04218 -0.261938,-0.17091 -0.233577,-0.347267 0.01506,-0.09355 0.10387,-0.263033 0.10387,-0.263033 0.135649,-0.05814 0.315873,-0.0841 0.480592,-0.07441 z m 11.22412,0.0677 c 0.04297,0.0017 0.07893,0.0056 0.101286,0.0098 0.08944,0.01678 0.217913,0.09418 0.265101,0.212907 0.04719,0.118726 0.04918,0.22403 -5.29e-4,0.321428 -0.04965,0.0974 -0.163965,0.16309 -0.270266,0.196887 -0.106302,0.0338 -0.225655,0.04315 -0.334862,-0.0047 -0.109223,-0.04777 -0.223295,-0.135179 -0.262001,-0.275437 -0.03871,-0.140252 0.03905,-0.328128 0.108003,-0.389639 0.07272,-0.06487 0.264345,-0.07656 0.393258,-0.07131 z m 1.37511,0.223243 c 0.08713,-0.0084 0.181714,0.0098 0.256831,0.05478 0.09854,0.05896 0.176935,0.153006 0.222727,0.263033 0.101237,0.243245 0.06149,0.7922 0.06149,0.7922 0,0 -0.06838,0.108556 -0.10542,0.1788 -0.372756,0.322538 -0.854962,0.557152 -1.17874,0.673859 l -0.518314,0.224793 0.05943,0.160713 c 0.449808,0.05131 1.414391,0.450443 2.120284,0.534853 0.337653,0.04038 0.333486,-0.423098 0.555006,-0.717786 0.212248,-0.282355 0.656367,-0.460277 0.767395,-0.396359 0.05701,0.08614 0.746066,1.258576 0.657322,1.29553 -2.015132,0.839171 -0.42519,2.430391 -1.112075,3.470587 -1.131247,1.713127 -2.886289,1.231111 -3.832326,0.379823 0.09864,-0.640972 0.01797,-1.329992 -0.646988,-2.041737 -0.529762,-0.567036 -0.238651,-2.151898 -0.419095,-2.426724 -0.140552,-0.214072 -0.647967,-0.67809 -0.570507,-0.993222 0.07738,-0.31482 0.447976,-0.323845 0.619599,-0.593762 0.137512,-0.216273 0.412379,-0.649055 0.412379,-0.649055 0.269115,-0.08558 0.438703,-0.06279 0.509012,0.06873 l 0.221691,0.386024 c 0.119962,0.28135 0.206544,0.431244 0.34675,0.595829 0.202356,0.23754 0.403593,0.24753 0.403593,0.24753 0.718142,-0.0576 0.96105,-0.861991 0.707966,-1.311547 0,0 0.295413,-0.180792 0.461989,-0.196888 z m -3.228226,5.133537 c 0.05813,-0.0085 0.114737,0.0051 0.159679,0.04237 0.568648,0.472112 0.697659,1.115359 0.671793,1.497068 -0.03525,0.520184 -0.293484,1.377301 -1.338935,1.477428 -0.344482,0.03299 -0.165608,-0.505408 0.08216,-0.566373 0.928894,-0.228558 1.136916,-1.210976 0.681096,-1.539957 -0.129188,-0.09324 -0.425188,-0.143764 -0.531749,-0.292489 -0.08488,-0.36976 0.101568,-0.59264 0.275952,-0.61805 z m -16.579867,6.806302 c 0.67577,-0.129823 3.744949,5.134695 3.847827,5.683375 -0.63661,1.289582 -4.020172,-0.435631 -4.261239,-1.130165 -0.182703,-0.694275 0.292189,-0.998945 0.219108,-1.7663 0.0186,-0.776814 -0.481467,-2.657086 0.194304,-2.78691 z m 2.790527,2.284614 c 0.294012,-0.0056 1.128064,1.14187 2.397268,2.220537 0.826803,0.702678 1.875773,1.387443 2.748153,1.771986 1.105525,0.487312 2.107631,0.824711 2.981734,0.964798 1.474254,0.23627 2.512382,0.07765 2.544029,0.343648 0.03453,0.290209 -0.395438,0.388427 -1.073319,0.367935 -0.443484,-0.01341 -1.015177,-0.07044 -1.555462,-0.182933 -0.520213,-0.108301 -1.214794,-0.256817 -1.689819,-0.433048 -0.658998,-0.244483 -1.06249,-0.530516 -1.484662,-0.730705 -0.888217,-0.421183 -1.93797,-1.027433 -2.827218,-1.774569 -1.32511,-1.113335 -2.279856,-2.39118 -2.092379,-2.530594 0.01477,-0.01098 0.03207,-0.01667 0.05168,-0.01707 z m 10.941968,1.709457 c 0.545079,0.01521 0.996032,0.166714 1.17357,0.532268 0.377884,0.778068 -2.528712,0.542083 -3.169314,0.435115 -0.193167,0.180885 -0.77829,0.341013 -1.183391,0.398425 -1.040601,0.147476 -1.737106,0.339442 -2.632914,-0.415477 -0.06306,-0.05314 -0.06396,-0.187418 0.02376,-0.263033 1.127596,-0.166214 1.309346,0.257677 1.810226,-0.02532 0.341032,-0.192691 1.380318,-0.539753 1.789039,-0.208256 0.631682,-0.267338 1.488196,-0.473268 2.189014,-0.453718 z m -17.692461,3.738274 c -0.02015,0.0034 -0.0415,0.02154 -0.06356,0.05788 -0.306317,0.504626 -0.931599,0.596648 -1.590601,0.683678 l -0.422197,0.339513 -3.12384,1.224217 c -0.706797,-0.244793 -0.983849,0.06667 -1.277958,0.688329 -1.114602,0.212315 -2.0473355,1.138515 -3.0530425,1.49655 -1.743449,-0.0295 -1.619712,0.20207 -1.916679,1.015441 -0.42446,0.256747 -0.761019,0.55558 -1.261422,0.871265 -0.397052,0.362468 -1.023786,0.364976 -1.435572,0.404103 C 2.0222135,52.534629 1.0874685,53.512544 5e-7,54.582805 v 1.628323 c 0.389083,-0.158155 0.399764,-0.417425 0.686263,-0.718818 0.06926,-0.07286 0.327285,-0.210841 0.358635,-0.304892 0.102315,-0.306943 -0.230445,-0.269936 -0.339514,-0.137459 -0.173365,0.210574 -0.177386,0.370382 -0.442351,0.341582 0,0 -0.05286,-0.0612 -0.06459,-0.09974 -0.01174,-0.03854 -0.0021,-0.122989 -0.0021,-0.122989 2.192835,-4.413102 8.064198,0.02222 9.398393,2.593639 -0.161083,0.0938 -0.617413,-0.267756 -0.792717,-0.301273 -0.133875,-0.02558 -0.25384,0.01304 -0.305924,0.0832 -0.07483,0.100785 -0.09809,0.301733 0.0026,0.376723 0.102101,0.0761 0.280961,-0.200905 0.366903,-0.10697 0.323516,0.35361 1.088822,0.55604 1.088822,0.55604 l 0.1250565,0.37517 h 1.409217 c -0.312499,-0.40328 -1.168635,-1.287995 -1.210262,-1.592668 -0.09357,-0.684834 1.944507,1.043648 2.86184,1.592668 h 12.469007 l 0.01395,-0.0238 c 1.389735,-1.411328 2.688244,-2.448873 3.998206,-3.51503 0,0 0.236347,-0.143542 0.01394,-0.252182 -0.752282,-0.367501 -4.17202,-2.000912 -6.690548,-3.807003 -1.745342,-1.251622 -3.247546,-2.431142 -4.231783,-3.844726 -0.156432,-0.224674 -0.290851,-0.269185 -0.406693,-0.404627 -0.201135,-0.235167 -0.30488,-0.935541 -0.445968,-0.912088 z m 19.367292,3.759459 -0.135389,0.09819 c 0.250724,2.626141 0.0037,3.662879 -1.401467,4.99246 1.536698,1.311868 4.184134,2.563429 5.186246,3.886065 0.0096,0.007 0.01839,0.0158 0.02791,0.0233 h 4.597654 c -0.08567,-0.14227 -0.320805,-0.4161 -0.535887,-0.5674 -0.206706,-0.14541 -0.392208,-0.16741 -0.544153,-0.35761 -0.121946,-0.152638 0.0871,-0.370083 0.0036,-0.533296 -0.232555,-0.454687 -0.650436,-0.29195 -0.633555,-1.11311 0.0066,-0.320575 0.292751,-0.362122 0.307475,-0.773597 0.01532,-0.428064 -0.156028,-1.489363 -0.244946,-1.97404 l 0.01394,-1.406115 c -0.148907,-0.468953 -0.193003,-0.908622 0.532268,-0.521417 0.163266,0.1407 0.416854,0.168246 0.761193,0.08268 0.563618,0.444955 1.271741,0.618493 1.935281,0.871784 1.425523,0.281244 2.403587,0.62489 3.554823,1.151866 l 0.448551,0.366903 c 0.354031,0.403714 0.624469,1.300527 0.68213,1.804024 0.09036,0.788988 0.271746,1.06476 0.238744,1.604553 -0.01365,0.223165 -0.1788,0.646475 -0.1788,0.646475 l 0.309541,0.15399 0.05478,0.56431 h 3.72794 V 55.930059 L 55.284971,55.807586 54.56977,55.38539 51.085226,53.485764 49.684797,52.567474 C 48.840261,52.604494 48.114334,52.38502 47.41,51.875525 46.45519,51.32951 45.356156,50.963673 44.112527,50.778436 l -1.064019,-0.550395 c -0.824109,0.105344 -1.550297,0.08809 -2.178678,-0.05116 l -1.248502,0.308509 c -0.667832,-0.419039 -1.422456,-0.700074 -2.393654,-0.740008 z m 15.045595,4.695839 2.027783,0.9741 c 0.440113,1.177727 0.316047,2.113317 -0.245462,3.245276 l -0.160713,0.0594 -0.353468,-0.12609 c -0.163145,-0.42716 -0.313886,-0.72767 -0.279053,-1.575093 0.0078,-0.188936 -0.194768,-0.625642 -0.327112,-0.809255 -0.193226,-0.268078 -0.376426,-0.28716 -0.336413,-0.723468 -0.09253,-0.205984 -0.23645,-0.342456 -0.26665,-0.665076 z m -18.14308,2.793627 c -0.527581,0.465904 -0.955733,1.030289 -1.487246,1.510499 h 1.251087 c 0,0 0.08849,-0.0744 0.160195,-0.0703 0.0717,0.004 0.106455,0.0703 0.106455,0.0703 h 1.889808 z"
       id="path5267-0"
       inkscape:connector-curvature="0"
       sodipodi:nodetypes="scscsssssccccccccccccccccscccscccccccccccccccccccccccccccssccccccccccccccccccccccccccccccccccccccccccccccccccscccsccsscsccccccccccccccccccccccccccccccccccccccsccccccccccccccccscccsccccccccccccscccscccscccscccssccccscccccccccccccccccccccccscccccccccscccccsccccccccccccccsssssccccccccccccccccccccccccccccccsccccccccccc" />
  </g>
</svg>
