  0
SECTION
  2
HEADER
  9
$ACADVER
  1
AC1014
  9
$HANDSEED
  5
FFFF
  9
$MEASUREMENT
 70
     1
  0
ENDSEC
  0
SECTION
  2
TABLES
  0
TABLE
  2
VPORT
  5
8
330
0
100
AcDbSymbolTable
 70
     4
  0
VPORT
  5
2E
330
8
100
AcDbSymbolTableRecord
100
AcDbViewportTableRecord
  2
*ACTIVE
 70
     0
 10
0.0
 20
0.0
 11
1.0
 21
1.0
 12
210.0
 22
148.5
 13
0.0
 23
0.0
 14
10.0
 24
10.0
 15
10.0
 25
10.0
 16
0.0
 26
0.0
 36
1.0
 17
0.0
 27
0.0
 37
0.0
 40
341.0
 41
1.24
 42
50.0
 43
0.0
 44
0.0
 50
0.0
 51
0.0
 71
     0
 72
   100
 73
     1
 74
     3
 75
     0
 76
     0
 77
     0
 78
     0
  0
ENDTAB
  0
TABLE
  2
LTYPE
  5
5
330
0
100
AcDbSymbolTable
 70
     1
  0
LTYPE
  5
14
330
5
100
AcDbSymbolTableRecord
100
AcDbLinetypeTableRecord
  2
BYBLOCK
 70
     0
  3

 72
    65
 73
     0
 40
0.0
  0
LTYPE
  5
15
330
5
100
AcDbSymbolTableRecord
100
AcDbLinetypeTableRecord
  2
BYLAYER
 70
     0
  3

 72
    65
 73
     0
 40
0.0
  0
LTYPE
  5
16
330
5
100
AcDbSymbolTableRecord
100
AcDbLinetypeTableRecord
  2
CONTINUOUS
 70
     0
  3
Solid line
 72
    65
 73
     0
 40
0.0
  0
ENDTAB
  0
TABLE
  2
LAYER
  5
2
100
AcDbSymbolTable
 70
2
  0
LAYER
  5
50
100
AcDbSymbolTableRecord
100
AcDbLayerTableRecord
  2
0
 70
0
  6
CONTINUOUS
  0
LAYER
  5
51
100
AcDbSymbolTableRecord
100
AcDbLayerTableRecord
  2
Layer_1
 70
0
  6
CONTINUOUS
  0
ENDTAB
  0
TABLE
  2
STYLE
  5
3
330
0
100
AcDbSymbolTable
 70
     1
  0
STYLE
  5
11
330
3
100
AcDbSymbolTableRecord
100
AcDbTextStyleTableRecord
  2
STANDARD
 70
     0
 40
0.0
 41
1.0
 50
0.0
 71
     0
 42
2.5
  3
txt
  4

  0
ENDTAB
  0
TABLE
  2
VIEW
  5
6
330
0
100
AcDbSymbolTable
 70
     0
  0
ENDTAB
  0
TABLE
  2
UCS
  5
7
330
0
100
AcDbSymbolTable
 70
     0
  0
ENDTAB
  0
TABLE
  2
APPID
  5
9
330
0
100
AcDbSymbolTable
 70
     2
  0
APPID
  5
12
330
9
100
AcDbSymbolTableRecord
100
AcDbRegAppTableRecord
  2
ACAD
 70
     0
  0
ENDTAB
  0
TABLE
  2
DIMSTYLE
  5
A
330
0
100
AcDbSymbolTable
 70
     1
  0
DIMSTYLE
105
27
330
A
100
AcDbSymbolTableRecord
100
AcDbDimStyleTableRecord
  2
ISO-25
 70
     0
  3

  4

  5

  6

  7

 40
1.0
 41
2.5
 42
0.625
 43
3.75
 44
1.25
 45
0.0
 46
0.0
 47
0.0
 48
0.0
140
2.5
141
2.5
142
0.0
143
0.03937007874016
144
1.0
145
0.0
146
1.0
147
0.625
 71
     0
 72
     0
 73
     0
 74
     0
 75
     0
 76
     0
 77
     1
 78
     8
170
     0
171
     3
172
     1
173
     0
174
     0
175
     0
176
     0
177
     0
178
     0
270
     2
271
     2
272
     2
273
     2
274
     3
340
11
275
     0
280
     0
281
     0
282
     0
283
     0
284
     8
285
     0
286
     0
287
     3
288
     0
  0
ENDTAB
  0
TABLE
  2
BLOCK_RECORD
  5
1
330
0
100
AcDbSymbolTable
 70
     1
  0
BLOCK_RECORD
  5
1F
330
1
100
AcDbSymbolTableRecord
100
AcDbBlockTableRecord
  2
*MODEL_SPACE
  0
BLOCK_RECORD
  5
1B
330
1
100
AcDbSymbolTableRecord
100
AcDbBlockTableRecord
  2
*PAPER_SPACE
  0
ENDTAB
  0
ENDSEC
  0
SECTION
  2
BLOCKS
  0
BLOCK
  5
20
330
1F
100
AcDbEntity
  8
0
100
AcDbBlockBegin
  2
*MODEL_SPACE
 70
     0
 10
0.0
 20
0.0
 30
0.0
  3
*MODEL_SPACE
  1

  0
ENDBLK
  5
21
330
1F
100
AcDbEntity
  8
0
100
AcDbBlockEnd
  0
BLOCK
  5
1C
330
1B
100
AcDbEntity
 67
     1
  8
0
100
AcDbBlockBegin
  2
*PAPER_SPACE
  1

  0
ENDBLK
  5
1D
330
1B
100
AcDbEntity
 67
     1
  8
0
100
AcDbBlockEnd
  0
ENDSEC
  0
SECTION
  2
ENTITIES
  0
LWPOLYLINE
  5
100
100
AcDbEntity
  8
Layer_1
 62
7
100
AcDbPolyline
 90
195
 70
1
 10
20.375501
 20
38.886492
 30
0.0
 10
19.061239
 20
38.302031
 30
0.0
 10
18.741491
 20
38.360555
 30
0.0
 10
18.321750
 20
38.188472
 30
0.0
 10
18.163232
 20
38.202424
 30
0.0
 10
17.805502
 20
38.037318
 30
0.0
 10
17.585361
 20
38.044295
 30
0.0
 10
16.633868
 20
37.436968
 30
0.0
 10
16.563330
 20
37.366817
 30
0.0
 10
16.054446
 20
37.153265
 30
0.0
 10
14.160376
 20
35.720794
 30
0.0
 10
14.123944
 20
35.622738
 30
0.0
 10
13.714667
 20
35.216949
 30
0.0
 10
13.673196
 20
35.165401
 30
0.0
 10
13.594131
 20
35.031301
 30
0.0
 10
13.356937
 20
34.770077
 30
0.0
 10
13.239889
 20
34.553036
 30
0.0
 10
13.112378
 20
34.429400
 30
0.0
 10
13.009283
 20
34.088723
 30
0.0
 10
12.819760
 20
33.958111
 30
0.0
 10
12.782165
 20
33.875558
 30
0.0
 10
12.654654
 20
33.751534
 30
0.0
 10
12.393042
 20
32.860891
 30
0.0
 10
12.133368
 20
32.800429
 30
0.0
 10
12.083371
 20
32.685320
 30
0.0
 10
12.054303
 20
32.384176
 30
0.0
 10
11.871756
 20
32.332629
 30
0.0
 10
11.854702
 20
32.205505
 30
0.0
 10
11.770211
 20
32.117913
 30
0.0
 10
11.574099
 20
31.907848
 30
0.0
 10
11.536505
 20
31.825295
 30
0.0
 10
11.495034
 20
31.773748
 30
0.0
 10
11.467516
 20
31.457488
 30
0.0
 10
11.371011
 20
31.195876
 30
0.0
 10
11.298922
 20
31.140841
 30
0.0
 10
11.219857
 20
31.006740
 30
0.0
 10
11.064828
 20
30.848611
 30
0.0
 10
11.019869
 20
30.122686
 30
0.0
 10
10.872204
 20
29.902544
 30
0.0
 10
10.772210
 20
29.813015
 30
0.0
 10
10.483081
 20
29.028954
 30
0.0
 10
10.410604
 20
28.268536
 30
0.0
 10
10.459051
 20
28.116994
 30
0.0
 10
10.355569
 20
27.353475
 30
0.0
 10
10.441610
 20
27.143410
 30
0.0
 10
10.353631
 20
27.086825
 30
0.0
 10
10.276116
 20
26.513991
 30
0.0
 10
10.269139
 20
26.152773
 30
0.0
 10
10.276116
 20
26.090762
 30
0.0
 10
10.283093
 20
25.182677
 30
0.0
 10
10.389289
 20
24.786965
 30
0.0
 10
10.355182
 20
24.532330
 30
0.0
 10
10.468353
 20
24.357147
 30
0.0
 10
10.757096
 20
23.166520
 30
0.0
 10
11.090796
 20
22.702208
 30
0.0
 10
11.312488
 20
22.115423
 30
0.0
 10
11.379926
 20
22.075890
 30
0.0
 10
11.644638
 20
21.384460
 30
0.0
 10
11.445038
 20
20.923635
 30
0.0
 10
11.403568
 20
19.884551
 30
0.0
 10
11.950434
 20
19.334196
 30
0.0
 10
12.378702
 20
19.287688
 30
0.0
 10
12.462806
 20
19.234204
 30
0.0
 10
12.827512
 20
19.055143
 30
0.0
 10
13.130207
 20
19.151650
 30
0.0
 10
14.189832
 20
18.783068
 30
0.0
 10
14.409973
 20
18.212173
 30
0.0
 10
14.409577
 20
17.930019
 30
0.0
 10
14.870401
 20
16.883959
 30
0.0
 10
14.949466
 20
16.454140
 30
0.0
 10
14.928925
 20
16.357634
 30
0.0
 10
15.245185
 20
15.201890
 30
0.0
 10
15.255648
 20
14.826720
 30
0.0
 10
15.568420
 20
13.419830
 30
0.0
 10
15.358355
 20
12.910558
 30
0.0
 10
15.108758
 20
12.757468
 30
0.0
 10
15.069225
 20
12.690417
 30
0.0
 10
14.990161
 20
12.415240
 30
0.0
 10
13.362353
 20
9.429375
 30
0.0
 10
12.190719
 20
9.020098
 30
0.0
 10
12.154675
 20
9.013510
 30
0.0
 10
12.141110
 20
9.002655
 30
0.0
 10
8.896734
 20
7.868616
 30
0.0
 10
5.335711
 20
6.062913
 30
0.0
 10
1.989016
 20
4.341700
 30
0.0
 10
1.953747
 20
4.340112
 30
0.0
 10
1.762673
 20
4.225002
 30
0.0
 10
0.949157
 20
3.789758
 30
0.0
 10
0.794128
 20
3.772712
 30
0.0
 10
0.000000
 20
3.122007
 30
0.0
 10
0.000000
 20
1.900765
 30
0.0
 10
0.000000
 20
0.000105
 30
0.0
 10
7.559616
 20
0.000105
 30
0.0
 10
8.579321
 20
0.000105
 30
0.0
 10
9.855212
 20
0.000105
 30
0.0
 10
12.925180
 20
0.000105
 30
0.0
 10
13.084860
 20
0.000105
 30
0.0
 10
15.267673
 20
0.000105
 30
0.0
 10
15.330459
 20
0.000105
 30
0.0
 10
15.711444
 20
0.000105
 30
0.0
 10
15.942438
 20
0.000105
 30
0.0
 10
19.206967
 20
0.000105
 30
0.0
 10
24.482226
 20
0.000105
 30
0.0
 10
25.420542
 20
0.000105
 30
0.0
 10
25.620529
 20
0.000105
 30
0.0
 10
27.037885
 20
0.000105
 30
0.0
 10
30.678747
 20
0.000105
 30
0.0
 10
34.126987
 20
0.000105
 30
0.0
 10
39.403795
 20
0.000105
 30
0.0
 10
41.951703
 20
0.000105
 30
0.0
 10
41.951703
 20
2.111605
 30
0.0
 10
38.857705
 20
3.627404
 30
0.0
 10
38.622061
 20
3.742900
 30
0.0
 10
37.911252
 20
4.205276
 30
0.0
 10
37.865905
 20
4.264575
 30
0.0
 10
37.312064
 20
4.594787
 30
0.0
 10
35.124213
 20
5.375358
 30
0.0
 10
33.918860
 20
5.805565
 30
0.0
 10
32.286400
 20
6.388088
 30
0.0
 10
30.652392
 20
6.426458
 30
0.0
 10
28.653289
 20
6.663265
 30
0.0
 10
27.920775
 20
6.750082
 30
0.0
 10
27.924645
 20
9.681686
 30
0.0
 10
28.210285
 20
10.073523
 30
0.0
 10
29.218364
 20
11.016101
 30
0.0
 10
29.259446
 20
11.067647
 30
0.0
 10
29.832667
 20
11.695515
 30
0.0
 10
29.947776
 20
11.927671
 30
0.0
 10
30.044282
 20
12.047819
 30
0.0
 10
30.579133
 20
12.875290
 30
0.0
 10
30.636106
 20
12.928386
 30
0.0
 10
31.083365
 20
13.698883
 30
0.0
 10
32.454987
 20
16.875819
 30
0.0
 10
32.511573
 20
16.928917
 30
0.0
 10
33.213855
 20
18.370302
 30
0.0
 10
34.068843
 20
18.716018
 30
0.0
 10
34.104887
 20
18.814074
 30
0.0
 10
34.145970
 20
18.865622
 30
0.0
 10
34.493622
 20
19.123745
 30
0.0
 10
35.001344
 20
20.480639
 30
0.0
 10
35.057929
 20
20.533737
 30
0.0
 10
35.250941
 20
21.620879
 30
0.0
 10
35.243956
 20
21.682890
 30
0.0
 10
35.398985
 20
22.264251
 30
0.0
 10
35.340462
 20
22.508422
 30
0.0
 10
35.460997
 20
23.399452
 30
0.0
 10
35.320309
 20
24.386989
 30
0.0
 10
35.660984
 20
25.834963
 30
0.0
 10
35.599362
 20
26.110140
 30
0.0
 10
35.767956
 20
27.132170
 30
0.0
 10
35.729973
 20
27.190694
 30
0.0
 10
35.781908
 20
28.136760
 30
0.0
 10
35.078012
 20
30.836416
 30
0.0
 10
33.875047
 20
32.893059
 30
0.0
 10
33.776991
 20
32.929103
 30
0.0
 10
33.146023
 20
33.815096
 30
0.0
 10
33.075485
 20
33.885634
 30
0.0
 10
32.803796
 20
34.215846
 30
0.0
 10
32.618148
 20
34.336382
 30
0.0
 10
32.506140
 20
34.496450
 30
0.0
 10
32.408471
 20
34.532494
 30
0.0
 10
32.002293
 20
34.941771
 30
0.0
 10
31.950747
 20
34.983242
 30
0.0
 10
31.773626
 20
35.167339
 30
0.0
 10
31.518991
 20
35.201833
 30
0.0
 10
30.867479
 20
35.850243
 30
0.0
 10
30.784927
 20
35.888225
 30
0.0
 10
30.729892
 20
35.960314
 30
0.0
 10
30.518276
 20
36.030852
 30
0.0
 10
30.464791
 20
36.087825
 30
0.0
 10
30.315187
 20
36.165340
 30
0.0
 10
30.189614
 20
36.307967
 30
0.0
 10
30.107060
 20
36.345949
 30
0.0
 10
30.052025
 20
36.418038
 30
0.0
 10
29.921414
 20
36.466097
 30
0.0
 10
29.505160
 20
36.686626
 30
0.0
 10
29.446636
 20
36.789720
 30
0.0
 10
29.202465
 20
37.013350
 30
0.0
 10
29.085419
 20
37.078850
 30
0.0
 10
28.996276
 20
37.178456
 30
0.0
 10
28.688155
 20
37.269924
 30
0.0
 10
28.562581
 20
37.412550
 30
0.0
 10
27.897117
 20
37.620677
 30
0.0
 10
27.843632
 20
37.677651
 30
0.0
 10
26.944076
 20
38.016777
 30
0.0
 10
23.564453
 20
38.676039
 30
0.0
 10
22.683886
 20
38.703557
 30
0.0
 10
22.408709
 20
38.641545
 30
0.0
 10
22.085474
 20
38.731075
 30
0.0
 10
22.026949
 20
38.693480
 30
0.0
 10
21.669220
 20
38.810527
 30
0.0
 10
21.280096
 20
38.641933
 30
0.0
 10
20.877796
 20
38.879515
 30
0.0
 10
20.630136
 20
38.851998
 30
0.0
 10
20.571613
 20
38.814015
 30
0.0
  0
ENDSEC
  0
SECTION
  2
OBJECTS
  0
DICTIONARY
  5
C
330
0
100
AcDbDictionary
  3
ACAD_GROUP
350
D
  3
ACAD_MLINESTYLE
350
17
  0
DICTIONARY
  5
D
330
C
100
AcDbDictionary
  0
DICTIONARY
  5
1A
330
C
100
AcDbDictionary
  0
DICTIONARY
  5
17
330
C
100
AcDbDictionary
  3
STANDARD
350
18
  0
DICTIONARY
  5
19
330
C
100
AcDbDictionary
  0
ENDSEC
  0
EOF
