  0
SECTION
  2
HEADER
  9
$ACADVER
  1
AC1014
  9
$HANDSEED
  5
FFFF
  9
$MEASUREMENT
 70
     1
  0
ENDSEC
  0
SECTION
  2
TABLES
  0
TABLE
  2
VPORT
  5
8
330
0
100
AcDbSymbolTable
 70
     4
  0
VPORT
  5
2E
330
8
100
AcDbSymbolTableRecord
100
AcDbViewportTableRecord
  2
*ACTIVE
 70
     0
 10
0.0
 20
0.0
 11
1.0
 21
1.0
 12
210.0
 22
148.5
 13
0.0
 23
0.0
 14
10.0
 24
10.0
 15
10.0
 25
10.0
 16
0.0
 26
0.0
 36
1.0
 17
0.0
 27
0.0
 37
0.0
 40
341.0
 41
1.24
 42
50.0
 43
0.0
 44
0.0
 50
0.0
 51
0.0
 71
     0
 72
   100
 73
     1
 74
     3
 75
     0
 76
     0
 77
     0
 78
     0
  0
ENDTAB
  0
TABLE
  2
LTYPE
  5
5
330
0
100
AcDbSymbolTable
 70
     1
  0
LTYPE
  5
14
330
5
100
AcDbSymbolTableRecord
100
AcDbLinetypeTableRecord
  2
BYBLOCK
 70
     0
  3

 72
    65
 73
     0
 40
0.0
  0
LTYPE
  5
15
330
5
100
AcDbSymbolTableRecord
100
AcDbLinetypeTableRecord
  2
BYLAYER
 70
     0
  3

 72
    65
 73
     0
 40
0.0
  0
LTYPE
  5
16
330
5
100
AcDbSymbolTableRecord
100
AcDbLinetypeTableRecord
  2
CONTINUOUS
 70
     0
  3
Solid line
 72
    65
 73
     0
 40
0.0
  0
ENDTAB
  0
TABLE
  2
LAYER
  5
2
100
AcDbSymbolTable
 70
2
  0
LAYER
  5
50
100
AcDbSymbolTableRecord
100
AcDbLayerTableRecord
  2
0
 70
0
  6
CONTINUOUS
  0
LAYER
  5
51
100
AcDbSymbolTableRecord
100
AcDbLayerTableRecord
  2
Layer_1
 70
0
  6
CONTINUOUS
  0
ENDTAB
  0
TABLE
  2
STYLE
  5
3
330
0
100
AcDbSymbolTable
 70
     1
  0
STYLE
  5
11
330
3
100
AcDbSymbolTableRecord
100
AcDbTextStyleTableRecord
  2
STANDARD
 70
     0
 40
0.0
 41
1.0
 50
0.0
 71
     0
 42
2.5
  3
txt
  4

  0
ENDTAB
  0
TABLE
  2
VIEW
  5
6
330
0
100
AcDbSymbolTable
 70
     0
  0
ENDTAB
  0
TABLE
  2
UCS
  5
7
330
0
100
AcDbSymbolTable
 70
     0
  0
ENDTAB
  0
TABLE
  2
APPID
  5
9
330
0
100
AcDbSymbolTable
 70
     2
  0
APPID
  5
12
330
9
100
AcDbSymbolTableRecord
100
AcDbRegAppTableRecord
  2
ACAD
 70
     0
  0
ENDTAB
  0
TABLE
  2
DIMSTYLE
  5
A
330
0
100
AcDbSymbolTable
 70
     1
  0
DIMSTYLE
105
27
330
A
100
AcDbSymbolTableRecord
100
AcDbDimStyleTableRecord
  2
ISO-25
 70
     0
  3

  4

  5

  6

  7

 40
1.0
 41
2.5
 42
0.625
 43
3.75
 44
1.25
 45
0.0
 46
0.0
 47
0.0
 48
0.0
140
2.5
141
2.5
142
0.0
143
0.03937007874016
144
1.0
145
0.0
146
1.0
147
0.625
 71
     0
 72
     0
 73
     0
 74
     0
 75
     0
 76
     0
 77
     1
 78
     8
170
     0
171
     3
172
     1
173
     0
174
     0
175
     0
176
     0
177
     0
178
     0
270
     2
271
     2
272
     2
273
     2
274
     3
340
11
275
     0
280
     0
281
     0
282
     0
283
     0
284
     8
285
     0
286
     0
287
     3
288
     0
  0
ENDTAB
  0
TABLE
  2
BLOCK_RECORD
  5
1
330
0
100
AcDbSymbolTable
 70
     1
  0
BLOCK_RECORD
  5
1F
330
1
100
AcDbSymbolTableRecord
100
AcDbBlockTableRecord
  2
*MODEL_SPACE
  0
BLOCK_RECORD
  5
1B
330
1
100
AcDbSymbolTableRecord
100
AcDbBlockTableRecord
  2
*PAPER_SPACE
  0
ENDTAB
  0
ENDSEC
  0
SECTION
  2
BLOCKS
  0
BLOCK
  5
20
330
1F
100
AcDbEntity
  8
0
100
AcDbBlockBegin
  2
*MODEL_SPACE
 70
     0
 10
0.0
 20
0.0
 30
0.0
  3
*MODEL_SPACE
  1

  0
ENDBLK
  5
21
330
1F
100
AcDbEntity
  8
0
100
AcDbBlockEnd
  0
BLOCK
  5
1C
330
1B
100
AcDbEntity
 67
     1
  8
0
100
AcDbBlockBegin
  2
*PAPER_SPACE
  1

  0
ENDBLK
  5
1D
330
1B
100
AcDbEntity
 67
     1
  8
0
100
AcDbBlockEnd
  0
ENDSEC
  0
SECTION
  2
ENTITIES
  0
LWPOLYLINE
  5
100
100
AcDbEntity
  8
Layer_1
 62
7
100
AcDbPolyline
 90
20
 70
1
 10
0.754063
 20
0.011907
 30
0.0
 10
0.754063
 20
0.035719
 30
0.0
 10
0.698503
 20
0.071434
 30
0.0
 10
0.698503
 20
0.813590
 30
0.0
 10
1.039816
 20
0.813590
 30
0.0
 10
1.075538
 20
0.758030
 30
0.0
 10
1.099351
 20
0.758030
 30
0.0
 10
1.099351
 20
1.111248
 30
0.0
 10
1.075538
 20
1.111248
 30
0.0
 10
1.039816
 20
1.055688
 30
0.0
 10
0.059534
 20
1.055688
 30
0.0
 10
0.023812
 20
1.111248
 30
0.0
 10
-0.000001
 20
1.111248
 30
0.0
 10
-0.000001
 20
0.758030
 30
0.0
 10
0.023812
 20
0.758030
 30
0.0
 10
0.059534
 20
0.813590
 30
0.0
 10
0.400846
 20
0.813590
 30
0.0
 10
0.400846
 20
0.071434
 30
0.0
 10
0.345286
 20
0.035719
 30
0.0
 10
0.345286
 20
0.011907
 30
0.0
  0
LWPOLYLINE
  5
101
100
AcDbEntity
  8
Layer_1
 62
7
100
AcDbPolyline
 90
22
 70
1
 10
2.179495
 20
0.464344
 30
0.0
 10
2.114010
 20
0.299889
 30
0.0
 10
1.929463
 20
0.250032
 30
0.0
 10
1.744917
 20
0.299889
 30
0.0
 10
1.679432
 20
0.464344
 30
0.0
 10
1.679432
 20
0.996156
 30
0.0
 10
1.734992
 20
1.031871
 30
0.0
 10
1.734992
 20
1.055684
 30
0.0
 10
1.326211
 20
1.055684
 30
0.0
 10
1.326211
 20
1.031871
 30
0.0
 10
1.381771
 20
0.996156
 30
0.0
 10
1.381771
 20
0.464344
 30
0.0
 10
1.541762
 20
0.101203
 30
0.0
 10
1.929459
 20
0.000000
 30
0.0
 10
2.317156
 20
0.101203
 30
0.0
 10
2.477146
 20
0.464344
 30
0.0
 10
2.477146
 20
0.996156
 30
0.0
 10
2.532706
 20
1.031871
 30
0.0
 10
2.532706
 20
1.055684
 30
0.0
 10
2.123926
 20
1.055684
 30
0.0
 10
2.123926
 20
1.031871
 30
0.0
 10
2.179486
 20
0.996156
 30
0.0
  0
LWPOLYLINE
  5
102
100
AcDbEntity
  8
Layer_1
 62
7
100
AcDbPolyline
 90
16
 70
1
 10
2.908442
 20
0.071438
 30
0.0
 10
2.852882
 20
0.035723
 30
0.0
 10
2.852882
 20
0.011910
 30
0.0
 10
3.618851
 20
0.011910
 30
0.0
 10
3.924941
 20
0.099223
 30
0.0
 10
4.019695
 20
0.305598
 30
0.0
 10
3.954458
 20
0.474270
 30
0.0
 10
3.789507
 20
0.559598
 30
0.0
 10
3.789507
 20
0.563573
 30
0.0
 10
3.926429
 20
0.636003
 30
0.0
 10
3.980007
 20
0.779870
 30
0.0
 10
3.874835
 20
0.991454
 30
0.0
 10
3.608929
 20
1.055698
 30
0.0
 10
2.852882
 20
1.055698
 30
0.0
 10
2.852882
 20
1.031886
 30
0.0
 10
2.908442
 20
0.996171
 30
0.0
  0
LWPOLYLINE
  5
103
100
AcDbEntity
  8
Layer_1
 62
7
100
AcDbPolyline
 90
5
 70
1
 10
3.206098
 20
0.845344
 30
0.0
 10
3.475974
 20
0.845344
 30
0.0
 10
3.690286
 20
0.754062
 30
0.0
 10
3.475974
 20
0.662781
 30
0.0
 10
3.206098
 20
0.662781
 30
0.0
  0
LWPOLYLINE
  5
104
100
AcDbEntity
  8
Layer_1
 62
7
100
AcDbPolyline
 90
5
 70
1
 10
3.206098
 20
0.460375
 30
0.0
 10
3.543442
 20
0.460375
 30
0.0
 10
3.737911
 20
0.341313
 30
0.0
 10
3.543442
 20
0.222250
 30
0.0
 10
3.206098
 20
0.222250
 30
0.0
  0
LWPOLYLINE
  5
105
100
AcDbEntity
  8
Layer_1
 62
7
100
AcDbPolyline
 90
30
 70
1
 10
5.632307
 20
0.011907
 30
0.0
 10
5.632307
 20
0.035719
 30
0.0
 10
5.576747
 20
0.071434
 30
0.0
 10
5.576747
 20
0.996153
 30
0.0
 10
5.632307
 20
1.031868
 30
0.0
 10
5.632307
 20
1.055680
 30
0.0
 10
5.094541
 20
1.055680
 30
0.0
 10
5.094541
 20
1.031868
 30
0.0
 10
5.142167
 20
0.996153
 30
0.0
 10
4.943729
 20
0.569512
 30
0.0
 10
4.757198
 20
0.996153
 30
0.0
 10
4.804823
 20
1.031868
 30
0.0
 10
4.804823
 20
1.055680
 30
0.0
 10
4.286901
 20
1.055680
 30
0.0
 10
4.286901
 20
1.031868
 30
0.0
 10
4.342461
 20
0.996153
 30
0.0
 10
4.342461
 20
0.071434
 30
0.0
 10
4.286901
 20
0.035719
 30
0.0
 10
4.286901
 20
0.011907
 30
0.0
 10
4.636151
 20
0.011907
 30
0.0
 10
4.636151
 20
0.035719
 30
0.0
 10
4.580591
 20
0.071434
 30
0.0
 10
4.580591
 20
0.813590
 30
0.0
 10
4.584566
 20
0.813590
 30
0.0
 10
4.933816
 20
0.035715
 30
0.0
 10
5.287035
 20
0.805653
 30
0.0
 10
5.291010
 20
0.801678
 30
0.0
 10
5.291010
 20
0.071428
 30
0.0
 10
5.235450
 20
0.035713
 30
0.0
 10
5.235450
 20
0.011901
 30
0.0
  0
LWPOLYLINE
  5
106
100
AcDbEntity
  8
Layer_1
 62
7
100
AcDbPolyline
 90
3
 70
1
 10
6.475636
 20
0.869157
 30
0.0
 10
6.668119
 20
0.396875
 30
0.0
 10
6.299026
 20
0.396875
 30
0.0
  0
LWPOLYLINE
  5
107
100
AcDbEntity
  8
Layer_1
 62
7
100
AcDbPolyline
 90
20
 70
1
 10
6.719713
 20
0.238125
 30
0.0
 10
6.787183
 20
0.059532
 30
0.0
 10
6.749481
 20
0.035719
 30
0.0
 10
6.749481
 20
0.011907
 30
0.0
 10
7.140403
 20
0.011907
 30
0.0
 10
7.140403
 20
0.035719
 30
0.0
 10
7.084843
 20
0.095247
 30
0.0
 10
6.717733
 20
1.006074
 30
0.0
 10
6.753448
 20
1.031874
 30
0.0
 10
6.753448
 20
1.055687
 30
0.0
 10
6.235527
 20
1.055687
 30
0.0
 10
6.235527
 20
1.031874
 30
0.0
 10
6.275217
 20
1.012029
 30
0.0
 10
5.921998
 20
0.081357
 30
0.0
 10
5.870406
 20
0.035720
 30
0.0
 10
5.870406
 20
0.011907
 30
0.0
 10
6.221641
 20
0.011907
 30
0.0
 10
6.221641
 20
0.035720
 30
0.0
 10
6.185926
 20
0.055565
 30
0.0
 10
6.249428
 20
0.238128
 30
0.0
  0
LWPOLYLINE
  5
108
100
AcDbEntity
  8
Layer_1
 62
7
100
AcDbPolyline
 90
26
 70
1
 10
7.439359
 20
0.071438
 30
0.0
 10
7.383799
 20
0.035723
 30
0.0
 10
7.383799
 20
0.011910
 30
0.0
 10
7.760830
 20
0.011910
 30
0.0
 10
7.760830
 20
0.035723
 30
0.0
 10
7.705270
 20
0.071438
 30
0.0
 10
7.705270
 20
0.694531
 30
0.0
 10
8.278755
 20
0.057547
 30
0.0
 10
8.233117
 20
0.035722
 30
0.0
 10
8.233117
 20
0.011910
 30
0.0
 10
8.610149
 20
0.011910
 30
0.0
 10
8.610149
 20
0.035722
 30
0.0
 10
8.554588
 20
0.071437
 30
0.0
 10
8.554588
 20
0.996156
 30
0.0
 10
8.610149
 20
1.031871
 30
0.0
 10
8.610149
 20
1.055683
 30
0.0
 10
8.247008
 20
1.055683
 30
0.0
 10
8.247008
 20
1.031871
 30
0.0
 10
8.288678
 20
0.996156
 30
0.0
 10
8.288678
 20
0.466327
 30
0.0
 10
7.806475
 20
1.006077
 30
0.0
 10
7.862035
 20
1.031877
 30
0.0
 10
7.862035
 20
1.055690
 30
0.0
 10
7.383801
 20
1.055690
 30
0.0
 10
7.383801
 20
1.031877
 30
0.0
 10
7.439361
 20
0.996162
 30
0.0
  0
ENDSEC
  0
SECTION
  2
OBJECTS
  0
DICTIONARY
  5
C
330
0
100
AcDbDictionary
  3
ACAD_GROUP
350
D
  3
ACAD_MLINESTYLE
350
17
  0
DICTIONARY
  5
D
330
C
100
AcDbDictionary
  0
DICTIONARY
  5
1A
330
C
100
AcDbDictionary
  0
DICTIONARY
  5
17
330
C
100
AcDbDictionary
  3
STANDARD
350
18
  0
DICTIONARY
  5
19
330
C
100
AcDbDictionary
  0
ENDSEC
  0
EOF
