<?xml version="1.0" encoding="UTF-8" standalone="no"?>
<!-- Created with Inkscape (http://www.inkscape.org/) -->

<svg
   xmlns:dc="http://purl.org/dc/elements/1.1/"
   xmlns:cc="http://creativecommons.org/ns#"
   xmlns:rdf="http://www.w3.org/1999/02/22-rdf-syntax-ns#"
   xmlns:svg="http://www.w3.org/2000/svg"
   xmlns="http://www.w3.org/2000/svg"
   xmlns:sodipodi="http://sodipodi.sourceforge.net/DTD/sodipodi-0.dtd"
   xmlns:inkscape="http://www.inkscape.org/namespaces/inkscape"
   width="55.935497mm"
   height="58.745392mm"
   viewBox="0 0 55.935497 58.745392"
   version="1.1"
   id="svg8"
   inkscape:version="0.92.1 r15371"
   sodipodi:docname="tubman-silhouette.svg">
  <defs
     id="defs2" />
  <sodipodi:namedview
     id="base"
     pagecolor="#ffffff"
     bordercolor="#666666"
     borderopacity="1.0"
     inkscape:pageopacity="0.0"
     inkscape:pageshadow="2"
     inkscape:zoom="1.979899"
     inkscape:cx="-8.7141324"
     inkscape:cy="143.83068"
     inkscape:document-units="mm"
     inkscape:current-layer="layer1"
     showgrid="false"
     fit-margin-top="0"
     fit-margin-left="0"
     fit-margin-right="0"
     fit-margin-bottom="0"
     inkscape:window-width="1680"
     inkscape:window-height="987"
     inkscape:window-x="-8"
     inkscape:window-y="-8"
     inkscape:window-maximized="1"
     inkscape:snap-page="true" />
  <metadata
     id="metadata5">
    <rdf:RDF>
      <cc:Work
         rdf:about="">
        <dc:format>image/svg+xml</dc:format>
        <dc:type
           rdf:resource="http://purl.org/dc/dcmitype/StillImage" />
        <dc:title></dc:title>
      </cc:Work>
    </rdf:RDF>
  </metadata>
  <g
     inkscape:label="Layer 1"
     inkscape:groupmode="layer"
     id="layer1">
    <path
       style="display:inline;opacity:1;fill:#000000;stroke:#000000;stroke-width:0"
       d="m 102.67969,26.066406 -6.623049,2.945313 -1.611329,-0.294922 -2.115234,0.867187 -0.798828,-0.07031 -1.802734,0.832031 -1.109375,-0.03516 -4.794922,3.060547 -0.355469,0.353515 -2.564453,1.076172 -9.544922,7.21875 -0.183594,0.494141 -2.0625,2.044922 -0.208984,0.259765 -0.398438,0.675782 -1.195312,1.316406 -0.589844,1.09375 -0.642578,0.623047 -0.519531,1.716797 -0.955078,0.658203 -0.189454,0.416015 -0.642578,0.625 -1.318359,4.488282 -1.308594,0.304687 -0.251953,0.580078 -0.146484,1.517578 -0.919922,0.259766 -0.08594,0.640625 -0.425781,0.441406 -0.988281,1.058594 -0.189453,0.416016 -0.208985,0.259765 -0.138672,1.59375 c 0.670281,0.346847 0.507722,0.786898 -0.486328,1.31836 l -0.363281,0.277343 -0.398437,0.675782 -0.78125,0.796875 c -0.491365,0.886378 -0.567178,2.105955 -0.226563,3.658203 l -0.744141,1.109375 -0.503906,0.451172 c -0.03515,1.678151 -0.520683,2.994369 -1.457031,3.951172 0.317556,1.628509 0.195534,2.906372 -0.365234,3.832031 l 0.24414,0.763672 -0.521484,3.847656 0.433594,1.058594 -0.44336,0.285156 c 0.286413,1.252894 0.156209,2.215323 -0.390625,2.886719 -0.448437,0.03927 -0.459914,0.646032 -0.03516,1.820312 l 0.03516,0.3125 0.03516,4.576172 0.535157,1.994141 -0.171875,1.283203 0.570312,0.882812 c 0.142866,2.427126 0.627853,4.428026 1.455078,6.000006 l 1.681641,2.33984 c 0.03666,1.47013 0.408812,2.45646 1.117187,2.95703 l 0.339844,0.19922 1.333985,3.48437 -1.00586,2.32227 -0.208984,5.23633 2.755859,2.77344 2.158203,0.23437 0.423829,0.26953 1.83789,0.90235 1.525391,-0.48633 c 2.106905,0.19805 3.887252,0.81815 5.339843,1.85742 l 1.109376,2.87695 -0.002,1.42188 2.322266,5.27148 0.398438,2.16602 -0.103516,0.48633 c 0.965949,1.39863 1.497126,3.33932 1.59375,5.82422 l 0.05273,1.89062 c 0.830616,1.98228 1.355935,4.34488 1.576172,7.08984 l -1.058594,2.56641 -1.257812,0.77148 -0.199219,0.33789 -0.398437,1.38672 -8.203125,15.04688 -5.904297,2.0625 c -0.06295,0.009 -0.118088,0.0248 -0.181641,0.0332 l -0.06836,0.0547 -16.34961,5.71484 -17.945312,9.09961 -16.865234,8.67383 -0.1777349,0.008 -0.9628906,0.58008 -4.0996094,2.19336 -0.78125,0.0859 L 0,206.29688 v 6.15429 9.57813 h 38.095703 5.138672 6.429687 15.470704 0.804687 11 0.316406 1.919922 1.164063 16.451172 26.583984 4.72852 1.00781 7.14258 18.34765 17.37696 26.59179 12.83985 V 211.38867 L 195.81836,203.75 c -0.2672,-0.39247 -0.65746,-0.59427 -1.1875,-0.58203 l -3.58203,-2.33008 -0.22852,-0.29883 -2.79101,-1.66406 -11.02539,-3.93359 c -1.89092,-0.88941 -3.91613,-1.61234 -6.07422,-2.16797 l -8.22657,-2.93555 -8.23437,-0.19336 -10.07422,-1.19336 c -1.1594,-0.23448 -2.38704,-0.38386 -3.69141,-0.4375 l 0.0195,-14.77344 1.43945,-1.97461 5.08008,-4.75 0.20703,-0.25976 2.88867,-3.16406 0.58008,-1.16992 0.48633,-0.60547 2.69531,-4.16993 0.28711,-0.26757 2.2539,-3.88282 6.91211,-16.00976 0.28516,-0.26758 3.53906,-7.26367 4.3086,-1.74219 0.18164,-0.49414 0.20703,-0.25977 1.75195,-1.30078 2.5586,-6.83789 0.28515,-0.26758 c -0.0921,-2.15897 0.23266,-3.98541 0.97266,-5.47851 l -0.0352,-0.3125 0.78125,-2.92969 -0.29492,-1.23047 c 0.80357,-1.01567 1.00579,-2.51266 0.60742,-4.49023 l -0.70898,-4.976564 1.71679,-7.296875 -0.31054,-1.386719 c 0.78038,-1.318575 1.06303,-3.036467 0.84961,-5.150391 l -0.19141,-0.294922 0.26172,-4.767578 c -1.52635,-10.149895 -4.7297,-18.139361 -9.60938,-23.96875 l -0.49414,-0.18164 -3.17968,-4.464844 -0.35547,-0.355469 -1.36914,-1.664062 -0.93555,-0.607422 -0.56445,-0.806641 -0.49219,-0.181641 -2.04688,-2.0625 -0.25976,-0.208984 -0.89258,-0.927734 -1.2832,-0.173828 -3.28321,-3.267578 -0.41601,-0.191407 -0.27734,-0.363281 -1.06641,-0.355469 -0.26953,-0.287109 -0.75391,-0.390625 -0.63281,-0.71875 -0.41602,-0.191406 -0.27734,-0.363282 -0.6582,-0.242187 -2.09766,-1.111328 -0.29492,-0.519532 -1.23047,-1.126953 -0.58984,-0.330078 -0.44922,-0.501953 -1.55274,-0.460937 -0.63281,-0.71875 -3.35352,-1.048829 -0.26953,-0.287109 -4.5332,-1.708984 C 130.16065,28.442877 124.32997,27.417188 118.75,27.126953 l -4.4375,-0.138672 -1.38672,0.3125 -1.6289,-0.451172 -0.29493,0.189453 -1.80273,-0.589843 -1.96094,0.849609 -2.02734,-1.197266 -1.24805,0.138672 -0.29492,0.191407 z"
       transform="scale(0.26458333)"
       id="path4720" />
  </g>
</svg>
