  0
SECTION
  2
HEADER
  9
$ACADVER
  1
AC1014
  9
$HANDSEED
  5
FFFF
  9
$MEASUREMENT
 70
     1
  0
ENDSEC
  0
SECTION
  2
TABLES
  0
TABLE
  2
VPORT
  5
8
330
0
100
AcDbSymbolTable
 70
     4
  0
VPORT
  5
2E
330
8
100
AcDbSymbolTableRecord
100
AcDbViewportTableRecord
  2
*ACTIVE
 70
     0
 10
0.0
 20
0.0
 11
1.0
 21
1.0
 12
210.0
 22
148.5
 13
0.0
 23
0.0
 14
10.0
 24
10.0
 15
10.0
 25
10.0
 16
0.0
 26
0.0
 36
1.0
 17
0.0
 27
0.0
 37
0.0
 40
341.0
 41
1.24
 42
50.0
 43
0.0
 44
0.0
 50
0.0
 51
0.0
 71
     0
 72
   100
 73
     1
 74
     3
 75
     0
 76
     0
 77
     0
 78
     0
  0
ENDTAB
  0
TABLE
  2
LTYPE
  5
5
330
0
100
AcDbSymbolTable
 70
     1
  0
LTYPE
  5
14
330
5
100
AcDbSymbolTableRecord
100
AcDbLinetypeTableRecord
  2
BYBLOCK
 70
     0
  3

 72
    65
 73
     0
 40
0.0
  0
LTYPE
  5
15
330
5
100
AcDbSymbolTableRecord
100
AcDbLinetypeTableRecord
  2
BYLAYER
 70
     0
  3

 72
    65
 73
     0
 40
0.0
  0
LTYPE
  5
16
330
5
100
AcDbSymbolTableRecord
100
AcDbLinetypeTableRecord
  2
CONTINUOUS
 70
     0
  3
Solid line
 72
    65
 73
     0
 40
0.0
  0
ENDTAB
  0
TABLE
  2
LAYER
  5
2
100
AcDbSymbolTable
 70
2
  0
LAYER
  5
50
100
AcDbSymbolTableRecord
100
AcDbLayerTableRecord
  2
0
 70
0
  6
CONTINUOUS
  0
LAYER
  5
51
100
AcDbSymbolTableRecord
100
AcDbLayerTableRecord
  2
Layer_1
 70
0
  6
CONTINUOUS
  0
ENDTAB
  0
TABLE
  2
STYLE
  5
3
330
0
100
AcDbSymbolTable
 70
     1
  0
STYLE
  5
11
330
3
100
AcDbSymbolTableRecord
100
AcDbTextStyleTableRecord
  2
STANDARD
 70
     0
 40
0.0
 41
1.0
 50
0.0
 71
     0
 42
2.5
  3
txt
  4

  0
ENDTAB
  0
TABLE
  2
VIEW
  5
6
330
0
100
AcDbSymbolTable
 70
     0
  0
ENDTAB
  0
TABLE
  2
UCS
  5
7
330
0
100
AcDbSymbolTable
 70
     0
  0
ENDTAB
  0
TABLE
  2
APPID
  5
9
330
0
100
AcDbSymbolTable
 70
     2
  0
APPID
  5
12
330
9
100
AcDbSymbolTableRecord
100
AcDbRegAppTableRecord
  2
ACAD
 70
     0
  0
ENDTAB
  0
TABLE
  2
DIMSTYLE
  5
A
330
0
100
AcDbSymbolTable
 70
     1
  0
DIMSTYLE
105
27
330
A
100
AcDbSymbolTableRecord
100
AcDbDimStyleTableRecord
  2
ISO-25
 70
     0
  3

  4

  5

  6

  7

 40
1.0
 41
2.5
 42
0.625
 43
3.75
 44
1.25
 45
0.0
 46
0.0
 47
0.0
 48
0.0
140
2.5
141
2.5
142
0.0
143
0.03937007874016
144
1.0
145
0.0
146
1.0
147
0.625
 71
     0
 72
     0
 73
     0
 74
     0
 75
     0
 76
     0
 77
     1
 78
     8
170
     0
171
     3
172
     1
173
     0
174
     0
175
     0
176
     0
177
     0
178
     0
270
     2
271
     2
272
     2
273
     2
274
     3
340
11
275
     0
280
     0
281
     0
282
     0
283
     0
284
     8
285
     0
286
     0
287
     3
288
     0
  0
ENDTAB
  0
TABLE
  2
BLOCK_RECORD
  5
1
330
0
100
AcDbSymbolTable
 70
     1
  0
BLOCK_RECORD
  5
1F
330
1
100
AcDbSymbolTableRecord
100
AcDbBlockTableRecord
  2
*MODEL_SPACE
  0
BLOCK_RECORD
  5
1B
330
1
100
AcDbSymbolTableRecord
100
AcDbBlockTableRecord
  2
*PAPER_SPACE
  0
ENDTAB
  0
ENDSEC
  0
SECTION
  2
BLOCKS
  0
BLOCK
  5
20
330
1F
100
AcDbEntity
  8
0
100
AcDbBlockBegin
  2
*MODEL_SPACE
 70
     0
 10
0.0
 20
0.0
 30
0.0
  3
*MODEL_SPACE
  1

  0
ENDBLK
  5
21
330
1F
100
AcDbEntity
  8
0
100
AcDbBlockEnd
  0
BLOCK
  5
1C
330
1B
100
AcDbEntity
 67
     1
  8
0
100
AcDbBlockBegin
  2
*PAPER_SPACE
  1

  0
ENDBLK
  5
1D
330
1B
100
AcDbEntity
 67
     1
  8
0
100
AcDbBlockEnd
  0
ENDSEC
  0
SECTION
  2
ENTITIES
  0
LWPOLYLINE
  5
100
100
AcDbEntity
  8
Layer_1
 62
7
100
AcDbPolyline
 90
987
 70
1
 10
20.375501
 20
38.886491
 30
0.0
 10
19.061239
 20
38.302030
 30
0.0
 10
18.741491
 20
38.360554
 30
0.0
 10
18.321750
 20
38.188471
 30
0.0
 10
18.163232
 20
38.202424
 30
0.0
 10
17.805503
 20
38.037317
 30
0.0
 10
17.585361
 20
38.044292
 30
0.0
 10
16.633868
 20
37.436965
 30
0.0
 10
16.563331
 20
37.366815
 30
0.0
 10
16.054448
 20
37.153262
 30
0.0
 10
14.160376
 20
35.720791
 30
0.0
 10
14.123941
 20
35.622735
 30
0.0
 10
13.714664
 20
35.216946
 30
0.0
 10
13.673197
 20
35.165399
 30
0.0
 10
13.594132
 20
35.031298
 30
0.0
 10
13.356937
 20
34.770074
 30
0.0
 10
13.239890
 20
34.553033
 30
0.0
 10
13.112378
 20
34.429396
 30
0.0
 10
13.009283
 20
34.088719
 30
0.0
 10
12.819761
 20
33.958108
 30
0.0
 10
12.782163
 20
33.875554
 30
0.0
 10
12.654652
 20
33.751531
 30
0.0
 10
12.393040
 20
32.860888
 30
0.0
 10
12.133366
 20
32.800430
 30
0.0
 10
12.083371
 20
32.685321
 30
0.0
 10
12.054301
 20
32.384177
 30
0.0
 10
11.871754
 20
32.332629
 30
0.0
 10
11.854699
 20
32.205505
 30
0.0
 10
11.770207
 20
32.117914
 30
0.0
 10
11.574095
 20
31.907849
 30
0.0
 10
11.536498
 20
31.825295
 30
0.0
 10
11.495030
 20
31.773748
 30
0.0
 10
11.467513
 20
31.457489
 30
0.0
 10
11.371007
 20
31.195877
 30
0.0
 10
11.298917
 20
31.140842
 30
0.0
 10
11.219852
 20
31.006742
 30
0.0
 10
11.064823
 20
30.848612
 30
0.0
 10
11.019860
 20
30.122687
 30
0.0
 10
10.872195
 20
29.902545
 30
0.0
 10
10.772201
 20
29.813016
 30
0.0
 10
10.483072
 20
29.028955
 30
0.0
 10
10.410592
 20
28.268536
 30
0.0
 10
10.459042
 20
28.116995
 30
0.0
 10
10.355560
 20
27.353476
 30
0.0
 10
10.441601
 20
27.143411
 30
0.0
 10
10.353623
 20
27.086824
 30
0.0
 10
10.276108
 20
26.513991
 30
0.0
 10
10.269133
 20
26.152772
 30
0.0
 10
10.276108
 20
26.090762
 30
0.0
 10
10.283083
 20
25.182678
 30
0.0
 10
10.389278
 20
24.786966
 30
0.0
 10
10.355176
 20
24.532331
 30
0.0
 10
10.468347
 20
24.357147
 30
0.0
 10
10.757089
 20
23.166521
 30
0.0
 10
11.090789
 20
22.702210
 30
0.0
 10
11.312481
 20
22.115424
 30
0.0
 10
11.379921
 20
22.075891
 30
0.0
 10
11.644633
 20
21.384462
 30
0.0
 10
11.445033
 20
20.923637
 30
0.0
 10
11.403565
 20
19.884553
 30
0.0
 10
11.950432
 20
19.334198
 30
0.0
 10
12.378700
 20
19.287691
 30
0.0
 10
12.462803
 20
19.234208
 30
0.0
 10
12.827509
 20
19.055148
 30
0.0
 10
13.130204
 20
19.151654
 30
0.0
 10
14.189830
 20
18.783074
 30
0.0
 10
14.409971
 20
18.212179
 30
0.0
 10
14.409574
 20
17.930024
 30
0.0
 10
14.870399
 20
16.883965
 30
0.0
 10
14.949464
 20
16.454145
 30
0.0
 10
14.928922
 20
16.357639
 30
0.0
 10
15.245182
 20
15.201896
 30
0.0
 10
15.255644
 20
14.826725
 30
0.0
 10
15.568415
 20
13.419836
 30
0.0
 10
15.358351
 20
12.910564
 30
0.0
 10
15.108754
 20
12.757473
 30
0.0
 10
15.069221
 20
12.690423
 30
0.0
 10
14.990156
 20
12.415246
 30
0.0
 10
15.483537
 20
11.639323
 30
0.0
 10
15.616087
 20
11.575761
 30
0.0
 10
15.815687
 20
11.331589
 30
0.0
 10
16.131947
 20
11.162995
 30
0.0
 10
16.186982
 20
11.090522
 30
0.0
 10
16.297053
 20
10.945956
 30
0.0
 10
16.410612
 20
10.911846
 30
0.0
 10
16.503630
 20
10.780847
 30
0.0
 10
16.586182
 20
10.743250
 30
0.0
 10
16.675324
 20
10.643255
 30
0.0
 10
16.823377
 20
10.581245
 30
0.0
 10
16.878412
 20
10.509155
 30
0.0
 10
16.978018
 20
10.457608
 30
0.0
 10
17.105531
 20
10.440163
 30
0.0
 10
17.179173
 20
10.479695
 30
0.0
 10
16.819892
 20
11.458705
 30
0.0
 10
16.661763
 20
11.613347
 30
0.0
 10
16.565645
 20
11.633890
 30
0.0
 10
16.336589
 20
11.577302
 30
0.0
 10
16.293568
 20
11.682335
 30
0.0
 10
16.520687
 20
11.895500
 30
0.0
 10
16.538124
 20
12.022624
 30
0.0
 10
15.941261
 20
12.035029
 30
0.0
 10
16.097841
 20
12.177656
 30
0.0
 10
16.171484
 20
12.217188
 30
0.0
 10
16.211406
 20
12.284238
 30
0.0
 10
16.245516
 20
12.397798
 30
0.0
 10
16.130406
 20
12.588871
 30
0.0
 10
16.003283
 20
12.605919
 30
0.0
 10
15.860268
 20
12.762500
 30
0.0
 10
15.884688
 20
12.827998
 30
0.0
 10
15.863755
 20
12.872570
 30
0.0
 10
15.936236
 20
12.927605
 30
0.0
 10
15.898255
 20
12.986128
 30
0.0
 10
16.059873
 20
13.082634
 30
0.0
 10
16.245908
 20
12.962099
 30
0.0
 10
16.300943
 20
12.889619
 30
0.0
 10
16.514108
 20
12.803579
 30
0.0
 10
16.606738
 20
12.672965
 30
0.0
 10
16.668748
 20
12.679940
 30
0.0
 10
16.799748
 20
12.772958
 30
0.0
 10
16.837346
 20
12.996586
 30
0.0
 10
16.411016
 20
13.168670
 30
0.0
 10
16.274977
 20
13.545392
 30
0.0
 10
16.176921
 20
13.581437
 30
0.0
 10
16.125374
 20
13.763596
 30
0.0
 10
16.201337
 20
13.787626
 30
0.0
 10
16.259860
 20
13.825606
 30
0.0
 10
16.357528
 20
13.648484
 30
0.0
 10
16.581157
 20
13.610504
 30
0.0
 10
16.583108
 20
13.877155
 30
0.0
 10
16.543575
 20
13.951180
 30
0.0
 10
16.476525
 20
13.990712
 30
0.0
 10
16.208310
 20
14.572085
 30
0.0
 10
16.029251
 20
14.630608
 30
0.0
 10
16.101724
 20
14.685643
 30
0.0
 10
16.402480
 20
14.656190
 30
0.0
 10
16.455963
 20
14.599603
 30
0.0
 10
16.569522
 20
14.565110
 30
0.0
 10
16.538517
 20
14.420545
 30
0.0
 10
16.442011
 20
14.441477
 30
0.0
 10
16.367987
 20
14.401945
 30
0.0
 10
16.428452
 20
14.282960
 30
0.0
 10
16.436979
 20
14.346905
 30
0.0
 10
16.566041
 20
14.313965
 30
0.0
 10
16.662160
 20
14.152346
 30
0.0
 10
16.767192
 20
14.195366
 30
0.0
 10
16.799750
 20
14.324428
 30
0.0
 10
16.946252
 20
14.277920
 30
0.0
 10
16.992377
 20
13.859728
 30
0.0
 10
16.911374
 20
13.458977
 30
0.0
 10
17.119501
 20
13.560521
 30
0.0
 10
17.064856
 20
13.773687
 30
0.0
 10
17.129971
 20
13.890733
 30
0.0
 10
17.250506
 20
13.935306
 30
0.0
 10
17.639242
 20
13.398905
 30
0.0
 10
17.566769
 20
13.202794
 30
0.0
 10
17.838458
 20
12.872193
 30
0.0
 10
17.938452
 20
12.820645
 30
0.0
 10
17.927989
 20
12.772586
 30
0.0
 10
17.876442
 20
12.672978
 30
0.0
 10
17.776447
 20
12.442374
 30
0.0
 10
17.822955
 20
12.306335
 30
0.0
 10
17.886518
 20
12.297799
 30
0.0
 10
17.834970
 20
12.198194
 30
0.0
 10
17.917523
 20
12.160214
 30
0.0
 10
17.996588
 20
12.153239
 30
0.0
 10
18.127200
 20
11.964104
 30
0.0
 10
18.388812
 20
11.867598
 30
0.0
 10
18.447335
 20
11.905578
 30
0.0
 10
18.651974
 20
11.896668
 30
0.0
 10
18.598491
 20
11.671487
 30
0.0
 10
18.491909
 20
11.643970
 30
0.0
 10
18.498884
 20
11.581960
 30
0.0
 10
18.557406
 20
11.478865
 30
0.0
 10
18.707009
 20
11.401350
 30
0.0
 10
18.672517
 20
11.146715
 30
0.0
 10
18.474855
 20
10.952540
 30
0.0
 10
18.608955
 20
10.732399
 30
0.0
 10
18.844600
 20
10.727374
 30
0.0
 10
18.894212
 20
10.560329
 30
0.0
 10
18.749648
 20
10.450258
 30
0.0
 10
18.677557
 20
10.395223
 30
0.0
 10
18.402381
 20
10.333595
 30
0.0
 10
18.285334
 20
10.398710
 30
0.0
 10
18.232234
 20
10.596759
 30
0.0
 10
17.974110
 20
10.662256
 30
0.0
 10
17.960160
 20
10.785893
 30
0.0
 10
18.082634
 20
10.814963
 30
0.0
 10
17.957059
 20
10.816913
 30
0.0
 10
18.113639
 20
10.959540
 30
0.0
 10
18.240763
 20
11.083177
 30
0.0
 10
18.175266
 20
11.107207
 30
0.0
 10
18.189216
 20
11.265724
 30
0.0
 10
17.884971
 20
11.749027
 30
0.0
 10
17.772962
 20
11.768017
 30
0.0
 10
17.609794
 20
11.687014
 30
0.0
 10
17.566384
 20
11.509895
 30
0.0
 10
17.784974
 20
11.236654
 30
0.0
 10
17.883031
 20
11.200226
 30
0.0
 10
17.848538
 20
11.086666
 30
0.0
 10
17.803966
 20
11.066124
 30
0.0
 10
17.929540
 20
11.064549
 30
0.0
 10
17.819468
 20
10.926961
 30
0.0
 10
17.796991
 20
10.987036
 30
0.0
 10
17.549332
 20
10.818828
 30
0.0
 10
17.531894
 20
10.691318
 30
0.0
 10
17.974115
 20
10.661866
 30
0.0
 10
18.072171
 20
10.343668
 30
0.0
 10
18.048141
 20
10.278553
 30
0.0
 10
18.137283
 20
10.319638
 30
0.0
 10
18.189220
 20
10.278553
 30
0.0
 10
18.278363
 20
10.319638
 30
0.0
 10
18.367891
 20
10.220033
 30
0.0
 10
18.302394
 20
10.102984
 30
0.0
 10
18.295419
 20
9.741767
 30
0.0
 10
18.350454
 20
9.669676
 30
0.0
 10
18.436495
 20
9.741767
 30
0.0
 10
18.543078
 20
9.628206
 30
0.0
 10
18.595016
 20
9.586739
 30
0.0
 10
18.522543
 20
9.531703
 30
0.0
 10
18.474483
 20
9.542158
 30
0.0
 10
18.526031
 20
9.501073
 30
0.0
 10
18.617111
 20
9.385577
 30
0.0
 10
18.735708
 20
9.445652
 30
0.0
 10
18.801205
 20
9.421622
 30
0.0
 10
18.787256
 20
9.263491
 30
0.0
 10
18.918255
 20
9.074357
 30
0.0
 10
19.162426
 20
8.991803
 30
0.0
 10
19.217461
 20
8.919330
 30
0.0
 10
19.300015
 20
8.881350
 30
0.0
 10
19.351562
 20
8.840265
 30
0.0
 10
19.628289
 20
8.745698
 30
0.0
 10
20.001523
 20
8.348047
 30
0.0
 10
20.113533
 20
8.329057
 30
0.0
 10
20.273212
 20
8.158912
 30
0.0
 10
20.490253
 20
8.041864
 30
0.0
 10
20.545288
 20
7.969774
 30
0.0
 10
20.661947
 20
7.904276
 30
0.0
 10
20.744499
 20
7.866296
 30
0.0
 10
20.925109
 20
7.792271
 30
0.0
 10
21.050682
 20
7.649644
 30
0.0
 10
21.527009
 20
7.451594
 30
0.0
 10
21.583987
 20
7.364003
 30
0.0
 10
21.635534
 20
7.322528
 30
0.0
 10
21.733590
 20
7.286483
 30
0.0
 10
21.787073
 20
7.229896
 30
0.0
 10
22.170383
 20
7.021382
 30
0.0
 10
22.223865
 20
6.964794
 30
0.0
 10
22.468037
 20
6.741165
 30
0.0
 10
22.817241
 20
6.560555
 30
0.0
 10
22.870334
 20
6.503585
 30
0.0
 10
23.088926
 20
6.371035
 30
0.0
 10
23.142019
 20
6.314448
 30
0.0
 10
23.561761
 20
6.063299
 30
0.0
 10
23.613309
 20
6.021832
 30
0.0
 10
23.971040
 20
5.763706
 30
0.0
 10
24.022588
 20
5.722621
 30
0.0
 10
24.174131
 20
5.629603
 30
0.0
 10
24.225678
 20
5.588518
 30
0.0
 10
24.643483
 20
5.352487
 30
0.0
 10
24.727973
 20
5.299387
 30
0.0
 10
24.858585
 20
5.250937
 30
0.0
 10
26.501509
 20
6.686897
 30
0.0
 10
26.596075
 20
6.822935
 30
0.0
 10
27.065815
 20
7.251202
 30
0.0
 10
27.239448
 20
7.521342
 30
0.0
 10
27.280923
 20
7.572890
 30
0.0
 10
27.924682
 20
9.681677
 30
0.0
 10
28.210323
 20
10.073513
 30
0.0
 10
29.218401
 20
11.016092
 30
0.0
 10
29.259486
 20
11.067639
 30
0.0
 10
29.832707
 20
11.695508
 30
0.0
 10
29.947817
 20
11.927663
 30
0.0
 10
30.044322
 20
12.047811
 30
0.0
 10
30.579172
 20
12.875281
 30
0.0
 10
30.636150
 20
12.928374
 30
0.0
 10
31.083408
 20
13.698871
 30
0.0
 10
32.455030
 20
16.875808
 30
0.0
 10
32.511617
 20
16.928908
 30
0.0
 10
33.213899
 20
18.370292
 30
0.0
 10
34.068887
 20
18.716009
 30
0.0
 10
34.104932
 20
18.814064
 30
0.0
 10
34.146017
 20
18.865612
 30
0.0
 10
34.493669
 20
19.123735
 30
0.0
 10
35.001392
 20
20.480628
 30
0.0
 10
35.057979
 20
20.533728
 30
0.0
 10
35.250991
 20
21.620870
 30
0.0
 10
35.244017
 20
21.682880
 30
0.0
 10
35.399045
 20
22.264240
 30
0.0
 10
35.340523
 20
22.508412
 30
0.0
 10
35.461058
 20
23.399442
 30
0.0
 10
35.320369
 20
24.386979
 30
0.0
 10
35.661045
 20
25.834953
 30
0.0
 10
35.599425
 20
26.110129
 30
0.0
 10
35.768019
 20
27.132160
 30
0.0
 10
35.730039
 20
27.190683
 30
0.0
 10
35.781976
 20
28.136750
 30
0.0
 10
33.875055
 20
32.893047
 30
0.0
 10
33.776999
 20
32.929092
 30
0.0
 10
33.146032
 20
33.815085
 30
0.0
 10
33.075494
 20
33.885622
 30
0.0
 10
32.803806
 20
34.215835
 30
0.0
 10
32.618158
 20
34.336370
 30
0.0
 10
32.506150
 20
34.496438
 30
0.0
 10
32.408481
 20
34.532483
 30
0.0
 10
32.002303
 20
34.941761
 30
0.0
 10
31.950755
 20
34.983228
 30
0.0
 10
31.773634
 20
35.167324
 30
0.0
 10
31.518999
 20
35.201817
 30
0.0
 10
30.867487
 20
35.850227
 30
0.0
 10
30.784935
 20
35.888207
 30
0.0
 10
30.729900
 20
35.960297
 30
0.0
 10
30.518285
 20
36.030835
 30
0.0
 10
30.464802
 20
36.087805
 30
0.0
 10
30.315198
 20
36.165320
 30
0.0
 10
30.189625
 20
36.307946
 30
0.0
 10
30.107071
 20
36.345926
 30
0.0
 10
30.052036
 20
36.418016
 30
0.0
 10
29.921422
 20
36.466085
 30
0.0
 10
29.505168
 20
36.686613
 30
0.0
 10
29.446645
 20
36.789708
 30
0.0
 10
29.202473
 20
37.013338
 30
0.0
 10
29.085427
 20
37.078838
 30
0.0
 10
28.996285
 20
37.178444
 30
0.0
 10
28.688163
 20
37.269911
 30
0.0
 10
28.562590
 20
37.412538
 30
0.0
 10
27.897125
 20
37.620665
 30
0.0
 10
27.843643
 20
37.677638
 30
0.0
 10
26.944086
 20
38.016765
 30
0.0
 10
26.997568
 20
37.818715
 30
0.0
 10
26.880522
 20
37.602061
 30
0.0
 10
26.658443
 20
37.483464
 30
0.0
 10
26.759987
 20
37.275337
 30
0.0
 10
26.894087
 20
37.337349
 30
0.0
 10
26.932067
 20
37.419902
 30
0.0
 10
27.365375
 20
37.609037
 30
0.0
 10
27.369275
 20
37.719108
 30
0.0
 10
27.394850
 20
37.627641
 30
0.0
 10
27.496395
 20
37.701667
 30
0.0
 10
27.568485
 20
37.474549
 30
0.0
 10
27.551437
 20
37.347425
 30
0.0
 10
27.628951
 20
37.214875
 30
0.0
 10
27.747549
 20
37.133873
 30
0.0
 10
27.946760
 20
37.030778
 30
0.0
 10
28.043267
 20
37.010237
 30
0.0
 10
28.356427
 20
36.872648
 30
0.0
 10
28.304489
 20
36.631578
 30
0.0
 10
28.125818
 20
36.549025
 30
0.0
 10
27.967688
 20
36.562977
 30
0.0
 10
27.867694
 20
36.473448
 30
0.0
 10
27.960712
 20
36.342835
 30
0.0
 10
28.074270
 20
36.308343
 30
0.0
 10
28.146360
 20
36.222302
 30
0.0
 10
28.123883
 20
36.141686
 30
0.0
 10
27.833203
 20
35.937048
 30
0.0
 10
27.795224
 20
35.854107
 30
0.0
 10
27.644070
 20
35.806047
 30
0.0
 10
27.582060
 20
35.799072
 30
0.0
 10
27.021242
 20
35.909531
 30
0.0
 10
27.217354
 20
36.260284
 30
0.0
 10
27.289834
 20
36.315320
 30
0.0
 10
27.097208
 20
36.497479
 30
0.0
 10
26.859627
 20
36.377331
 30
0.0
 10
26.794512
 20
36.401361
 30
0.0
 10
26.735990
 20
36.363381
 30
0.0
 10
26.746069
 20
36.411831
 30
0.0
 10
26.853041
 20
36.721114
 30
0.0
 10
27.215809
 20
36.980789
 30
0.0
 10
27.121241
 20
37.127291
 30
0.0
 10
26.947609
 20
37.139306
 30
0.0
 10
26.911564
 20
37.041250
 30
0.0
 10
26.512363
 20
37.106750
 30
0.0
 10
26.689484
 20
37.204806
 30
0.0
 10
26.431360
 20
37.269918
 30
0.0
 10
26.391828
 20
37.061791
 30
0.0
 10
26.539880
 20
36.859090
 30
0.0
 10
26.450351
 20
36.676543
 30
0.0
 10
26.264703
 20
36.514925
 30
0.0
 10
26.322835
 20
36.411831
 30
0.0
 10
26.627469
 20
36.351374
 30
0.0
 10
26.684056
 20
36.122705
 30
0.0
 10
26.635997
 20
35.992093
 30
0.0
 10
26.925126
 20
35.930083
 30
0.0
 10
27.004190
 20
35.782030
 30
0.0
 10
26.981712
 20
35.701414
 30
0.0
 10
26.753045
 20
35.644444
 30
0.0
 10
26.536390
 20
35.902568
 30
0.0
 10
26.295320
 20
35.672350
 30
0.0
 10
26.281370
 20
35.513833
 30
0.0
 10
26.637550
 20
35.412288
 30
0.0
 10
26.691032
 20
35.355700
 30
0.0
 10
26.972797
 20
34.791394
 30
0.0
 10
27.213868
 20
34.739847
 30
0.0
 10
27.396027
 20
34.509241
 30
0.0
 10
27.373550
 20
34.428238
 30
0.0
 10
26.948771
 20
34.443740
 30
0.0
 10
26.814670
 20
34.099963
 30
0.0
 10
26.922803
 20
33.970901
 30
0.0
 10
27.020859
 20
33.934856
 30
0.0
 10
27.041401
 20
33.889894
 30
0.0
 10
27.050311
 20
33.953846
 30
0.0
 10
27.309985
 20
33.872843
 30
0.0
 10
27.070852
 20
33.767811
 30
0.0
 10
27.013874
 20
33.855790
 30
0.0
 10
26.886751
 20
33.872845
 30
0.0
 10
26.773192
 20
33.625186
 30
0.0
 10
26.836754
 20
33.616658
 30
0.0
 10
26.900317
 20
33.467055
 30
0.0
 10
27.046432
 20
33.138393
 30
0.0
 10
27.347575
 20
33.108941
 30
0.0
 10
27.499115
 20
33.157000
 30
0.0
 10
27.648719
 20
33.079873
 30
0.0
 10
27.756852
 20
32.809735
 30
0.0
 10
27.976995
 20
32.802760
 30
0.0
 10
28.066524
 20
32.843845
 30
0.0
 10
28.278140
 20
32.773307
 30
0.0
 10
28.463786
 20
32.512083
 30
0.0
 10
28.606413
 20
32.496190
 30
0.0
 10
28.871513
 20
32.651219
 30
0.0
 10
29.280791
 20
32.492702
 30
0.0
 10
29.332338
 20
32.451617
 30
0.0
 10
29.459848
 20
32.434180
 30
0.0
 10
29.642008
 20
32.485727
 30
0.0
 10
30.082291
 20
32.331086
 30
0.0
 10
30.197401
 20
32.140012
 30
0.0
 10
30.271426
 20
32.038468
 30
0.0
 10
30.035782
 20
31.902817
 30
0.0
 10
29.930749
 20
32.000873
 30
0.0
 10
29.900126
 20
31.997348
 30
0.0
 10
30.027252
 20
31.697754
 30
0.0
 10
29.882686
 20
31.446607
 30
0.0
 10
29.863696
 20
31.193909
 30
0.0
 10
29.786182
 20
31.185382
 30
0.0
 10
29.696651
 20
31.002835
 30
0.0
 10
29.751686
 20
30.930745
 30
0.0
 10
29.653629
 20
30.825712
 30
0.0
 10
29.855166
 20
30.707115
 30
0.0
 10
29.760212
 20
30.430388
 30
0.0
 10
29.538520
 20
30.311402
 30
0.0
 10
29.412946
 20
30.454417
 30
0.0
 10
29.208307
 20
30.462944
 30
0.0
 10
28.771124
 20
30.163738
 30
0.0
 10
28.709497
 20
30.156763
 30
0.0
 10
28.458351
 20
30.160288
 30
0.0
 10
28.384326
 20
30.120755
 30
0.0
 10
28.440914
 20
30.033164
 30
0.0
 10
28.738570
 20
30.034738
 30
0.0
 10
28.884686
 20
29.988231
 30
0.0
 10
28.981192
 20
29.967306
 30
0.0
 10
29.039714
 20
30.005286
 30
0.0
 10
29.479997
 20
29.991336
 30
0.0
 10
29.662157
 20
30.042884
 30
0.0
 10
30.050892
 20
29.929324
 30
0.0
 10
30.570628
 20
30.190936
 30
0.0
 10
30.618688
 20
30.321549
 30
0.0
 10
30.804336
 20
30.483167
 30
0.0
 10
30.859371
 20
30.411077
 30
0.0
 10
30.771778
 20
29.789797
 30
0.0
 10
30.635741
 20
29.743680
 30
0.0
 10
30.474122
 20
29.788252
 30
0.0
 10
30.444670
 20
29.346807
 30
0.0
 10
30.568693
 20
29.360374
 30
0.0
 10
30.702793
 20
29.281310
 30
0.0
 10
30.458622
 20
29.222788
 30
0.0
 10
30.444672
 20
29.346424
 30
0.0
 10
30.069887
 20
29.335961
 30
0.0
 10
30.085382
 20
29.478588
 30
0.0
 10
29.951282
 20
29.699117
 30
0.0
 10
29.787726
 20
29.618114
 30
0.0
 10
29.758266
 20
29.316970
 30
0.0
 10
29.832291
 20
29.215814
 30
0.0
 10
30.021426
 20
29.205351
 30
0.0
 10
30.293115
 20
28.734062
 30
0.0
 10
30.236528
 20
28.680580
 30
0.0
 10
30.062894
 20
28.551518
 30
0.0
 10
30.026459
 20
28.453462
 30
0.0
 10
29.988862
 20
28.370909
 30
0.0
 10
29.938867
 20
28.255800
 30
0.0
 10
29.881897
 20
28.202700
 30
0.0
 10
29.758260
 20
27.906594
 30
0.0
 10
30.002432
 20
27.824041
 30
0.0
 10
30.091960
 20
27.865508
 30
0.0
 10
30.611309
 20
27.703502
 30
0.0
 10
30.882998
 20
27.796520
 30
0.0
 10
30.998107
 20
27.746525
 30
0.0
 10
31.082599
 20
27.693043
 30
0.0
 10
31.302739
 20
27.686068
 30
0.0
 10
31.625976
 20
27.878692
 30
0.0
 10
31.736047
 20
27.734127
 30
0.0
 10
31.915106
 20
27.675604
 30
0.0
 10
32.083700
 20
27.286868
 30
0.0
 10
32.025177
 20
27.108197
 30
0.0
 10
31.615513
 20
26.843097
 30
0.0
 10
30.833002
 20
26.976054
 30
0.0
 10
30.824468
 20
26.912101
 30
0.0
 10
30.666337
 20
26.926051
 30
0.0
 10
30.234193
 20
26.721412
 30
0.0
 10
30.139626
 20
26.867528
 30
0.0
 10
29.888477
 20
26.729939
 30
0.0
 10
29.805923
 20
26.626845
 30
0.0
 10
29.396646
 20
26.503209
 30
0.0
 10
29.331149
 20
26.527239
 30
0.0
 10
29.152478
 20
26.444686
 30
0.0
 10
29.090467
 20
26.437711
 30
0.0
 10
28.976908
 20
26.331128
 30
0.0
 10
28.980433
 20
26.441200
 30
0.0
 10
28.928885
 20
26.482667
 30
0.0
 10
28.866875
 20
26.475692
 30
0.0
 10
28.794785
 20
26.420657
 30
0.0
 10
28.849820
 20
26.348185
 30
0.0
 10
28.897880
 20
26.338105
 30
0.0
 10
28.808351
 20
26.296637
 30
0.0
 10
28.908346
 20
26.245090
 30
0.0
 10
28.684715
 20
26.141996
 30
0.0
 10
28.502168
 20
26.231524
 30
0.0
 10
28.430078
 20
26.317566
 30
0.0
 10
28.390546
 20
26.391209
 30
0.0
 10
28.247532
 20
26.406711
 30
0.0
 10
28.218462
 20
26.247031
 30
0.0
 10
28.089400
 20
26.138510
 30
0.0
 10
27.913831
 20
26.024951
 30
0.0
 10
27.690202
 20
26.062931
 30
0.0
 10
27.585556
 20
26.019911
 30
0.0
 10
27.494088
 20
25.571101
 30
0.0
 10
27.335959
 20
25.443590
 30
0.0
 10
27.266974
 20
25.216860
 30
0.0
 10
27.306506
 20
25.142835
 30
0.0
 10
27.373556
 20
25.103302
 30
0.0
 10
27.480139
 20
24.989744
 30
0.0
 10
27.456109
 20
24.924246
 30
0.0
 10
27.463085
 20
24.862236
 30
0.0
 10
27.425487
 20
24.779684
 30
0.0
 10
27.384020
 20
24.728136
 30
0.0
 10
27.377045
 20
24.507994
 30
0.0
 10
27.432080
 20
24.294829
 30
0.0
 10
27.322010
 20
23.875088
 30
0.0
 10
27.401073
 20
23.727034
 30
0.0
 10
27.377043
 20
23.379768
 30
0.0
 10
27.466185
 20
23.138699
 30
0.0
 10
27.411150
 20
22.787945
 30
0.0
 10
27.500679
 20
22.688339
 30
0.0
 10
27.600284
 20
22.636401
 30
0.0
 10
27.655319
 20
22.564311
 30
0.0
 10
27.509206
 20
22.469742
 30
0.0
 10
27.469673
 20
22.402692
 30
0.0
 10
27.399136
 20
22.050001
 30
0.0
 10
27.729348
 20
22.180613
 30
0.0
 10
27.679353
 20
21.501198
 30
0.0
 10
27.718885
 20
21.427173
 30
0.0
 10
27.989024
 20
21.394616
 30
0.0
 10
28.044059
 20
21.322135
 30
0.0
 10
27.995617
 20
21.191524
 30
0.0
 10
28.129717
 20
20.971381
 30
0.0
 10
28.265756
 20
20.735737
 30
0.0
 10
28.229321
 20
20.496605
 30
0.0
 10
28.054138
 20
19.959816
 30
0.0
 10
27.142179
 20
19.702079
 30
0.0
 10
27.061564
 20
19.724557
 30
0.0
 10
27.039086
 20
19.643555
 30
0.0
 10
27.004594
 20
19.529995
 30
0.0
 10
26.884059
 20
19.485422
 30
0.0
 10
26.732905
 20
19.578440
 30
0.0
 10
26.468192
 20
20.128795
 30
0.0
 10
24.818293
 20
19.600919
 30
0.0
 10
24.727214
 20
19.434263
 30
0.0
 10
24.412505
 20
19.305202
 30
0.0
 10
24.242359
 20
19.568363
 30
0.0
 10
24.083842
 20
19.441240
 30
0.0
 10
24.069892
 20
19.000957
 30
0.0
 10
24.309023
 20
18.541681
 30
0.0
 10
24.376073
 20
18.502148
 30
0.0
 10
24.912862
 20
18.326579
 30
0.0
 10
24.998905
 20
18.398668
 30
0.0
 10
25.046965
 20
18.388214
 30
0.0
 10
25.107430
 20
18.692845
 30
0.0
 10
26.182171
 20
19.031583
 30
0.0
 10
26.356191
 20
19.019575
 30
0.0
 10
26.619352
 20
18.484336
 30
0.0
 10
27.886718
 20
18.217686
 30
0.0
 10
27.940200
 20
18.019635
 30
0.0
 10
27.922755
 20
17.892512
 30
0.0
 10
28.038252
 20
17.701439
 30
0.0
 10
28.108399
 20
17.630901
 30
0.0
 10
28.404504
 20
17.225112
 30
0.0
 10
28.306448
 20
16.979002
 30
0.0
 10
28.421557
 20
16.929007
 30
0.0
 10
28.877345
 20
16.916984
 30
0.0
 10
28.834325
 20
16.739863
 30
0.0
 10
28.772315
 20
16.450733
 30
0.0
 10
28.811848
 20
16.377098
 30
0.0
 10
28.939360
 20
16.359653
 30
0.0
 10
28.775804
 20
16.279038
 30
0.0
 10
28.595194
 20
16.353063
 30
0.0
 10
28.803321
 20
16.031376
 30
0.0
 10
29.016486
 20
15.945335
 30
0.0
 10
28.827350
 20
15.814335
 30
0.0
 10
28.059956
 20
15.948823
 30
0.0
 10
27.901825
 20
15.821699
 30
0.0
 10
27.857253
 20
15.659695
 30
0.0
 10
27.896786
 20
15.586052
 30
0.0
 10
28.151420
 20
15.551560
 30
0.0
 10
28.053365
 20
15.446529
 30
0.0
 10
27.963836
 20
15.405054
 30
0.0
 10
27.832837
 20
15.453504
 30
0.0
 10
27.594091
 20
15.489549
 30
0.0
 10
27.509600
 20
15.543039
 30
0.0
 10
27.227446
 20
15.543039
 30
0.0
 10
26.928240
 20
15.415914
 30
0.0
 10
26.439897
 20
15.581020
 30
0.0
 10
25.982173
 20
15.467461
 30
0.0
 10
25.665527
 20
15.494979
 30
0.0
 10
24.636907
 20
15.161666
 30
0.0
 10
23.446669
 20
15.437230
 30
0.0
 10
23.111420
 20
15.211662
 30
0.0
 10
23.064912
 20
15.065546
 30
0.0
 10
24.774499
 20
14.769442
 30
0.0
 10
25.352370
 20
14.927571
 30
0.0
 10
26.904213
 20
14.786107
 30
0.0
 10
27.482085
 20
14.944237
 30
0.0
 10
28.101039
 20
14.731072
 30
0.0
 10
28.465745
 20
14.834167
 30
0.0
 10
28.747898
 20
14.834167
 30
0.0
 10
28.961453
 20
14.889202
 30
0.0
 10
29.172680
 20
14.818274
 30
0.0
 10
29.411812
 20
14.500078
 30
0.0
 10
29.465295
 20
14.443490
 30
0.0
 10
29.229650
 20
14.448515
 30
0.0
 10
29.155625
 20
14.408983
 30
0.0
 10
29.119580
 20
14.310927
 30
0.0
 10
29.062610
 20
14.398520
 30
0.0
 10
28.981995
 20
14.420997
 30
0.0
 10
28.850995
 20
14.328366
 30
0.0
 10
28.775420
 20
13.740031
 30
0.0
 10
28.242118
 20
13.461365
 30
0.0
 10
27.684787
 20
13.399738
 30
0.0
 10
27.553789
 20
13.447798
 30
0.0
 10
27.127457
 20
13.337726
 30
0.0
 10
27.065447
 20
13.330751
 30
0.0
 10
26.755776
 20
13.296259
 30
0.0
 10
26.201935
 20
13.485782
 30
0.0
 10
25.830251
 20
13.444697
 30
0.0
 10
25.159749
 20
13.558644
 30
0.0
 10
24.382276
 20
13.926837
 30
0.0
 10
24.330729
 20
13.967922
 30
0.0
 10
23.584263
 20
14.198915
 30
0.0
 10
23.360633
 20
14.377973
 30
0.0
 10
23.236610
 20
14.505098
 30
0.0
 10
23.137003
 20
14.556646
 30
0.0
 10
22.562619
 20
14.790740
 30
0.0
 10
22.511071
 20
14.832208
 30
0.0
 10
22.474636
 20
14.734152
 30
0.0
 10
22.159928
 20
14.746174
 30
0.0
 10
22.030864
 20
14.778732
 30
0.0
 10
22.013817
 20
14.651609
 30
0.0
 10
21.800652
 20
14.596574
 30
0.0
 10
21.740187
 20
14.433019
 30
0.0
 10
21.704142
 20
14.334962
 30
0.0
 10
22.273487
 20
14.429532
 30
0.0
 10
22.369606
 20
14.267912
 30
0.0
 10
22.307596
 20
13.978783
 30
0.0
 10
22.448671
 20
13.837706
 30
0.0
 10
22.438591
 20
13.789646
 30
0.0
 10
22.521145
 20
13.752049
 30
0.0
 10
22.462622
 20
13.572991
 30
0.0
 10
22.421147
 20
13.521443
 30
0.0
 10
22.321541
 20
13.290837
 30
0.0
 10
22.397119
 20
13.173788
 30
0.0
 10
22.335109
 20
13.026123
 30
0.0
 10
22.223488
 20
13.045113
 30
0.0
 10
22.166518
 20
13.273782
 30
0.0
 10
22.199458
 20
13.543921
 30
0.0
 10
21.908779
 20
13.621435
 30
0.0
 10
21.814211
 20
13.908628
 30
0.0
 10
21.685150
 20
13.941185
 30
0.0
 10
21.647170
 20
13.999708
 30
0.0
 10
21.695612
 20
14.130319
 30
0.0
 10
21.652592
 20
14.235353
 30
0.0
 10
21.707627
 20
14.304345
 30
0.0
 10
21.093324
 20
14.329920
 30
0.0
 10
20.957672
 20
14.283803
 30
0.0
 10
20.749545
 20
14.323335
 30
0.0
 10
20.687535
 20
14.316360
 30
0.0
 10
20.634053
 20
14.372947
 30
0.0
 10
20.718543
 20
14.460926
 30
0.0
 10
20.969692
 20
14.598515
 30
0.0
 10
21.323932
 20
14.512086
 30
0.0
 10
21.354937
 20
14.656652
 30
0.0
 10
21.261919
 20
14.787650
 30
0.0
 10
21.114254
 20
14.849278
 30
0.0
 10
21.138284
 20
14.914775
 30
0.0
 10
21.043716
 20
14.919800
 30
0.0
 10
21.186341
 20
15.045374
 30
0.0
 10
21.107278
 20
15.052349
 30
0.0
 10
20.897601
 20
14.966306
 30
0.0
 10
20.580952
 20
15.134901
 30
0.0
 10
20.739470
 20
15.685643
 30
0.0
 10
20.577853
 20
15.871290
 30
0.0
 10
20.431350
 20
15.917797
 30
0.0
 10
20.371275
 20
16.177471
 30
0.0
 10
20.488324
 20
16.394125
 30
0.0
 10
20.600332
 20
16.375135
 30
0.0
 10
20.328643
 20
16.846424
 30
0.0
 10
20.030987
 20
16.985951
 30
0.0
 10
19.963936
 20
17.307636
 30
0.0
 10
20.237564
 20
17.385152
 30
0.0
 10
20.244539
 20
17.605292
 30
0.0
 10
20.205007
 20
17.679317
 30
0.0
 10
19.888360
 20
17.706835
 30
0.0
 10
19.824797
 20
17.856439
 30
0.0
 10
19.762787
 20
17.849464
 30
0.0
 10
19.666669
 20
17.870006
 30
0.0
 10
19.413584
 20
17.747920
 30
0.0
 10
19.443036
 20
17.907988
 30
0.0
 10
19.547680
 20
17.951008
 30
0.0
 10
19.618218
 20
18.021545
 30
0.0
 10
19.742242
 20
18.035120
 30
0.0
 10
20.075942
 20
18.275804
 30
0.0
 10
19.984864
 20
18.532377
 30
0.0
 10
19.857352
 20
18.549425
 30
0.0
 10
19.769759
 20
18.774990
 30
0.0
 10
19.787197
 20
18.902115
 30
0.0
 10
19.740689
 20
19.038154
 30
0.0
 10
19.673639
 20
19.077686
 30
0.0
 10
19.575583
 20
19.113731
 30
0.0
 10
19.518613
 20
19.201321
 30
0.0
 10
19.356994
 20
19.246277
 30
0.0
 10
19.030271
 20
19.084659
 30
0.0
 10
18.913223
 20
19.149774
 30
0.0
 10
18.825632
 20
19.375342
 30
0.0
 10
18.882609
 20
19.428442
 30
0.0
 10
18.928734
 20
19.574944
 30
0.0
 10
18.724095
 20
19.583479
 30
0.0
 10
18.621001
 20
19.383879
 30
0.0
 10
18.478373
 20
19.399374
 30
0.0
 10
18.512483
 20
19.654009
 30
0.0
 10
18.624492
 20
19.635019
 30
0.0
 10
18.603949
 20
19.679591
 30
0.0
 10
18.545427
 20
19.783073
 30
0.0
 10
18.454347
 20
19.898183
 30
0.0
 10
18.325285
 20
19.931130
 30
0.0
 10
18.266762
 20
20.034224
 30
0.0
 10
17.922597
 20
20.168324
 30
0.0
 10
17.872985
 20
20.335369
 30
0.0
 10
18.005535
 20
20.412496
 30
0.0
 10
18.070650
 20
20.388466
 30
0.0
 10
18.144675
 20
20.427998
 30
0.0
 10
18.077625
 20
20.608608
 30
0.0
 10
17.781907
 20
20.309402
 30
0.0
 10
17.678425
 20
20.250880
 30
0.0
 10
17.549363
 20
20.142748
 30
0.0
 10
17.423789
 20
20.003222
 30
0.0
 10
17.307130
 20
20.068720
 30
0.0
 10
17.393171
 20
20.422961
 30
0.0
 10
16.780805
 20
20.856656
 30
0.0
 10
16.686237
 20
21.143846
 30
0.0
 10
16.540122
 20
21.190354
 30
0.0
 10
16.306027
 20
21.039200
 30
0.0
 10
16.194406
 20
21.058190
 30
0.0
 10
16.047904
 20
21.245388
 30
0.0
 10
16.414548
 20
21.333368
 30
0.0
 10
16.433538
 20
21.444989
 30
0.0
 10
16.378503
 20
21.517468
 30
0.0
 10
16.245953
 20
21.439953
 30
0.0
 10
16.044803
 20
21.699629
 30
0.0
 10
15.893262
 20
21.651568
 30
0.0
 10
15.791717
 20
21.859696
 30
0.0
 10
15.272369
 20
21.739548
 30
0.0
 10
15.401432
 20
22.129833
 30
0.0
 10
15.504526
 20
22.188356
 30
0.0
 10
15.528946
 20
22.253463
 30
0.0
 10
15.490966
 20
22.311985
 30
0.0
 10
15.521971
 20
22.456552
 30
0.0
 10
15.559951
 20
22.398029
 30
0.0
 10
15.563476
 20
22.508098
 30
0.0
 10
15.525496
 20
22.566621
 30
0.0
 10
15.739049
 20
23.044885
 30
0.0
 10
16.014226
 20
23.247587
 30
0.0
 10
16.146776
 20
23.748331
 30
0.0
 10
16.289403
 20
23.873905
 30
0.0
 10
16.464973
 20
24.128540
 30
0.0
 10
16.537063
 20
24.183575
 30
0.0
 10
16.843634
 20
24.671918
 30
0.0
 10
16.884719
 20
24.723466
 30
0.0
 10
16.934714
 20
24.838575
 30
0.0
 10
17.077341
 20
24.964148
 30
0.0
 10
17.118809
 20
25.015696
 30
0.0
 10
17.549015
 20
25.659067
 30
0.0
 10
17.980771
 20
25.863706
 30
0.0
 10
18.068362
 20
25.638139
 30
0.0
 10
17.970307
 20
25.392417
 30
0.0
 10
17.913329
 20
25.338935
 30
0.0
 10
17.903249
 20
24.867646
 30
0.0
 10
17.942782
 20
24.793621
 30
0.0
 10
18.295085
 20
24.723083
 30
0.0
 10
18.271055
 20
24.516894
 30
0.0
 10
18.167961
 20
24.458372
 30
0.0
 10
18.307099
 20
24.332797
 30
0.0
 10
18.315627
 20
24.396360
 30
0.0
 10
18.338105
 20
24.336285
 30
0.0
 10
18.498172
 20
24.306832
 30
0.0
 10
18.597779
 20
24.114208
 30
0.0
 10
18.811331
 20
24.028167
 30
0.0
 10
18.891946
 20
23.864611
 30
0.0
 10
19.416721
 20
23.797561
 30
0.0
 10
19.819021
 20
23.842133
 30
0.0
 10
20.035676
 20
23.725088
 30
0.0
 10
20.090711
 20
23.652997
 30
0.0
 10
20.249229
 20
23.639048
 30
0.0
 10
20.462394
 20
23.835159
 30
0.0
 10
20.481384
 20
23.947169
 30
0.0
 10
20.786017
 20
24.168859
 30
0.0
 10
21.002669
 20
24.051813
 30
0.0
 10
21.294901
 20
23.535953
 30
0.0
 10
22.099890
 20
23.342943
 30
0.0
 10
22.259957
 20
23.454564
 30
0.0
 10
22.475062
 20
24.199867
 30
0.0
 10
22.712256
 20
24.320014
 30
0.0
 10
22.861859
 20
24.242500
 30
0.0
 10
23.113007
 20
23.675092
 30
0.0
 10
23.465698
 20
23.745629
 30
0.0
 10
23.744363
 20
23.635171
 30
0.0
 10
23.828467
 20
23.440998
 30
0.0
 10
24.002100
 20
23.428975
 30
0.0
 10
24.076125
 20
23.468508
 30
0.0
 10
24.084660
 20
23.673147
 30
0.0
 10
23.957537
 20
23.972353
 30
0.0
 10
24.342785
 20
24.171953
 30
0.0
 10
24.394723
 20
24.835866
 30
0.0
 10
24.355205
 20
24.909913
 30
0.0
 10
24.136612
 20
25.042463
 30
0.0
 10
24.049022
 20
24.844414
 30
0.0
 10
23.912983
 20
24.797906
 30
0.0
 10
23.761830
 20
24.890923
 30
0.0
 10
23.718810
 20
24.995956
 30
0.0
 10
23.651760
 20
25.035488
 30
0.0
 10
23.324650
 20
25.156024
 30
0.0
 10
23.049473
 20
25.235089
 30
0.0
 10
22.994438
 20
25.166486
 30
0.0
 10
22.251460
 20
25.083933
 30
0.0
 10
21.687153
 20
24.660703
 30
0.0
 10
21.879778
 20
24.337467
 30
0.0
 10
21.786760
 20
24.186314
 30
0.0
 10
21.542589
 20
24.127792
 30
0.0
 10
21.401512
 20
24.409946
 30
0.0
 10
21.442979
 20
24.602570
 30
0.0
 10
21.074785
 20
24.671173
 30
0.0
 10
20.768603
 20
24.606058
 30
0.0
 10
20.694578
 20
24.848679
 30
0.0
 10
20.548463
 20
24.895187
 30
0.0
 10
20.421340
 20
24.912242
 30
0.0
 10
19.929122
 20
24.826200
 30
0.0
 10
19.643867
 20
24.575440
 30
0.0
 10
18.902440
 20
24.336308
 30
0.0
 10
18.848957
 20
24.393277
 30
0.0
 10
18.769892
 20
24.400253
 30
0.0
 10
18.718345
 20
24.441337
 30
0.0
 10
18.742375
 20
24.506835
 30
0.0
 10
18.966005
 20
24.609929
 30
0.0
 10
19.031502
 20
24.726976
 30
0.0
 10
19.275673
 20
24.785117
 30
0.0
 10
19.402797
 20
24.768062
 30
0.0
 10
19.430315
 20
24.943632
 30
0.0
 10
19.267146
 20
25.003707
 30
0.0
 10
19.072585
 20
25.342447
 30
0.0
 10
19.088087
 20
25.485461
 30
0.0
 10
19.141570
 20
25.569564
 30
0.0
 10
18.962511
 20
25.628087
 30
0.0
 10
18.888869
 20
25.588554
 30
0.0
 10
18.871431
 20
25.461430
 30
0.0
 10
18.821436
 20
25.345933
 30
0.0
 10
18.742371
 20
25.211833
 30
0.0
 10
18.805933
 20
25.203305
 30
0.0
 10
18.771831
 20
24.948669
 30
0.0
 10
18.742379
 20
25.070755
 30
0.0
 10
18.690831
 20
24.971149
 30
0.0
 10
18.628821
 20
25.105249
 30
0.0
 10
18.651298
 20
25.186252
 30
0.0
 10
18.536188
 20
25.236247
 30
0.0
 10
18.350153
 20
25.356395
 30
0.0
 10
18.467200
 20
25.573048
 30
0.0
 10
18.797413
 20
25.704048
 30
0.0
 10
18.759815
 20
25.762570
 30
0.0
 10
18.632304
 20
25.779625
 30
0.0
 10
18.543162
 20
25.738158
 30
0.0
 10
18.484640
 20
25.841640
 30
0.0
 10
18.622228
 20
25.872645
 30
0.0
 10
18.649745
 20
26.047829
 30
0.0
 10
18.697805
 20
26.178828
 30
0.0
 10
18.593161
 20
26.558650
 30
0.0
 10
18.833843
 20
26.648179
 30
0.0
 10
18.883838
 20
26.763289
 30
0.0
 10
19.112507
 20
27.243492
 30
0.0
 10
19.007862
 20
27.200472
 30
0.0
 10
18.942365
 20
27.224502
 30
0.0
 10
18.780747
 20
26.986919
 30
0.0
 10
18.675715
 20
26.943899
 30
0.0
 10
18.625720
 20
27.110943
 30
0.0
 10
18.718737
 20
27.262484
 30
0.0
 10
18.854776
 20
27.308602
 30
0.0
 10
18.866791
 20
27.482622
 30
0.0
 10
18.887333
 20
27.578740
 30
0.0
 10
18.933841
 20
27.724856
 30
0.0
 10
19.055926
 20
27.754308
 30
0.0
 10
18.997404
 20
27.998479
 30
0.0
 10
19.040424
 20
28.175600
 30
0.0
 10
19.190414
 20
28.239163
 30
0.0
 10
19.384588
 20
29.028650
 30
0.0
 10
19.441566
 20
29.082132
 30
0.0
 10
19.543110
 20
29.296848
 30
0.0
 10
19.630702
 20
29.353818
 30
0.0
 10
19.723719
 20
29.504971
 30
0.0
 10
19.761699
 20
29.587525
 30
0.0
 10
19.936882
 20
29.842160
 30
0.0
 10
20.022922
 20
29.914640
 30
0.0
 10
20.205470
 20
30.107264
 30
0.0
 10
20.408558
 20
30.396006
 30
0.0
 10
20.649240
 20
30.626612
 30
0.0
 10
20.824812
 20
30.880861
 30
0.0
 10
20.865897
 20
30.932408
 30
0.0
 10
21.225566
 20
31.646318
 30
0.0
 10
21.282536
 20
31.699801
 30
0.0
 10
22.940847
 20
32.713997
 30
0.0
 10
23.298578
 20
32.596950
 30
0.0
 10
24.027991
 20
32.803526
 30
0.0
 10
24.334174
 20
33.009715
 30
0.0
 10
24.371772
 20
33.092268
 30
0.0
 10
24.624857
 20
33.214354
 30
0.0
 10
24.698882
 20
33.536040
 30
0.0
 10
24.889955
 20
33.651149
 30
0.0
 10
25.132575
 20
34.148405
 30
0.0
 10
25.431783
 20
34.416606
 30
0.0
 10
25.524801
 20
34.567760
 30
0.0
 10
25.598436
 20
34.607292
 30
0.0
 10
25.497278
 20
34.956496
 30
0.0
 10
25.517821
 20
35.335154
 30
0.0
 10
25.442244
 20
35.452202
 30
0.0
 10
25.466274
 20
35.517316
 30
0.0
 10
25.270163
 20
35.871946
 30
0.0
 10
25.313182
 20
36.049067
 30
0.0
 10
25.554253
 20
36.138209
 30
0.0
 10
25.315121
 20
36.456794
 30
0.0
 10
24.972894
 20
36.293238
 30
0.0
 10
24.915924
 20
36.521906
 30
0.0
 10
24.931419
 20
36.664921
 30
0.0
 10
24.967854
 20
36.904054
 30
0.0
 10
24.754300
 20
36.990095
 30
0.0
 10
24.651205
 20
36.931572
 30
0.0
 10
24.641125
 20
36.883513
 30
0.0
 10
24.613608
 20
36.990095
 30
0.0
 10
24.692674
 20
37.265272
 30
0.0
 10
24.833749
 20
37.124196
 30
0.0
 10
24.871346
 20
37.206749
 30
0.0
 10
24.818246
 20
37.404411
 30
0.0
 10
24.668642
 20
37.481926
 30
0.0
 10
24.606632
 20
37.474951
 30
0.0
 10
24.548110
 20
37.437356
 30
0.0
 10
24.524080
 20
37.512933
 30
0.0
 10
24.388425
 20
37.607499
 30
0.0
 10
24.379515
 20
37.543937
 30
0.0
 10
24.353940
 20
37.635017
 30
0.0
 10
24.472537
 20
37.695091
 30
0.0
 10
24.417502
 20
37.767567
 30
0.0
 10
24.262859
 20
37.891203
 30
0.0
 10
23.681499
 20
38.187309
 30
0.0
 10
23.406322
 20
38.125298
 30
0.0
 10
23.345864
 20
38.244283
 30
0.0
 10
23.402834
 20
38.297381
 30
0.0
 10
23.653981
 20
38.434969
 30
0.0
 10
24.090775
 20
38.310946
 30
0.0
 10
24.066745
 20
38.245834
 30
0.0
 10
24.214798
 20
38.183822
 30
0.0
 10
24.403934
 20
38.314434
 30
0.0
 10
24.360914
 20
38.419467
 30
0.0
 10
24.279913
 20
38.441946
 30
0.0
 10
24.206270
 20
38.402413
 30
0.0
 10
24.120228
 20
38.329937
 30
0.0
 10
24.004732
 20
38.379934
 30
0.0
 10
23.875670
 20
38.553567
 30
0.0
 10
23.564448
 20
38.676040
 30
0.0
 10
22.683882
 20
38.703558
 30
0.0
 10
22.408705
 20
38.641546
 30
0.0
 10
22.085470
 20
38.731076
 30
0.0
 10
22.026947
 20
38.693481
 30
0.0
 10
21.669218
 20
38.810528
 30
0.0
 10
21.280094
 20
38.641934
 30
0.0
 10
20.877794
 20
38.879516
 30
0.0
 10
20.630134
 20
38.851999
 30
0.0
 10
20.571611
 20
38.814017
 30
0.0
  0
LWPOLYLINE
  5
101
100
AcDbEntity
  8
Layer_1
 62
7
100
AcDbPolyline
 90
6
 70
1
 10
24.875226
 20
38.445433
 30
0.0
 10
24.708182
 20
38.395435
 30
0.0
 10
24.686087
 20
38.314433
 30
0.0
 10
25.246517
 20
38.204362
 30
0.0
 10
25.320542
 20
38.243894
 30
0.0
 10
25.267442
 20
38.300867
 30
0.0
  0
LWPOLYLINE
  5
102
100
AcDbEntity
  8
Layer_1
 62
7
100
AcDbPolyline
 90
5
 70
1
 10
25.546115
 20
38.331486
 30
0.0
 10
25.441082
 20
38.288465
 30
0.0
 10
25.570144
 20
38.114832
 30
0.0
 10
26.001901
 20
38.037318
 30
0.0
 10
25.711222
 20
38.255909
 30
0.0
  0
LWPOLYLINE
  5
103
100
AcDbEntity
  8
Layer_1
 62
7
100
AcDbPolyline
 90
3
 70
1
 10
24.501606
 20
37.432316
 30
0.0
 10
24.539586
 20
37.373793
 30
0.0
 10
24.481064
 20
37.335811
 30
0.0
  0
LWPOLYLINE
  5
104
100
AcDbEntity
  8
Layer_1
 62
7
100
AcDbPolyline
 90
18
 70
1
 10
19.045737
 20
37.171867
 30
0.0
 10
19.114339
 20
37.116831
 30
0.0
 10
19.193404
 20
36.968778
 30
0.0
 10
19.451528
 20
36.903278
 30
0.0
 10
19.541058
 20
36.944749
 30
0.0
 10
19.730194
 20
36.934286
 30
0.0
 10
19.874371
 20
36.762203
 30
0.0
 10
20.005370
 20
36.714144
 30
0.0
 10
20.118929
 20
36.538573
 30
0.0
 10
19.998394
 20
36.494000
 30
0.0
 10
19.922818
 20
36.611048
 30
0.0
 10
19.888325
 20
36.638565
 30
0.0
 10
19.255418
 20
36.693600
 30
0.0
 10
19.182946
 20
36.779642
 30
0.0
 10
19.196896
 20
36.937771
 30
0.0
 10
18.894202
 20
36.841653
 30
0.0
 10
18.766690
 20
36.858707
 30
0.0
 10
18.811645
 20
37.020325
 30
0.0
  0
LWPOLYLINE
  5
105
100
AcDbEntity
  8
Layer_1
 62
7
100
AcDbPolyline
 90
8
 70
1
 10
25.645334
 20
36.869560
 30
0.0
 10
25.611224
 20
36.756001
 30
0.0
 10
25.688351
 20
36.623451
 30
0.0
 10
25.865473
 20
36.580430
 30
0.0
 10
26.001511
 20
36.626939
 30
0.0
 10
25.941437
 20
36.745536
 30
0.0
 10
25.731371
 20
36.800572
 30
0.0
 10
25.679823
 20
36.842042
 30
0.0
  0
LWPOLYLINE
  5
106
100
AcDbEntity
  8
Layer_1
 62
7
100
AcDbPolyline
 90
2
 70
1
 10
26.092592
 20
36.793595
 30
0.0
 10
26.017018
 20
36.769565
 30
0.0
  0
LWPOLYLINE
  5
107
100
AcDbEntity
  8
Layer_1
 62
7
100
AcDbPolyline
 90
22
 70
1
 10
29.286972
 20
36.678098
 30
0.0
 10
29.445103
 20
36.664146
 30
0.0
 10
29.520678
 20
36.547099
 30
0.0
 10
29.479593
 20
36.354475
 30
0.0
 10
29.307512
 20
36.209910
 30
0.0
 10
29.211006
 20
35.666533
 30
0.0
 10
29.276504
 20
35.642503
 30
0.0
 10
29.321076
 20
35.521967
 30
0.0
 10
29.307126
 20
35.363837
 30
0.0
 10
29.352089
 20
35.243302
 30
0.0
 10
28.835840
 20
35.092148
 30
0.0
 10
28.853285
 20
35.219273
 30
0.0
 10
28.897858
 20
35.380891
 30
0.0
 10
28.952893
 20
35.449876
 30
0.0
 10
28.942813
 20
35.542893
 30
0.0
 10
28.873820
 20
35.597928
 30
0.0
 10
28.966838
 20
35.608008
 30
0.0
 10
28.894366
 20
35.694049
 30
0.0
 10
29.011412
 20
36.051780
 30
0.0
 10
28.849795
 20
36.378892
 30
0.0
 10
29.083887
 20
36.530045
 30
0.0
 10
29.135434
 20
36.629651
 30
0.0
  0
LWPOLYLINE
  5
108
100
AcDbEntity
  8
Layer_1
 62
7
100
AcDbPolyline
 90
23
 70
1
 10
18.223306
 20
36.673058
 30
0.0
 10
18.291909
 20
36.618023
 30
0.0
 10
18.247337
 20
36.456405
 30
0.0
 10
18.312452
 20
36.150222
 30
0.0
 10
18.474457
 20
36.105267
 30
0.0
 10
18.656617
 20
36.156815
 30
0.0
 10
18.835676
 20
36.239368
 30
0.0
 10
18.832151
 20
36.270373
 30
0.0
 10
18.876723
 20
36.431990
 30
0.0
 10
19.069347
 20
36.390905
 30
0.0
 10
19.251506
 20
36.160299
 30
0.0
 10
19.203446
 20
36.029687
 30
0.0
 10
18.938346
 20
35.874658
 30
0.0
 10
18.842228
 20
35.895590
 30
0.0
 10
18.690687
 20
35.847530
 30
0.0
 10
18.470546
 20
35.854505
 30
0.0
 10
18.356986
 20
36.029688
 30
0.0
 10
18.123280
 20
36.160688
 30
0.0
 10
18.023674
 20
36.212236
 30
0.0
 10
17.923679
 20
36.263783
 30
0.0
 10
17.982202
 20
36.583919
 30
0.0
 10
18.068243
 20
36.656007
 30
0.0
 10
18.164749
 20
36.635466
 30
0.0
  0
LWPOLYLINE
  5
109
100
AcDbEntity
  8
Layer_1
 62
7
100
AcDbPolyline
 90
7
 70
1
 10
22.585444
 20
36.624224
 30
0.0
 10
22.650941
 20
36.600195
 30
0.0
 10
22.905190
 20
36.283548
 30
0.0
 10
23.214861
 20
36.035888
 30
0.0
 10
23.156339
 20
35.997908
 30
0.0
 10
22.705591
 20
36.104492
 30
0.0
 10
22.502890
 20
36.521132
 30
0.0
  0
LWPOLYLINE
  5
10a
100
AcDbEntity
  8
Layer_1
 62
7
100
AcDbPolyline
 90
6
 70
1
 10
17.583423
 20
36.507953
 30
0.0
 10
17.517925
 20
36.250217
 30
0.0
 10
17.256313
 20
36.064181
 30
0.0
 10
17.156707
 20
36.116119
 30
0.0
 10
17.204767
 20
36.246731
 30
0.0
 10
17.249722
 20
36.408349
 30
0.0
  0
LWPOLYLINE
  5
10b
100
AcDbEntity
  8
Layer_1
 62
7
100
AcDbPolyline
 90
7
 70
1
 10
26.048021
 20
36.349823
 30
0.0
 10
26.039111
 20
36.286260
 30
0.0
 10
25.951521
 20
36.229672
 30
0.0
 10
26.017018
 20
36.064567
 30
0.0
 10
26.068566
 20
36.023099
 30
0.0
 10
26.127088
 20
36.061079
 30
0.0
 10
26.134064
 20
36.281221
 30
0.0
  0
LWPOLYLINE
  5
10c
100
AcDbEntity
  8
Layer_1
 62
7
100
AcDbPolyline
 90
11
 70
1
 10
21.553335
 20
36.321533
 30
0.0
 10
21.618450
 20
36.297503
 30
0.0
 10
21.732008
 20
36.121932
 30
0.0
 10
21.828515
 20
36.101389
 30
0.0
 10
21.921145
 20
35.829701
 30
0.0
 10
21.742474
 20
35.747147
 30
0.0
 10
21.522331
 20
35.754122
 30
0.0
 10
21.374278
 20
35.957211
 30
0.0
 10
21.305676
 20
36.012246
 30
0.0
 10
21.109565
 20
36.084336
 30
0.0
 10
21.123140
 20
36.242466
 30
0.0
  0
LWPOLYLINE
  5
10d
100
AcDbEntity
  8
Layer_1
 62
7
100
AcDbPolyline
 90
7
 70
1
 10
20.273570
 20
36.273472
 30
0.0
 10
20.483246
 20
36.077361
 30
0.0
 10
20.438674
 20
35.915743
 30
0.0
 10
20.431699
 20
35.977753
 30
0.0
 10
19.857316
 20
36.070770
 30
0.0
 10
19.912351
 20
36.139373
 30
0.0
 10
20.029010
 20
36.215337
 30
0.0
  0
LWPOLYLINE
  5
10e
100
AcDbEntity
  8
Layer_1
 62
7
100
AcDbPolyline
 90
6
 70
1
 10
16.131574
 20
36.033565
 30
0.0
 10
16.166066
 20
36.006047
 30
0.0
 10
16.303655
 20
35.895977
 30
0.0
 10
15.938948
 20
35.792882
 30
0.0
 10
15.987008
 20
35.923494
 30
0.0
 10
16.042043
 20
35.992479
 30
0.0
  0
LWPOLYLINE
  5
10f
100
AcDbEntity
  8
Layer_1
 62
7
100
AcDbPolyline
 90
8
 70
1
 10
17.235769
 20
35.968067
 30
0.0
 10
17.301267
 20
35.944037
 30
0.0
 10
17.373357
 20
35.857996
 30
0.0
 10
17.380332
 20
35.795986
 30
0.0
 10
17.418312
 20
35.737464
 30
0.0
 10
17.342347
 20
35.572358
 30
0.0
 10
17.180729
 20
35.617320
 30
0.0
 10
17.211734
 20
35.902574
 30
0.0
  0
LWPOLYLINE
  5
110
100
AcDbEntity
  8
Layer_1
 62
7
100
AcDbPolyline
 90
12
 70
1
 10
22.069195
 20
35.908772
 30
0.0
 10
22.168802
 20
35.857225
 30
0.0
 10
22.248255
 20
35.709172
 30
0.0
 10
22.234305
 20
35.551042
 30
0.0
 10
22.275390
 20
35.461513
 30
0.0
 10
22.375383
 20
35.409965
 30
0.0
 10
22.530026
 20
35.144865
 30
0.0
 10
22.168807
 20
35.010765
 30
0.0
 10
21.959131
 20
35.206877
 30
0.0
 10
21.990136
 20
35.492519
 30
0.0
 10
21.948668
 20
35.582048
 30
0.0
 10
21.955643
 20
35.802190
 30
0.0
  0
LWPOLYLINE
  5
111
100
AcDbEntity
  8
Layer_1
 62
7
100
AcDbPolyline
 90
4
 70
1
 10
19.953432
 20
35.768084
 30
0.0
 10
20.111564
 20
35.471978
 30
0.0
 10
19.922426
 20
35.482440
 30
0.0
 10
19.839875
 20
35.661499
 30
0.0
  0
LWPOLYLINE
  5
112
100
AcDbEntity
  8
Layer_1
 62
7
100
AcDbPolyline
 90
4
 70
1
 10
25.899969
 20
35.706846
 30
0.0
 10
25.794936
 20
35.663826
 30
0.0
 10
25.855011
 20
35.544841
 30
0.0
 10
25.955005
 20
35.634371
 30
0.0
  0
LWPOLYLINE
  5
113
100
AcDbEntity
  8
Layer_1
 62
7
100
AcDbPolyline
 90
7
 70
1
 10
16.798975
 20
35.668866
 30
0.0
 10
16.871065
 20
35.582825
 30
0.0
 10
16.785023
 20
35.510734
 30
0.0
 10
16.891606
 20
35.115023
 30
0.0
 10
16.792000
 20
35.166570
 30
0.0
 10
16.719527
 20
35.252612
 30
0.0
 10
16.716002
 20
35.565770
 30
0.0
  0
LWPOLYLINE
  5
114
100
AcDbEntity
  8
Layer_1
 62
7
100
AcDbPolyline
 90
14
 70
1
 10
18.308960
 20
35.616929
 30
0.0
 10
18.635684
 20
35.214240
 30
0.0
 10
18.694207
 20
35.252220
 30
0.0
 10
18.976360
 20
35.252220
 30
0.0
 10
19.117437
 20
35.111143
 30
0.0
 10
19.017443
 20
34.880537
 30
0.0
 10
18.556618
 20
35.080137
 30
0.0
 10
18.405465
 20
35.032077
 30
0.0
 10
18.329500
 20
34.866971
 30
0.0
 10
18.243459
 20
34.794881
 30
0.0
 10
18.064788
 20
34.994481
 30
0.0
 10
18.109361
 20
35.156099
 30
0.0
 10
18.071763
 20
35.214622
 30
0.0
 10
18.095793
 20
35.561887
 30
0.0
  0
LWPOLYLINE
  5
115
100
AcDbEntity
  8
Layer_1
 62
7
100
AcDbPolyline
 90
5
 70
1
 10
19.441061
 20
35.585923
 30
0.0
 10
19.640274
 20
35.482442
 30
0.0
 10
19.746856
 20
35.368882
 30
0.0
 10
19.667791
 20
35.234783
 30
0.0
 10
19.399591
 20
35.393299
 30
0.0
  0
LWPOLYLINE
  5
116
100
AcDbEntity
  8
Layer_1
 62
7
100
AcDbPolyline
 90
7
 70
1
 10
27.779700
 20
35.570421
 30
0.0
 10
27.944807
 20
35.494844
 30
0.0
 10
27.986274
 20
35.405315
 30
0.0
 10
27.968829
 20
35.278191
 30
0.0
 10
27.786670
 20
35.226644
 30
0.0
 10
27.714580
 20
35.312685
 30
0.0
 10
27.728155
 20
35.470814
 30
0.0
  0
LWPOLYLINE
  5
117
100
AcDbEntity
  8
Layer_1
 62
7
100
AcDbPolyline
 90
3
 70
1
 10
28.849790
 20
35.532441
 30
0.0
 10
28.894363
 20
35.411906
 30
0.0
 10
28.829248
 20
35.435935
 30
0.0
  0
LWPOLYLINE
  5
118
100
AcDbEntity
  8
Layer_1
 62
7
100
AcDbPolyline
 90
18
 70
1
 10
20.827411
 20
35.520036
 30
0.0
 10
21.047553
 20
35.231294
 30
0.0
 10
21.305288
 20
35.165797
 30
0.0
 10
21.962225
 20
34.047647
 30
0.0
 10
21.955250
 20
33.827506
 30
0.0
 10
21.714568
 20
33.737977
 30
0.0
 10
21.642095
 20
33.824017
 30
0.0
 10
21.542490
 20
33.875565
 30
0.0
 10
21.463424
 20
34.023618
 30
0.0
 10
21.270801
 20
34.065085
 30
0.0
 10
21.043683
 20
34.415840
 30
0.0
 10
21.136699
 20
34.708070
 30
0.0
 10
21.129724
 20
34.770080
 30
0.0
 10
20.978183
 20
35.004174
 30
0.0
 10
20.909581
 20
35.059209
 30
0.0
 10
20.723935
 20
35.320821
 30
0.0
 10
20.747965
 20
35.385936
 30
0.0
 10
20.709985
 20
35.444458
 30
0.0
  0
LWPOLYLINE
  5
119
100
AcDbEntity
  8
Layer_1
 62
7
100
AcDbPolyline
 90
9
 70
1
 10
17.669077
 20
35.451824
 30
0.0
 10
17.765582
 20
35.431281
 30
0.0
 10
17.806667
 20
35.341751
 30
0.0
 10
17.786125
 20
35.245633
 30
0.0
 10
17.727602
 20
35.207653
 30
0.0
 10
17.658617
 20
34.980536
 30
0.0
 10
17.417935
 20
34.891393
 30
0.0
 10
17.421460
 20
35.142542
 30
0.0
 10
17.504013
 20
35.245636
 30
0.0
  0
LWPOLYLINE
  5
11a
100
AcDbEntity
  8
Layer_1
 62
7
100
AcDbPolyline
 90
6
 70
1
 10
28.357959
 20
35.446424
 30
0.0
 10
28.485084
 20
35.429369
 30
0.0
 10
28.471134
 20
35.271238
 30
0.0
 10
28.416099
 20
35.202253
 30
0.0
 10
28.392069
 20
35.137138
 30
0.0
 10
28.271923
 20
35.374333
 30
0.0
  0
LWPOLYLINE
  5
11b
100
AcDbEntity
  8
Layer_1
 62
7
100
AcDbPolyline
 90
7
 70
1
 10
14.617712
 20
35.270077
 30
0.0
 10
14.727783
 20
35.125513
 30
0.0
 10
14.645230
 20
35.022419
 30
0.0
 10
14.621200
 20
34.957304
 30
0.0
 10
14.459194
 20
35.001876
 30
0.0
 10
14.473144
 20
35.160006
 30
0.0
 10
14.555697
 20
35.263488
 30
0.0
  0
LWPOLYLINE
  5
11c
100
AcDbEntity
  8
Layer_1
 62
7
100
AcDbPolyline
 90
4
 70
1
 10
15.185119
 20
35.239072
 30
0.0
 10
15.195582
 20
35.146443
 30
0.0
 10
14.958387
 20
35.025908
 30
0.0
 10
14.975442
 20
35.153032
 30
0.0
  0
LWPOLYLINE
  5
11d
100
AcDbEntity
  8
Layer_1
 62
7
100
AcDbPolyline
 90
16
 70
1
 10
22.588931
 20
35.163496
 30
0.0
 10
22.654045
 20
35.158846
 30
0.0
 10
22.654045
 20
35.158449
 30
0.0
 10
22.722648
 20
35.103414
 30
0.0
 10
22.798225
 20
34.986755
 30
0.0
 10
22.863722
 20
34.962334
 30
0.0
 10
23.001310
 20
34.852264
 30
0.0
 10
23.059833
 20
34.608093
 30
0.0
 10
22.880775
 20
34.525540
 30
0.0
 10
22.839690
 20
34.615069
 30
0.0
 10
22.739695
 20
34.666616
 30
0.0
 10
22.702097
 20
34.725139
 30
0.0
 10
22.619543
 20
34.904198
 30
0.0
 10
22.681553
 20
34.911172
 30
0.0
 10
22.581561
 20
34.962720
 30
0.0
 10
22.588911
 20
35.163483
 30
0.0
  0
LWPOLYLINE
  5
11e
100
AcDbEntity
  8
Layer_1
 62
7
100
AcDbPolyline
 90
4
 70
1
 10
15.697879
 20
35.139466
 30
0.0
 10
15.742451
 20
35.018931
 30
0.0
 10
15.553316
 20
35.029393
 30
0.0
 10
15.515336
 20
35.087526
 30
0.0
  0
LWPOLYLINE
  5
11f
100
AcDbEntity
  8
Layer_1
 62
7
100
AcDbPolyline
 90
3
 70
1
 10
16.988111
 20
35.094511
 30
0.0
 10
17.097794
 20
34.949946
 30
0.0
 10
16.967181
 20
34.998006
 30
0.0
  0
LWPOLYLINE
  5
120
100
AcDbEntity
  8
Layer_1
 62
7
100
AcDbPolyline
 90
13
 70
1
 10
16.334274
 20
35.053043
 30
0.0
 10
16.282726
 20
34.953437
 30
0.0
 10
16.286251
 20
34.640278
 30
0.0
 10
15.928522
 20
34.475172
 30
0.0
 10
15.832016
 20
34.496105
 30
0.0
 10
15.949063
 20
34.571681
 30
0.0
 10
15.883565
 20
34.877864
 30
0.0
 10
15.914570
 20
34.881314
 30
0.0
 10
15.911045
 20
34.912319
 30
0.0
 10
15.904070
 20
34.974329
 30
0.0
 10
16.004064
 20
34.922392
 30
0.0
 10
16.121111
 20
34.998356
 30
0.0
 10
16.158709
 20
34.939834
 30
0.0
  0
LWPOLYLINE
  5
121
100
AcDbEntity
  8
Layer_1
 62
7
100
AcDbPolyline
 90
23
 70
1
 10
30.689986
 20
35.047268
 30
0.0
 10
30.776029
 20
34.837204
 30
0.0
 10
30.783004
 20
34.775194
 30
0.0
 10
30.882998
 20
34.723646
 30
0.0
 10
30.325669
 20
34.379869
 30
0.0
 10
29.978015
 20
34.403899
 30
0.0
 10
29.912517
 20
34.427929
 30
0.0
 10
29.836942
 20
34.544976
 30
0.0
 10
29.747411
 20
34.503891
 30
0.0
 10
29.816404
 20
34.448856
 30
0.0
 10
29.860976
 20
34.328321
 30
0.0
 10
29.816404
 20
33.884549
 30
0.0
 10
29.386191
 20
34.087634
 30
0.0
 10
28.962962
 20
33.946558
 30
0.0
 10
28.708326
 20
33.981050
 30
0.0
 10
28.787779
 20
34.115151
 30
0.0
 10
29.293560
 20
34.359322
 30
0.0
 10
29.348595
 20
34.428307
 30
0.0
 10
29.554783
 20
34.544967
 30
0.0
 10
29.634236
 20
34.679067
 30
0.0
 10
29.823373
 20
34.668994
 30
0.0
 10
30.518291
 20
34.902701
 30
0.0
 10
30.573326
 20
34.971304
 30
0.0
  0
LWPOLYLINE
  5
122
100
AcDbEntity
  8
Layer_1
 62
7
100
AcDbPolyline
 90
4
 70
1
 10
14.899866
 20
34.987973
 30
0.0
 10
14.913434
 20
34.864337
 30
0.0
 10
14.796386
 20
34.788761
 30
0.0
 10
14.720809
 20
34.905421
 30
0.0
  0
LWPOLYLINE
  5
123
100
AcDbEntity
  8
Layer_1
 62
7
100
AcDbPolyline
 90
5
 70
1
 10
28.701736
 20
34.889142
 30
0.0
 10
28.770338
 20
34.834107
 30
0.0
 10
28.742821
 20
34.517848
 30
0.0
 10
28.519192
 20
34.555445
 30
0.0
 10
28.467644
 20
34.737992
 30
0.0
  0
LWPOLYLINE
  5
124
100
AcDbEntity
  8
Layer_1
 62
7
100
AcDbPolyline
 90
4
 70
1
 10
15.384720
 20
34.853870
 30
0.0
 10
15.549826
 20
34.496140
 30
0.0
 10
15.223102
 20
34.334522
 30
0.0
 10
15.271162
 20
34.747287
 30
0.0
  0
LWPOLYLINE
  5
125
100
AcDbEntity
  8
Layer_1
 62
7
100
AcDbPolyline
 90
5
 70
1
 10
19.932506
 20
34.825580
 30
0.0
 10
20.042575
 20
34.681015
 30
0.0
 10
19.922426
 20
34.636442
 30
0.0
 10
19.763910
 20
34.650010
 30
0.0
 10
19.726312
 20
34.708532
 30
0.0
  0
LWPOLYLINE
  5
126
100
AcDbEntity
  8
Layer_1
 62
7
100
AcDbPolyline
 90
8
 70
1
 10
17.331888
 20
34.818979
 30
0.0
 10
17.428393
 20
34.798437
 30
0.0
 10
17.548541
 20
34.561243
 30
0.0
 10
17.527999
 20
34.464737
 30
0.0
 10
16.891605
 20
34.268618
 30
0.0
 10
16.740064
 20
34.502713
 30
0.0
 10
17.091205
 20
34.729831
 30
0.0
 10
17.180347
 20
34.770916
 30
0.0
  0
LWPOLYLINE
  5
127
100
AcDbEntity
  8
Layer_1
 62
7
100
AcDbPolyline
 90
71
 70
1
 10
20.328218
 20
34.649998
 30
0.0
 10
20.397202
 20
34.594963
 30
0.0
 10
20.548357
 20
34.360868
 30
0.0
 10
20.431310
 20
34.285291
 30
0.0
 10
20.386738
 20
34.123674
 30
0.0
 10
20.427823
 20
34.034144
 30
0.0
 10
20.651453
 20
33.996164
 30
0.0
 10
20.751060
 20
33.662464
 30
0.0
 10
21.067706
 20
33.634946
 30
0.0
 10
21.181265
 20
33.459376
 30
0.0
 10
21.081271
 20
33.229157
 30
0.0
 10
21.122739
 20
33.139628
 30
0.0
 10
21.256839
 20
33.060563
 30
0.0
 10
21.325824
 20
33.287681
 30
0.0
 10
21.721149
 20
33.394263
 30
0.0
 10
22.364519
 20
33.810129
 30
0.0
 10
22.557145
 20
33.769044
 30
0.0
 10
22.646674
 20
33.527974
 30
0.0
 10
21.858738
 20
33.002037
 30
0.0
 10
21.728124
 20
33.050097
 30
0.0
 10
21.669601
 20
33.012117
 30
0.0
 10
21.604104
 20
33.036147
 30
0.0
 10
21.459930
 20
32.926068
 30
0.0
 10
21.625036
 20
32.850491
 30
0.0
 10
21.714179
 20
32.891959
 30
0.0
 10
21.659143
 20
32.822974
 30
0.0
 10
21.731616
 20
32.736933
 30
0.0
 10
21.566510
 20
32.530744
 30
0.0
 10
21.373498
 20
32.571829
 30
0.0
 10
21.291333
 20
32.750888
 30
0.0
 10
20.998714
 20
32.843905
 30
0.0
 10
20.699509
 20
32.716394
 30
0.0
 10
20.734001
 20
32.688876
 30
0.0
 10
20.874690
 20
32.547799
 30
0.0
 10
20.881665
 20
32.486179
 30
0.0
 10
20.919645
 20
32.427657
 30
0.0
 10
20.840579
 20
32.293556
 30
0.0
 10
20.585942
 20
32.327659
 30
0.0
 10
20.279761
 20
32.262544
 30
0.0
 10
19.963113
 20
32.290061
 30
0.0
 10
19.894510
 20
32.345096
 30
0.0
 10
19.977064
 20
32.730344
 30
0.0
 10
19.901488
 20
32.847392
 30
0.0
 10
19.753434
 20
32.768327
 30
0.0
 10
19.663904
 20
32.727242
 30
0.0
 10
19.351132
 20
32.723342
 30
0.0
 10
19.144556
 20
32.606682
 30
0.0
 10
19.017433
 20
32.623737
 30
0.0
 10
19.058518
 20
33.098514
 30
0.0
 10
19.220524
 20
33.053942
 30
0.0
 10
19.402683
 20
33.105489
 30
0.0
 10
19.499188
 20
33.366713
 30
0.0
 10
19.708866
 20
33.452755
 30
0.0
 10
19.997995
 20
33.108590
 30
0.0
 10
20.286737
 20
33.046579
 30
0.0
 10
20.396809
 20
32.902015
 30
0.0
 10
20.451844
 20
32.971000
 30
0.0
 10
20.744462
 20
33.160135
 30
0.0
 10
20.668498
 20
33.277183
 30
0.0
 10
20.455333
 20
33.222148
 30
0.0
 10
20.441758
 20
33.064018
 30
0.0
 10
20.372773
 20
33.119053
 30
0.0
 10
20.365798
 20
33.180680
 30
0.0
 10
20.252243
 20
33.356251
 30
0.0
 10
20.018538
 20
33.487251
 30
0.0
 10
19.942969
 20
33.603910
 30
0.0
 10
19.963511
 20
33.700416
 30
0.0
 10
20.328218
 20
33.803510
 30
0.0
 10
20.135592
 20
34.127134
 30
0.0
 10
20.242175
 20
34.295341
 30
0.0
 10
20.204577
 20
34.636018
 30
0.0
  0
LWPOLYLINE
  5
128
100
AcDbEntity
  8
Layer_1
 62
7
100
AcDbPolyline
 90
3
 70
1
 10
28.219984
 20
34.428306
 30
0.0
 10
28.226959
 20
34.366296
 30
0.0
 10
28.130455
 20
34.387221
 30
0.0
  0
LWPOLYLINE
  5
129
100
AcDbEntity
  8
Layer_1
 62
7
100
AcDbPolyline
 90
9
 70
1
 10
18.877530
 20
34.412731
 30
0.0
 10
18.945353
 20
34.402659
 30
0.0
 10
19.175571
 20
34.302665
 30
0.0
 10
19.406177
 20
33.920906
 30
0.0
 10
19.337191
 20
33.693787
 30
0.0
 10
19.282156
 20
33.906953
 30
0.0
 10
18.951944
 20
34.058494
 30
0.0
 10
18.831797
 20
34.295689
 30
0.0
 10
18.877531
 20
34.412736
 30
0.0
  0
LWPOLYLINE
  5
12a
100
AcDbEntity
  8
Layer_1
 62
7
100
AcDbPolyline
 90
8
 70
1
 10
15.161090
 20
34.327466
 30
0.0
 10
15.257208
 20
34.306923
 30
0.0
 10
15.456809
 20
33.921675
 30
0.0
 10
15.305267
 20
33.873225
 30
0.0
 10
15.147137
 20
33.887175
 30
0.0
 10
15.102565
 20
34.007711
 30
0.0
 10
15.006059
 20
34.028253
 30
0.0
 10
15.044039
 20
34.251883
 30
0.0
  0
LWPOLYLINE
  5
12b
100
AcDbEntity
  8
Layer_1
 62
7
100
AcDbPolyline
 90
6
 70
1
 10
28.357572
 20
34.318165
 30
0.0
 10
28.429662
 20
34.232125
 30
0.0
 10
28.564149
 20
34.153059
 30
0.0
 10
28.508724
 20
34.084074
 30
0.0
 10
28.443609
 20
34.108104
 30
0.0
 10
28.302532
 20
34.249181
 30
0.0
  0
LWPOLYLINE
  5
12c
100
AcDbEntity
  8
Layer_1
 62
7
100
AcDbPolyline
 90
7
 70
1
 10
16.268774
 20
34.230961
 30
0.0
 10
16.303267
 20
34.203444
 30
0.0
 10
16.505968
 20
34.069344
 30
0.0
 10
16.278850
 20
33.856178
 30
0.0
 10
15.897090
 20
33.907726
 30
0.0
 10
15.938557
 20
34.100350
 30
0.0
 10
15.993593
 20
34.168952
 30
0.0
  0
LWPOLYLINE
  5
12d
100
AcDbEntity
  8
Layer_1
 62
7
100
AcDbPolyline
 90
3
 70
1
 10
14.077435
 20
34.207321
 30
0.0
 10
14.084411
 20
34.145311
 30
0.0
 10
13.994882
 20
34.104226
 30
0.0
  0
LWPOLYLINE
  5
12e
100
AcDbEntity
  8
Layer_1
 62
7
100
AcDbPolyline
 90
5
 70
1
 10
17.655124
 20
34.165464
 30
0.0
 10
17.693104
 20
34.106941
 30
0.0
 10
17.675666
 20
33.979430
 30
0.0
 10
17.569083
 20
34.092989
 30
0.0
 10
17.507073
 20
34.086014
 30
0.0
  0
LWPOLYLINE
  5
12f
100
AcDbEntity
  8
Layer_1
 62
7
100
AcDbPolyline
 90
4
 70
1
 10
30.903152
 20
33.973616
 30
0.0
 10
31.006635
 20
33.891062
 30
0.0
 10
30.951210
 20
33.822460
 30
0.0
 10
30.913612
 20
33.880982
 30
0.0
  0
LWPOLYLINE
  5
130
100
AcDbEntity
  8
Layer_1
 62
7
100
AcDbPolyline
 90
8
 70
1
 10
17.307471
 20
33.907338
 30
0.0
 10
17.372968
 20
33.883308
 30
0.0
 10
17.552027
 20
33.683707
 30
0.0
 10
17.531102
 20
33.587590
 30
0.0
 10
17.410954
 20
33.542635
 30
0.0
 10
17.314448
 20
33.563560
 30
0.0
 10
17.269876
 20
33.683707
 30
0.0
 10
17.307473
 20
33.907337
 30
0.0
  0
LWPOLYLINE
  5
131
100
AcDbEntity
  8
Layer_1
 62
7
100
AcDbPolyline
 90
7
 70
1
 10
15.649432
 20
33.880211
 30
0.0
 10
15.725009
 20
33.763163
 30
0.0
 10
15.676949
 20
33.632551
 30
0.0
 10
15.656407
 20
33.536045
 30
0.0
 10
15.535871
 20
33.491473
 30
0.0
 10
15.432776
 20
33.856179
 30
0.0
 10
15.528895
 20
33.835636
 30
0.0
  0
LWPOLYLINE
  5
132
100
AcDbEntity
  8
Layer_1
 62
7
100
AcDbPolyline
 90
7
 70
1
 10
15.123108
 20
33.821688
 30
0.0
 10
15.119583
 20
33.570540
 30
0.0
 10
15.030053
 20
33.529455
 30
0.0
 10
14.933935
 20
33.549998
 30
0.0
 10
14.895955
 20
33.608520
 30
0.0
 10
14.975020
 20
33.742621
 30
0.0
 10
15.040517
 20
33.718591
 30
0.0
  0
LWPOLYLINE
  5
133
100
AcDbEntity
  8
Layer_1
 62
7
100
AcDbPolyline
 90
5
 70
1
 10
31.667059
 20
33.588369
 30
0.0
 10
31.735661
 20
33.533334
 30
0.0
 10
31.680626
 20
33.464349
 30
0.0
 10
31.615129
 20
33.488379
 30
0.0
 10
31.577531
 20
33.546902
 30
0.0
  0
LWPOLYLINE
  5
134
100
AcDbEntity
  8
Layer_1
 62
7
100
AcDbPolyline
 90
4
 70
1
 10
13.881323
 20
33.433340
 30
0.0
 10
13.898378
 20
33.278310
 30
0.0
 10
13.746838
 20
33.230250
 30
0.0
 10
13.702265
 20
33.350786
 30
0.0
  0
LWPOLYLINE
  5
135
100
AcDbEntity
  8
Layer_1
 62
7
100
AcDbPolyline
 90
3
 70
1
 10
14.325094
 20
33.388377
 30
0.0
 10
14.472760
 20
33.185676
 30
0.0
 10
14.280137
 20
33.226761
 30
0.0
  0
LWPOLYLINE
  5
136
100
AcDbEntity
  8
Layer_1
 62
7
100
AcDbPolyline
 90
5
 70
1
 10
15.487814
 20
33.360860
 30
0.0
 10
15.590908
 20
33.278306
 30
0.0
 10
15.539361
 20
33.178313
 30
0.0
 10
15.411849
 20
33.195750
 30
0.0
 10
15.432781
 20
33.291868
 30
0.0
  0
LWPOLYLINE
  5
137
100
AcDbEntity
  8
Layer_1
 62
7
100
AcDbPolyline
 90
3
 70
1
 10
18.205478
 20
33.160873
 30
0.0
 10
18.319036
 20
32.985301
 30
0.0
 10
18.191525
 20
33.002356
 30
0.0
  0
LWPOLYLINE
  5
138
100
AcDbEntity
  8
Layer_1
 62
7
100
AcDbPolyline
 90
3
 70
1
 10
15.222714
 20
32.924065
 30
0.0
 10
15.263799
 20
32.834536
 30
0.0
 10
15.233184
 20
32.831086
 30
0.0
  0
LWPOLYLINE
  5
139
100
AcDbEntity
  8
Layer_1
 62
7
100
AcDbPolyline
 90
4
 70
1
 10
15.762992
 20
32.858568
 30
0.0
 10
15.831594
 20
32.803533
 30
0.0
 10
15.900579
 20
32.748498
 30
0.0
 10
15.738574
 20
32.793070
 30
0.0
  0
LWPOLYLINE
  5
13a
100
AcDbEntity
  8
Layer_1
 62
7
100
AcDbPolyline
 90
3
 70
1
 10
13.870859
 20
32.679896
 30
0.0
 10
13.880938
 20
32.586879
 30
0.0
 10
13.753814
 20
32.604316
 30
0.0
  0
LWPOLYLINE
  5
13b
100
AcDbEntity
  8
Layer_1
 62
7
100
AcDbPolyline
 90
5
 70
1
 10
19.302698
 20
32.310927
 30
0.0
 10
19.350758
 20
32.159386
 30
0.0
 10
19.261229
 20
32.118301
 30
0.0
 10
19.099610
 20
32.162873
 30
0.0
 10
19.120153
 20
32.259379
 30
0.0
  0
LWPOLYLINE
  5
13c
100
AcDbEntity
  8
Layer_1
 62
7
100
AcDbPolyline
 90
8
 70
1
 10
19.636398
 20
32.128380
 30
0.0
 10
19.701513
 20
32.104350
 30
0.0
 10
19.846078
 20
31.932267
 30
0.0
 10
20.104202
 20
31.866770
 30
0.0
 10
20.000718
 20
31.667169
 30
0.0
 10
19.777475
 20
31.705149
 30
0.0
 10
19.646475
 20
31.753209
 30
0.0
 10
19.495321
 20
31.987303
 30
0.0
  0
LWPOLYLINE
  5
13d
100
AcDbEntity
  8
Layer_1
 62
7
100
AcDbPolyline
 90
7
 70
1
 10
20.389453
 20
32.102025
 30
0.0
 10
20.454950
 20
32.093888
 30
0.0
 10
20.551457
 20
32.073345
 30
0.0
 10
20.658039
 20
31.959786
 30
0.0
 10
20.413867
 20
31.901263
 30
0.0
 10
20.375888
 20
31.959786
 30
0.0
 10
20.389463
 20
32.102025
 30
0.0
  0
LWPOLYLINE
  5
13e
100
AcDbEntity
  8
Layer_1
 62
7
100
AcDbPolyline
 90
3
 70
1
 10
13.763888
 20
31.665229
 30
0.0
 10
13.770863
 20
31.603219
 30
0.0
 10
13.705366
 20
31.627250
 30
0.0
  0
LWPOLYLINE
  5
13f
100
AcDbEntity
  8
Layer_1
 62
7
100
AcDbPolyline
 90
5
 70
1
 10
14.940173
 20
31.513301
 30
0.0
 10
15.074661
 20
31.434236
 30
0.0
 10
15.050241
 20
31.369121
 30
0.0
 10
14.933582
 20
31.293157
 30
0.0
 10
14.857617
 20
31.410203
 30
0.0
  0
LWPOLYLINE
  5
140
100
AcDbEntity
  8
Layer_1
 62
7
100
AcDbPolyline
 90
4
 70
1
 10
30.737659
 20
31.228435
 30
0.0
 10
30.840754
 20
31.145882
 30
0.0
 10
30.662082
 20
31.063329
 30
0.0
 10
30.620607
 20
31.152859
 30
0.0
  0
LWPOLYLINE
  5
141
100
AcDbEntity
  8
Layer_1
 62
7
100
AcDbPolyline
 90
4
 70
1
 10
16.164905
 20
31.210607
 30
0.0
 10
16.233890
 20
31.155572
 30
0.0
 10
16.058320
 20
31.042013
 30
0.0
 10
16.013747
 20
31.162549
 30
0.0
  0
LWPOLYLINE
  5
142
100
AcDbEntity
  8
Layer_1
 62
7
100
AcDbPolyline
 90
3
 70
1
 10
18.958532
 20
31.175725
 30
0.0
 10
18.968612
 20
31.082707
 30
0.0
 10
18.810482
 20
31.096657
 30
0.0
  0
LWPOLYLINE
  5
143
100
AcDbEntity
  8
Layer_1
 62
7
100
AcDbPolyline
 90
5
 70
1
 10
18.181061
 20
30.838536
 30
0.0
 10
18.349267
 20
30.731953
 30
0.0
 10
18.266714
 20
30.628858
 30
0.0
 10
18.046573
 20
30.635834
 30
0.0
 10
17.998513
 20
30.786987
 30
0.0
  0
LWPOLYLINE
  5
144
100
AcDbEntity
  8
Layer_1
 62
7
100
AcDbPolyline
 90
4
 70
1
 10
30.331481
 20
30.650563
 30
0.0
 10
30.314434
 20
30.523438
 30
0.0
 10
30.224904
 20
30.481971
 30
0.0
 10
30.152814
 20
30.568013
 30
0.0
  0
LWPOLYLINE
  5
145
100
AcDbEntity
  8
Layer_1
 62
7
100
AcDbPolyline
 90
5
 70
1
 10
15.022726
 20
29.924250
 30
0.0
 10
15.063811
 20
29.834721
 30
0.0
 10
15.043269
 20
29.738215
 30
0.0
 10
14.922734
 20
29.693643
 30
0.0
 10
14.967689
 20
29.855260
 30
0.0
  0
LWPOLYLINE
  5
146
100
AcDbEntity
  8
Layer_1
 62
7
100
AcDbPolyline
 90
5
 70
1
 10
29.758648
 20
29.176622
 30
0.0
 10
29.476495
 20
29.035545
 30
0.0
 10
29.531531
 20
28.963455
 30
0.0
 10
29.724155
 20
28.921988
 30
0.0
 10
29.853217
 20
29.030120
 30
0.0
  0
LWPOLYLINE
  5
147
100
AcDbEntity
  8
Layer_1
 62
7
100
AcDbPolyline
 90
8
 70
1
 10
28.688171
 20
29.096782
 30
0.0
 10
28.578488
 20
28.935938
 30
0.0
 10
28.668017
 20
28.836332
 30
0.0
 10
28.795142
 20
28.818895
 30
0.0
 10
28.869167
 20
28.858427
 30
0.0
 10
28.908700
 20
28.925477
 30
0.0
 10
28.829634
 20
29.073530
 30
0.0
 10
28.688171
 20
29.096788
 30
0.0
  0
LWPOLYLINE
  5
148
100
AcDbEntity
  8
Layer_1
 62
7
100
AcDbPolyline
 90
5
 70
1
 10
30.338071
 20
28.331712
 30
0.0
 10
30.403187
 20
28.307682
 30
0.0
 10
30.592710
 20
28.015451
 30
0.0
 10
30.200487
 20
28.160016
 30
0.0
 10
30.221030
 20
28.256135
 30
0.0
  0
LWPOLYLINE
  5
149
100
AcDbEntity
  8
Layer_1
 62
7
100
AcDbPolyline
 90
51
 70
1
 10
23.139674
 20
26.723283
 30
0.0
 10
22.888139
 20
26.690725
 30
0.0
 10
22.826128
 20
26.683750
 30
0.0
 10
22.497466
 20
26.678725
 30
0.0
 10
22.409874
 20
26.480676
 30
0.0
 10
22.136246
 20
26.544628
 30
0.0
 10
22.079659
 20
26.632220
 30
0.0
 10
22.014161
 20
26.656250
 30
0.0
 10
21.701003
 20
26.512073
 30
0.0
 10
21.635505
 20
26.253950
 30
0.0
 10
21.783557
 20
26.191940
 30
0.0
 10
21.819602
 20
26.289996
 30
0.0
 10
21.893627
 20
26.188451
 30
0.0
 10
22.002147
 20
26.059390
 30
0.0
 10
22.679627
 20
25.883819
 30
0.0
 10
22.733109
 20
25.827232
 30
0.0
 10
23.009836
 20
25.732276
 30
0.0
 10
23.214475
 20
25.582673
 30
0.0
 10
23.532671
 20
25.539653
 30
0.0
 10
23.613676
 20
25.376097
 30
0.0
 10
23.491588
 20
25.347027
 30
0.0
 10
23.582670
 20
25.231918
 30
0.0
 10
23.630730
 20
25.221455
 30
0.0
 10
23.668710
 20
25.304009
 30
0.0
 10
23.782270
 20
25.410591
 30
0.0
 10
23.929935
 20
25.348581
 30
0.0
 10
23.974890
 20
25.228433
 30
0.0
 10
23.950860
 20
25.162936
 30
0.0
 10
24.027987
 20
25.030386
 30
0.0
 10
24.081470
 20
25.114877
 30
0.0
 10
24.539193
 20
25.369125
 30
0.0
 10
24.827936
 20
25.307115
 30
0.0
 10
24.929480
 20
25.381140
 30
0.0
 10
24.969013
 20
25.448190
 30
0.0
 10
25.222100
 20
25.570276
 30
0.0
 10
25.289150
 20
25.671820
 30
0.0
 10
25.464333
 20
25.785379
 30
0.0
 10
25.526343
 20
25.792354
 30
0.0
 10
25.564323
 20
25.874906
 30
0.0
 10
25.524791
 20
25.948931
 30
0.0
 10
25.131015
 20
25.967921
 30
0.0
 10
25.072492
 20
25.929941
 30
0.0
 10
24.925990
 20
25.976449
 30
0.0
 10
24.824833
 20
26.184575
 30
0.0
 10
24.642286
 20
26.274104
 30
0.0
 10
24.668251
 20
26.605866
 30
0.0
 10
24.367106
 20
26.635319
 30
0.0
 10
24.305485
 20
26.628343
 30
0.0
 10
23.861714
 20
26.673299
 30
0.0
 10
23.713659
 20
26.594234
 30
0.0
 10
23.139674
 20
26.723283
 30
0.0
  0
LWPOLYLINE
  5
14a
100
AcDbEntity
  8
Layer_1
 62
7
100
AcDbPolyline
 90
6
 70
1
 10
27.016181
 20
26.490352
 30
0.0
 10
26.916574
 20
26.400822
 30
0.0
 10
26.906119
 20
26.352762
 30
0.0
 10
26.858060
 20
26.362842
 30
0.0
 10
26.897592
 20
26.289200
 30
0.0
 10
27.133237
 20
26.424851
 30
0.0
  0
LWPOLYLINE
  5
14b
100
AcDbEntity
  8
Layer_1
 62
7
100
AcDbPolyline
 90
6
 70
1
 10
32.398411
 20
26.429114
 30
0.0
 10
32.504993
 20
26.315555
 30
0.0
 10
32.484451
 20
26.219050
 30
0.0
 10
32.246870
 20
26.098902
 30
0.0
 10
32.174779
 20
26.184943
 30
0.0
 10
32.229815
 20
26.253545
 30
0.0
  0
LWPOLYLINE
  5
14c
100
AcDbEntity
  8
Layer_1
 62
7
100
AcDbPolyline
 90
7
 70
1
 10
31.693027
 20
26.288038
 30
0.0
 10
31.727519
 20
26.260520
 30
0.0
 10
31.816661
 20
26.019838
 30
0.0
 10
31.668996
 20
25.940773
 30
0.0
 10
31.445366
 20
25.978753
 30
0.0
 10
31.369788
 20
26.095412
 30
0.0
 10
31.417848
 20
26.226412
 30
0.0
  0
LWPOLYLINE
  5
14d
100
AcDbEntity
  8
Layer_1
 62
7
100
AcDbPolyline
 90
22
 70
1
 10
30.440776
 20
25.710553
 30
0.0
 10
30.729519
 20
25.648544
 30
0.0
 10
30.850054
 20
25.693116
 30
0.0
 10
31.011674
 20
25.648544
 30
0.0
 10
31.159726
 20
25.445456
 30
0.0
 10
31.352349
 20
25.403988
 30
0.0
 10
31.410872
 20
25.441968
 30
0.0
 10
31.569000
 20
25.428018
 30
0.0
 10
31.751160
 20
25.197799
 30
0.0
 10
31.703100
 20
25.066800
 30
0.0
 10
31.159723
 20
25.163305
 30
0.0
 10
30.712463
 20
24.957117
 30
0.0
 10
30.361322
 20
25.012152
 30
0.0
 10
30.055138
 20
24.946655
 30
0.0
 10
29.955533
 20
24.998592
 30
0.0
 10
29.621832
 20
24.898598
 30
0.0
 10
29.370686
 20
24.902123
 30
0.0
 10
29.040472
 20
24.771510
 30
0.0
 10
28.912960
 20
24.788947
 30
0.0
 10
28.981945
 20
25.016065
 30
0.0
 10
29.036980
 20
25.084668
 30
0.0
 10
30.440770
 20
25.710599
 30
0.0
  0
LWPOLYLINE
  5
14e
100
AcDbEntity
  8
Layer_1
 62
7
100
AcDbPolyline
 90
5
 70
1
 10
19.657328
 20
25.297788
 30
0.0
 10
19.554233
 20
25.239266
 30
0.0
 10
19.533690
 20
25.143148
 30
0.0
 10
19.650349
 20
25.077650
 30
0.0
 10
19.750343
 20
25.167179
 30
0.0
  0
LWPOLYLINE
  5
14f
100
AcDbEntity
  8
Layer_1
 62
7
100
AcDbPolyline
 90
108
 70
1
 10
29.928018
 20
24.681934
 30
0.0
 10
29.934993
 20
24.619924
 30
0.0
 10
30.351245
 20
24.540859
 30
0.0
 10
30.526428
 20
24.372265
 30
0.0
 10
30.464418
 20
24.083134
 30
0.0
 10
30.261719
 20
23.935468
 30
0.0
 10
30.010572
 20
23.938994
 30
0.0
 10
29.831512
 20
23.856442
 30
0.0
 10
30.041189
 20
23.378175
 30
0.0
 10
30.343883
 20
23.192527
 30
0.0
 10
30.818661
 20
23.433210
 30
0.0
 10
31.035702
 20
23.739393
 30
0.0
 10
30.997722
 20
23.797525
 30
0.0
 10
31.049660
 20
24.179672
 30
0.0
 10
31.221355
 20
24.323850
 30
0.0
 10
31.413979
 20
24.282765
 30
0.0
 10
31.593037
 20
24.083165
 30
0.0
 10
31.627147
 20
23.491340
 30
0.0
 10
31.568624
 20
23.453750
 30
0.0
 10
31.548082
 20
23.357244
 30
0.0
 10
30.688057
 20
22.916961
 30
0.0
 10
30.664028
 20
22.851846
 30
0.0
 10
30.275293
 20
22.683252
 30
0.0
 10
30.319865
 20
22.562717
 30
0.0
 10
30.966724
 20
22.383657
 30
0.0
 10
31.055866
 20
22.425132
 30
0.0
 10
31.379490
 20
22.335601
 30
0.0
 10
31.448093
 20
22.280566
 30
0.0
 10
31.809310
 20
22.132514
 30
0.0
 10
31.871320
 20
22.139488
 30
0.0
 10
32.205020
 20
22.239096
 30
0.0
 10
32.277110
 20
22.153054
 30
0.0
 10
32.507717
 20
22.335601
 30
0.0
 10
32.470119
 20
22.393741
 30
0.0
 10
32.428644
 20
22.483270
 30
0.0
 10
32.442594
 20
22.641787
 30
0.0
 10
32.642195
 20
22.820459
 30
0.0
 10
32.707310
 20
22.796429
 30
0.0
 10
32.899933
 20
22.754953
 30
0.0
 10
32.992951
 20
22.483265
 30
0.0
 10
32.927453
 20
22.225141
 30
0.0
 10
32.965433
 20
22.166619
 30
0.0
 10
33.030548
 20
22.142589
 30
0.0
 10
33.213097
 20
21.912370
 30
0.0
 10
32.810408
 20
21.585257
 30
0.0
 10
33.037526
 20
21.516655
 30
0.0
 10
33.144108
 20
21.403095
 30
0.0
 10
33.140583
 20
21.151948
 30
0.0
 10
32.741382
 20
21.076372
 30
0.0
 10
32.620847
 20
20.749648
 30
0.0
 10
32.703401
 20
20.570588
 30
0.0
 10
32.651854
 20
20.470983
 30
0.0
 10
32.627824
 20
20.405486
 30
0.0
 10
32.307688
 20
20.181857
 30
0.0
 10
32.252654
 20
20.113254
 30
0.0
 10
31.870896
 20
19.882649
 30
0.0
 10
31.853848
 20
19.755524
 30
0.0
 10
32.018954
 20
19.679947
 30
0.0
 10
32.080582
 20
19.686547
 30
0.0
 10
32.146079
 20
19.662517
 30
0.0
 10
32.235610
 20
19.703985
 30
0.0
 10
32.276695
 20
19.614455
 30
0.0
 10
32.111589
 20
19.407881
 30
0.0
 10
32.056554
 20
19.339278
 30
0.0
 10
31.757348
 20
19.212155
 30
0.0
 10
31.571312
 20
18.909461
 30
0.0
 10
31.375201
 20
18.981551
 30
0.0
 10
31.396133
 20
19.078057
 30
0.0
 10
31.196533
 20
19.181152
 30
0.0
 10
30.848878
 20
18.923029
 30
0.0
 10
30.776788
 20
19.009069
 30
0.0
 10
30.869805
 20
19.019524
 30
0.0
 10
30.780276
 20
19.260206
 30
0.0
 10
30.477581
 20
19.164087
 30
0.0
 10
30.284958
 20
19.205562
 30
0.0
 10
30.239995
 20
19.325710
 30
0.0
 10
30.143878
 20
19.346636
 30
0.0
 10
30.105899
 20
19.123006
 30
0.0
 10
30.081868
 20
19.057508
 30
0.0
 10
30.016371
 20
19.081538
 30
0.0
 10
29.951256
 20
19.105568
 30
0.0
 10
29.851261
 20
19.157116
 30
0.0
 10
29.813664
 20
19.215638
 30
0.0
 10
29.817189
 20
19.466785
 30
0.0
 10
29.693166
 20
19.735374
 30
0.0
 10
29.552476
 20
19.876451
 30
0.0
 10
29.438918
 20
20.051633
 30
0.0
 10
29.476897
 20
20.275263
 30
0.0
 10
29.397445
 20
20.423315
 30
0.0
 10
29.146685
 20
20.991110
 30
0.0
 10
29.232726
 20
21.063200
 30
0.0
 10
29.136220
 20
21.083743
 30
0.0
 10
28.988554
 20
21.286831
 30
0.0
 10
29.081185
 20
21.579450
 30
0.0
 10
28.992043
 20
21.820132
 30
0.0
 10
28.895537
 20
21.840675
 30
0.0
 10
28.999020
 20
22.322430
 30
0.0
 10
28.885460
 20
22.497999
 30
0.0
 10
28.816475
 20
22.553034
 30
0.0
 10
28.459132
 20
23.234000
 30
0.0
 10
28.517655
 20
23.271980
 30
0.0
 10
28.665320
 20
23.351045
 30
0.0
 10
28.720355
 20
23.420030
 30
0.0
 10
28.940497
 20
23.695207
 30
0.0
 10
29.233115
 20
24.166107
 30
0.0
 10
29.614873
 20
24.114560
 30
0.0
 10
29.704405
 20
24.156027
 30
0.0
 10
29.841993
 20
24.609875
 30
0.0
  0
LWPOLYLINE
  5
150
100
AcDbEntity
  8
Layer_1
 62
7
100
AcDbPolyline
 90
3
 70
1
 10
28.599805
 20
23.938956
 30
0.0
 10
28.493222
 20
23.770361
 30
0.0
 10
28.455242
 20
23.828884
 30
0.0
  0
LWPOLYLINE
  5
151
100
AcDbEntity
  8
Layer_1
 62
7
100
AcDbPolyline
 90
4
 70
1
 10
28.355633
 20
23.316513
 30
0.0
 10
28.424236
 20
23.261478
 30
0.0
 10
28.362226
 20
23.254503
 30
0.0
 10
28.334708
 20
23.220011
 30
0.0
  0
LWPOLYLINE
  5
152
100
AcDbEntity
  8
Layer_1
 62
7
100
AcDbPolyline
 90
5
 70
1
 10
32.394146
 20
21.946443
 30
0.0
 10
32.275161
 20
21.886368
 30
0.0
 10
32.359654
 20
21.691806
 30
0.0
 10
32.536773
 20
21.789862
 30
0.0
 10
32.447244
 20
21.889856
 30
0.0
  0
LWPOLYLINE
  5
153
100
AcDbEntity
  8
Layer_1
 62
7
100
AcDbPolyline
 90
5
 70
1
 10
33.508807
 20
21.787925
 30
0.0
 10
33.735538
 20
21.719323
 30
0.0
 10
33.694453
 20
21.526697
 30
0.0
 10
33.532836
 20
21.571270
 30
0.0
 10
33.422764
 20
21.715835
 30
0.0
  0
LWPOLYLINE
  5
154
100
AcDbEntity
  8
Layer_1
 62
7
100
AcDbPolyline
 90
5
 70
1
 10
16.624179
 20
21.701882
 30
0.0
 10
16.471087
 20
21.668942
 30
0.0
 10
16.589685
 20
21.447250
 30
0.0
 10
16.643168
 20
21.531353
 30
0.0
 10
16.667198
 20
21.596851
 30
0.0
  0
LWPOLYLINE
  5
155
100
AcDbEntity
  8
Layer_1
 62
7
100
AcDbPolyline
 90
4
 70
1
 10
17.124924
 20
21.569334
 30
0.0
 10
17.040433
 20
21.340278
 30
0.0
 10
17.167557
 20
21.323231
 30
0.0
 10
17.241582
 20
21.503840
 30
0.0
  0
LWPOLYLINE
  5
156
100
AcDbEntity
  8
Layer_1
 62
7
100
AcDbPolyline
 90
8
 70
1
 10
15.419989
 20
21.254624
 30
0.0
 10
15.457969
 20
21.196102
 30
0.0
 10
15.674622
 20
20.938365
 30
0.0
 10
15.592069
 20
20.834882
 30
0.0
 10
15.492075
 20
20.886820
 30
0.0
 10
15.454477
 20
20.945342
 30
0.0
 10
15.227360
 20
21.013945
 30
0.0
 10
15.182787
 20
21.134480
 30
0.0
  0
LWPOLYLINE
  5
157
100
AcDbEntity
  8
Layer_1
 62
7
100
AcDbPolyline
 90
4
 70
1
 10
32.271674
 20
20.929838
 30
0.0
 10
32.018976
 20
20.807751
 30
0.0
 10
32.161603
 20
20.510095
 30
0.0
 10
32.288726
 20
20.634120
 30
0.0
  0
LWPOLYLINE
  5
158
100
AcDbEntity
  8
Layer_1
 62
7
100
AcDbPolyline
 90
7
 70
1
 10
28.912189
 20
20.557380
 30
0.0
 10
29.094736
 20
20.044620
 30
0.0
 10
29.005207
 20
20.003535
 30
0.0
 10
28.843589
 20
20.048108
 30
0.0
 10
28.664529
 20
20.247708
 30
0.0
 10
28.692047
 20
20.282201
 30
0.0
 10
28.857155
 20
20.488389
 30
0.0
  0
LWPOLYLINE
  5
159
100
AcDbEntity
  8
Layer_1
 62
7
100
AcDbPolyline
 90
4
 70
1
 10
16.596661
 20
20.539162
 30
0.0
 10
16.699756
 20
20.456221
 30
0.0
 10
16.768358
 20
20.401187
 30
0.0
 10
16.575735
 20
20.442654
 30
0.0
  0
LWPOLYLINE
  5
15a
100
AcDbEntity
  8
Layer_1
 62
7
100
AcDbPolyline
 90
4
 70
1
 10
18.395389
 20
19.296602
 30
0.0
 10
18.409339
 20
19.172966
 30
0.0
 10
18.384919
 20
19.107468
 30
0.0
 10
18.309342
 20
19.224514
 30
0.0
  0
LWPOLYLINE
  5
15b
100
AcDbEntity
  8
Layer_1
 62
7
100
AcDbPolyline
 90
3
 70
1
 10
16.372644
 20
19.166378
 30
0.0
 10
16.348614
 20
19.100880
 30
0.0
 10
16.283116
 20
19.125300
 30
0.0
  0
LWPOLYLINE
  5
15c
100
AcDbEntity
  8
Layer_1
 62
7
100
AcDbPolyline
 90
5
 70
1
 10
29.077295
 20
18.788882
 30
0.0
 10
29.090870
 20
18.665245
 30
0.0
 10
28.650587
 20
18.397046
 30
0.0
 10
28.423469
 20
18.465648
 30
0.0
 10
28.502535
 20
18.600135
 30
0.0
  0
LWPOLYLINE
  5
15d
100
AcDbEntity
  8
Layer_1
 62
7
100
AcDbPolyline
 90
5
 70
1
 10
30.040415
 20
18.582304
 30
0.0
 10
30.136532
 20
18.561762
 30
0.0
 10
30.036927
 20
18.331156
 30
0.0
 10
29.971429
 20
18.355576
 30
0.0
 10
29.888875
 20
18.534247
 30
0.0
  0
LWPOLYLINE
  5
15e
100
AcDbEntity
  8
Layer_1
 62
7
100
AcDbPolyline
 90
26
 70
1
 10
29.985380
 20
18.231550
 30
0.0
 10
30.026465
 20
18.142021
 30
0.0
 10
30.253583
 20
18.073419
 30
0.0
 10
30.322185
 20
18.018384
 30
0.0
 10
30.745415
 20
17.876921
 30
0.0
 10
30.724872
 20
17.780803
 30
0.0
 10
30.673324
 20
17.681197
 30
0.0
 10
30.370244
 20
17.584691
 30
0.0
 10
30.305129
 20
17.326954
 30
0.0
 10
30.188082
 20
17.250991
 30
0.0
 10
30.164052
 20
17.185876
 30
0.0
 10
29.898953
 20
17.030847
 30
0.0
 10
29.675322
 20
17.068827
 30
0.0
 10
29.730357
 20
17.137812
 30
0.0
 10
29.809421
 20
17.271914
 30
0.0
 10
29.957474
 20
17.350978
 30
0.0
 10
30.040026
 20
17.454072
 30
0.0
 10
30.122580
 20
17.557168
 30
0.0
 10
30.205133
 20
17.660649
 30
0.0
 10
30.074521
 20
17.708709
 30
0.0
 10
29.926468
 20
17.629643
 30
0.0
 10
29.699737
 20
17.698246
 30
0.0
 10
29.716785
 20
17.825758
 30
0.0
 10
29.837320
 20
17.870330
 30
0.0
 10
29.830345
 20
17.932340
 30
0.0
 10
29.895842
 20
18.190463
 30
0.0
  0
LWPOLYLINE
  5
15f
100
AcDbEntity
  8
Layer_1
 62
7
100
AcDbPolyline
 90
7
 70
1
 10
20.344883
 20
18.122252
 30
0.0
 10
20.292563
 20
18.018381
 30
0.0
 10
20.272021
 20
17.921877
 30
0.0
 10
20.351087
 20
17.914902
 30
0.0
 10
20.478212
 20
18.038925
 30
0.0
 10
20.423177
 20
18.111015
 30
0.0
 10
20.344887
 20
18.122250
 30
0.0
  0
LWPOLYLINE
  5
160
100
AcDbEntity
  8
Layer_1
 62
7
100
AcDbPolyline
 90
3
 70
1
 10
16.547829
 20
17.869553
 30
0.0
 10
16.561397
 20
17.745530
 30
0.0
 10
16.434273
 20
17.762975
 30
0.0
  0
LWPOLYLINE
  5
161
100
AcDbEntity
  8
Layer_1
 62
7
100
AcDbPolyline
 90
5
 70
1
 10
15.997474
 20
17.463764
 30
0.0
 10
16.031577
 20
17.436247
 30
0.0
 10
16.100569
 20
17.380822
 30
0.0
 10
15.924998
 20
17.267651
 30
0.0
 10
15.942436
 20
17.394776
 30
0.0
  0
LWPOLYLINE
  5
162
100
AcDbEntity
  8
Layer_1
 62
7
100
AcDbPolyline
 90
11
 70
1
 10
29.214498
 20
16.704121
 30
0.0
 10
29.376116
 20
16.659549
 30
0.0
 10
29.513704
 20
16.267326
 30
0.0
 10
29.396656
 20
16.191749
 30
0.0
 10
29.128069
 20
16.067725
 30
0.0
 10
28.880409
 20
16.040598
 30
0.0
 10
29.028463
 20
16.119661
 30
0.0
 10
29.083498
 20
16.188264
 30
0.0
 10
29.100545
 20
16.315387
 30
0.0
 10
29.062948
 20
16.373909
 30
0.0
 10
29.131940
 20
16.601027
 30
0.0
  0
LWPOLYLINE
  5
163
100
AcDbEntity
  8
Layer_1
 62
7
100
AcDbPolyline
 90
6
 70
1
 10
20.287136
 20
16.654516
 30
0.0
 10
20.428211
 20
16.513439
 30
0.0
 10
20.345660
 20
16.409958
 30
0.0
 10
20.218148
 20
16.427403
 30
0.0
 10
20.177063
 20
16.516932
 30
0.0
 10
20.170088
 20
16.578552
 30
0.0
  0
LWPOLYLINE
  5
164
100
AcDbEntity
  8
Layer_1
 62
7
100
AcDbPolyline
 90
4
 70
1
 10
17.624119
 20
16.358797
 30
0.0
 10
17.693105
 20
16.303762
 30
0.0
 10
17.741165
 20
16.152608
 30
0.0
 10
17.417929
 20
16.242137
 30
0.0
  0
LWPOLYLINE
  5
165
100
AcDbEntity
  8
Layer_1
 62
7
100
AcDbPolyline
 90
6
 70
1
 10
18.088819
 20
15.846425
 30
0.0
 10
18.071382
 20
15.718913
 30
0.0
 10
18.136879
 20
15.694883
 30
0.0
 10
18.119435
 20
15.567761
 30
0.0
 10
18.060912
 20
15.529781
 30
0.0
 10
18.088819
 20
15.846428
 30
0.0
  0
LWPOLYLINE
  5
166
100
AcDbEntity
  8
Layer_1
 62
7
100
AcDbPolyline
 90
11
 70
1
 10
19.984053
 20
15.429784
 30
0.0
 10
20.080558
 20
15.408851
 30
0.0
 10
20.173189
 20
15.137163
 30
0.0
 10
20.427824
 20
15.102671
 30
0.0
 10
20.520842
 20
14.830982
 30
0.0
 10
20.276284
 20
14.772460
 30
0.0
 10
20.111178
 20
15.130578
 30
0.0
 10
20.022036
 20
15.089110
 30
0.0
 10
19.956539
 20
15.113141
 30
0.0
 10
19.884449
 20
15.199181
 30
0.0
 10
19.929021
 20
15.360801
 30
0.0
  0
LWPOLYLINE
  5
167
100
AcDbEntity
  8
Layer_1
 62
7
100
AcDbPolyline
 90
3
 70
1
 10
16.021117
 20
15.272042
 30
0.0
 10
16.007167
 20
15.113913
 30
0.0
 10
15.935077
 20
15.199954
 30
0.0
  0
LWPOLYLINE
  5
168
100
AcDbEntity
  8
Layer_1
 62
7
100
AcDbPolyline
 90
8
 70
1
 10
19.523228
 20
15.065078
 30
0.0
 10
19.595318
 20
14.979037
 30
0.0
 10
19.657328
 20
14.986012
 30
0.0
 10
19.629811
 20
14.669752
 30
0.0
 10
19.402693
 20
14.738354
 30
0.0
 10
19.254641
 20
14.941441
 30
0.0
 10
19.309676
 20
15.010043
 30
0.0
 10
19.371686
 20
15.017018
 30
0.0
  0
LWPOLYLINE
  5
169
100
AcDbEntity
  8
Layer_1
 62
7
100
AcDbPolyline
 90
5
 70
1
 10
20.489449
 20
14.263189
 30
0.0
 10
20.558434
 20
14.208154
 30
0.0
 10
20.534405
 20
14.143040
 30
0.0
 10
20.393327
 20
14.001962
 30
0.0
 10
20.345267
 20
14.153503
 30
0.0
  0
LWPOLYLINE
  5
16a
100
AcDbEntity
  8
Layer_1
 62
7
100
AcDbPolyline
 90
23
 70
1
 10
23.131535
 20
13.898094
 30
0.0
 10
23.327647
 20
13.826004
 30
0.0
 10
23.396632
 20
13.770969
 30
0.0
 10
23.950473
 20
13.581446
 30
0.0
 10
24.177204
 20
13.512843
 30
0.0
 10
24.256270
 20
13.364789
 30
0.0
 10
24.356262
 20
13.313242
 30
0.0
 10
24.634928
 20
13.062093
 30
0.0
 10
24.331846
 20
12.965587
 30
0.0
 10
24.122170
 20
12.879933
 30
0.0
 10
23.977604
 20
12.769864
 30
0.0
 10
23.905513
 20
12.855905
 30
0.0
 10
24.019074
 20
12.962487
 30
0.0
 10
23.912491
 20
13.076045
 30
0.0
 10
23.922571
 20
12.983027
 30
0.0
 10
23.791957
 20
13.031087
 30
0.0
 10
23.575305
 20
13.289210
 30
0.0
 10
23.255170
 20
13.347733
 30
0.0
 10
23.179593
 20
13.182625
 30
0.0
 10
23.131533
 20
13.334167
 30
0.0
 10
23.000921
 20
13.382227
 30
0.0
 10
22.887362
 20
13.557799
 30
0.0
 10
22.900937
 20
13.715928
 30
0.0
  0
LWPOLYLINE
  5
16b
100
AcDbEntity
  8
Layer_1
 62
7
100
AcDbPolyline
 90
3
 70
1
 10
23.537324
 20
12.501281
 30
0.0
 10
23.550899
 20
12.377644
 30
0.0
 10
23.430751
 20
12.333072
 30
0.0
  0
LWPOLYLINE
  5
16c
100
AcDbEntity
  8
Layer_1
 62
7
100
AcDbPolyline
 90
49
 70
1
 10
25.831758
 20
12.442368
 30
0.0
 10
25.931753
 20
12.390821
 30
0.0
 10
25.990275
 20
12.428800
 30
0.0
 10
27.232059
 20
12.253229
 30
0.0
 10
27.300662
 20
12.197803
 30
0.0
 10
27.400656
 20
12.146256
 30
0.0
 10
27.544832
 20
11.974173
 30
0.0
 10
27.493285
 20
11.874567
 30
0.0
 10
27.538240
 20
11.754030
 30
0.0
 10
27.324688
 20
11.698995
 30
0.0
 10
27.197563
 20
11.716440
 30
0.0
 10
26.746816
 20
11.540870
 30
0.0
 10
26.585198
 20
11.585825
 30
0.0
 10
26.516206
 20
11.640860
 30
0.0
 10
26.303040
 20
11.585825
 30
0.0
 10
25.982905
 20
11.644348
 30
0.0
 10
25.711216
 20
11.551717
 30
0.0
 10
25.167839
 20
11.647836
 30
0.0
 10
24.930256
 20
11.527688
 30
0.0
 10
24.101237
 20
11.373046
 30
0.0
 10
23.815594
 20
11.404051
 30
0.0
 10
23.698548
 20
11.328474
 30
0.0
 10
23.795054
 20
11.307549
 30
0.0
 10
23.612894
 20
11.256002
 30
0.0
 10
23.481894
 20
11.304451
 30
0.0
 10
23.437321
 20
11.424599
 30
0.0
 10
23.310196
 20
11.442044
 30
0.0
 10
23.251674
 20
11.404064
 30
0.0
 10
22.577296
 20
11.548630
 30
0.0
 10
22.604813
 20
11.583122
 30
0.0
 10
22.505207
 20
11.634670
 30
0.0
 10
22.443197
 20
11.627695
 30
0.0
 10
22.453652
 20
11.816829
 30
0.0
 10
22.676895
 20
11.779232
 30
0.0
 10
22.976490
 20
11.906354
 30
0.0
 10
23.083073
 20
12.074949
 30
0.0
 10
23.200119
 20
12.150526
 30
0.0
 10
23.351273
 20
11.916431
 30
0.0
 10
23.619862
 20
11.758302
 30
0.0
 10
23.767527
 20
11.837368
 30
0.0
 10
23.843491
 20
12.002474
 30
0.0
 10
23.957051
 20
12.109057
 30
0.0
 10
24.084174
 20
12.092009
 30
0.0
 10
24.445391
 20
12.226109
 30
0.0
 10
24.634529
 20
12.215654
 30
0.0
 10
24.703513
 20
12.160619
 30
0.0
 10
24.868621
 20
12.085043
 30
0.0
 10
25.432928
 20
12.366810
 30
0.0
 10
25.498043
 20
12.342780
 30
0.0
  0
LWPOLYLINE
  5
16d
100
AcDbEntity
  8
Layer_1
 62
7
100
AcDbPolyline
 90
4
 70
1
 10
20.973914
 20
11.308327
 30
0.0
 10
21.042907
 20
11.253293
 30
0.0
 10
20.960354
 20
11.149809
 30
0.0
 10
20.888264
 20
11.235852
 30
0.0
  0
LWPOLYLINE
  5
16e
100
AcDbEntity
  8
Layer_1
 62
7
100
AcDbPolyline
 90
4
 70
1
 10
16.515660
 20
11.095550
 30
0.0
 10
16.580775
 20
11.071520
 30
0.0
 10
16.556745
 20
11.006405
 30
0.0
 10
16.426133
 20
11.054465
 30
0.0
  0
LWPOLYLINE
  5
16f
100
AcDbEntity
  8
Layer_1
 62
7
100
AcDbPolyline
 90
6
 70
1
 10
21.747124
 20
10.857191
 30
0.0
 10
21.840916
 20
10.840144
 30
0.0
 10
21.978505
 20
10.730073
 30
0.0
 10
21.923470
 20
10.661081
 30
0.0
 10
21.699841
 20
10.699061
 30
0.0
 10
21.747121
 20
10.857189
 30
0.0
  0
LWPOLYLINE
  5
170
100
AcDbEntity
  8
Layer_1
 62
7
100
AcDbPolyline
 90
3
 70
1
 10
17.926039
 20
10.813399
 30
0.0
 10
17.929564
 20
10.782394
 30
0.0
 10
17.836547
 20
10.771939
 30
0.0
  0
LWPOLYLINE
  5
171
100
AcDbEntity
  8
Layer_1
 62
7
100
AcDbPolyline
 90
11
 70
1
 10
17.179573
 20
10.479698
 30
0.0
 10
17.157095
 20
10.399083
 30
0.0
 10
17.359796
 20
10.123906
 30
0.0
 10
17.471805
 20
10.104916
 30
0.0
 10
17.528392
 20
10.016936
 30
0.0
 10
17.662881
 20
10.078946
 30
0.0
 10
17.655906
 20
10.140956
 30
0.0
 10
17.600871
 20
10.213046
 30
0.0
 10
17.548934
 20
10.254514
 30
0.0
 10
17.382277
 20
10.345595
 30
0.0
 10
17.328794
 20
10.402183
 30
0.0
  0
LWPOLYLINE
  5
172
100
AcDbEntity
  8
Layer_1
 62
7
100
AcDbPolyline
 90
3
 70
1
 10
24.892281
 20
10.457603
 30
0.0
 10
24.930261
 20
10.399081
 30
0.0
 10
24.864764
 20
10.423501
 30
0.0
  0
LWPOLYLINE
  5
173
100
AcDbEntity
  8
Layer_1
 62
7
100
AcDbPolyline
 90
3
 70
1
 10
18.679094
 20
9.956471
 30
0.0
 10
18.686068
 20
9.894844
 30
0.0
 10
18.562432
 20
9.880894
 30
0.0
  0
LWPOLYLINE
  5
174
100
AcDbEntity
  8
Layer_1
 62
7
100
AcDbPolyline
 90
6
 70
1
 10
19.078295
 20
9.750283
 30
0.0
 10
19.146897
 20
9.695248
 30
0.0
 10
19.387967
 20
9.502237
 30
0.0
 10
19.267433
 20
9.457665
 30
0.0
 10
19.122868
 20
9.629748
 30
0.0
 10
19.054265
 20
9.684783
 30
0.0
  0
LWPOLYLINE
  5
175
100
AcDbEntity
  8
Layer_1
 62
7
100
AcDbPolyline
 90
132
 70
1
 10
13.362365
 20
9.429371
 30
0.0
 10
12.154686
 20
9.013506
 30
0.0
 10
11.838038
 20
8.758871
 30
0.0
 10
9.495158
 20
7.840708
 30
0.0
 10
8.896745
 20
7.868616
 30
0.0
 10
8.686681
 20
7.641499
 30
0.0
 10
8.556068
 20
7.266327
 30
0.0
 10
8.229344
 20
7.104709
 30
0.0
 10
8.167334
 20
7.097735
 30
0.0
 10
7.969284
 20
7.044635
 30
0.0
 10
7.898747
 20
6.691944
 30
0.0
 10
7.792164
 20
6.241197
 30
0.0
 10
7.591013
 20
6.501257
 30
0.0
 10
7.511948
 20
6.648922
 30
0.0
 10
7.809604
 20
6.791939
 30
0.0
 10
7.747594
 20
6.926038
 30
0.0
 10
7.685585
 20
6.919064
 30
0.0
 10
7.499937
 20
6.757446
 30
0.0
 10
7.461954
 20
6.674892
 30
0.0
 10
7.093760
 20
6.602802
 30
0.0
 10
6.935630
 20
6.616377
 30
0.0
 10
6.765098
 20
6.315622
 30
0.0
 10
6.575962
 20
6.043931
 30
0.0
 10
6.343806
 20
6.017966
 30
0.0
 10
5.335721
 20
6.062907
 30
0.0
 10
4.940009
 20
5.815247
 30
0.0
 10
4.809396
 20
5.440464
 30
0.0
 10
4.616773
 20
5.340858
 30
0.0
 10
4.637314
 20
5.295896
 30
0.0
 10
4.412134
 20
5.208305
 30
0.0
 10
4.375702
 20
5.110250
 30
0.0
 10
3.863331
 20
4.787013
 30
0.0
 10
3.821860
 20
4.735466
 30
0.0
 10
2.827735
 20
4.374248
 30
0.0
 10
1.953757
 20
4.340145
 30
0.0
 10
1.762683
 20
4.225036
 30
0.0
 10
1.719663
 20
4.047914
 30
0.0
 10
1.799115
 20
4.040939
 30
0.0
 10
2.741693
 20
3.878935
 30
0.0
 10
2.731229
 20
3.830875
 30
0.0
 10
3.295536
 20
3.830478
 30
0.0
 10
4.772965
 20
3.085561
 30
0.0
 10
4.826063
 20
3.028591
 30
0.0
 10
5.011710
 20
2.908443
 30
0.0
 10
5.132246
 20
2.811937
 30
0.0
 10
5.238828
 20
2.698379
 30
0.0
 10
5.390369
 20
2.605362
 30
0.0
 10
5.441917
 20
2.564277
 30
0.0
 10
5.620588
 20
2.364677
 30
0.0
 10
5.672135
 20
2.323591
 30
0.0
 10
5.804685
 20
2.259639
 30
0.0
 10
5.926771
 20
2.148018
 30
0.0
 10
6.112418
 20
2.027483
 30
0.0
 10
6.163966
 20
1.986016
 30
0.0
 10
6.220939
 20
1.898424
 30
0.0
 10
6.387595
 20
1.807343
 30
0.0
 10
7.196073
 20
0.737254
 30
0.0
 10
7.030967
 20
0.671757
 30
0.0
 10
6.841443
 20
0.682212
 30
0.0
 10
6.810438
 20
0.537649
 30
0.0
 10
7.465824
 20
0.281462
 30
0.0
 10
7.559617
 20
0.000083
 30
0.0
 10
8.579322
 20
0.000083
 30
0.0
 10
8.561495
 20
0.010936
 30
0.0
 10
8.411891
 20
0.229526
 30
0.0
 10
8.344841
 20
0.269059
 30
0.0
 10
7.971995
 20
0.807398
 30
0.0
 10
7.904945
 20
0.847321
 30
0.0
 10
7.780922
 20
1.115523
 30
0.0
 10
7.787897
 20
1.194586
 30
0.0
 10
8.489792
 20
0.943440
 30
0.0
 10
8.613428
 20
0.815928
 30
0.0
 10
8.664975
 20
0.774843
 30
0.0
 10
9.642047
 20
0.162090
 30
0.0
 10
9.765683
 20
0.034965
 30
0.0
 10
9.855212
 20
0.000082
 30
0.0
 10
12.925180
 20
0.000082
 30
0.0
 10
12.939131
 20
0.104729
 30
0.0
 10
13.087183
 20
0.184181
 30
0.0
 10
13.180201
 20
0.476410
 30
0.0
 10
13.317789
 20
0.366340
 30
0.0
 10
13.214307
 20
0.166740
 30
0.0
 10
13.135242
 20
0.032640
 30
0.0
 10
13.084857
 20
0.000082
 30
0.0
 10
15.267675
 20
0.000082
 30
0.0
 10
15.175433
 20
0.008220
 30
0.0
 10
15.137453
 20
0.066743
 30
0.0
 10
15.254500
 20
0.142320
 30
0.0
 10
15.330464
 20
0.000079
 30
0.0
 10
15.711448
 20
0.000079
 30
0.0
 10
15.557195
 20
0.238439
 30
0.0
 10
15.574250
 20
0.365949
 30
0.0
 10
15.722302
 20
0.445014
 30
0.0
 10
15.801368
 20
0.296962
 30
0.0
 10
16.035462
 20
0.166348
 30
0.0
 10
15.942444
 20
0.000079
 30
0.0
 10
19.206974
 20
0.000079
 30
0.0
 10
19.217436
 20
0.017922
 30
0.0
 10
19.642603
 20
0.425261
 30
0.0
 10
19.683688
 20
0.476809
 30
0.0
 10
20.074363
 20
0.770977
 30
0.0
 10
20.110408
 20
0.869032
 30
0.0
 10
20.360004
 20
1.022123
 30
0.0
 10
20.399536
 20
1.089173
 30
0.0
 10
20.501081
 20
1.163198
 30
0.0
 10
20.540613
 20
1.230248
 30
0.0
 10
21.333586
 20
1.851141
 30
0.0
 10
21.404124
 20
1.921678
 30
0.0
 10
22.021915
 20
2.429012
 30
0.0
 10
22.061448
 20
2.496061
 30
0.0
 10
22.216090
 20
2.654191
 30
0.0
 10
22.226546
 20
2.843327
 30
0.0
 10
21.168858
 20
3.337095
 30
0.0
 10
21.115375
 20
3.394073
 30
0.0
 10
19.565858
 20
4.225030
 30
0.0
 10
19.512376
 20
4.282000
 30
0.0
 10
18.124476
 20
5.068386
 30
0.0
 10
18.071376
 20
5.124973
 30
0.0
 10
17.348944
 20
5.562179
 30
0.0
 10
17.293909
 20
5.634269
 30
0.0
 10
16.814093
 20
5.863325
 30
0.0
 10
16.760611
 20
5.919913
 30
0.0
 10
16.409857
 20
6.257102
 30
0.0
 10
16.040112
 20
6.341593
 30
0.0
 10
15.766486
 20
6.687308
 30
0.0
 10
15.343643
 20
6.969463
 30
0.0
 10
14.720813
 20
7.636864
 30
0.0
 10
14.669266
 20
7.678331
 30
0.0
 10
14.378586
 20
8.037612
 30
0.0
 10
14.311536
 20
8.077534
 30
0.0
 10
13.541428
 20
9.089101
 30
0.0
 10
13.477476
 20
9.379780
 30
0.0
  0
LWPOLYLINE
  5
176
100
AcDbEntity
  8
Layer_1
 62
7
100
AcDbPolyline
 90
20
 70
1
 10
9.087431
 20
7.419418
 30
0.0
 10
9.280055
 20
7.378333
 30
0.0
 10
9.455626
 20
7.209738
 30
0.0
 10
9.589726
 20
7.130285
 30
0.0
 10
9.634299
 20
7.010140
 30
0.0
 10
9.638199
 20
6.696979
 30
0.0
 10
9.803306
 20
6.621403
 30
0.0
 10
9.878882
 20
6.504356
 30
0.0
 10
9.968024
 20
5.981519
 30
0.0
 10
9.778888
 20
5.991599
 30
0.0
 10
9.620759
 20
6.287706
 30
0.0
 10
9.531229
 20
6.246239
 30
0.0
 10
9.465731
 20
6.270269
 30
0.0
 10
9.469631
 20
6.521415
 30
0.0
 10
9.314602
 20
6.786515
 30
0.0
 10
9.249487
 20
6.810545
 30
0.0
 10
8.647198
 20
7.151221
 30
0.0
 10
8.695648
 20
7.281835
 30
0.0
 10
8.754170
 20
7.319815
 30
0.0
 10
8.819285
 20
7.295785
 30
0.0
  0
LWPOLYLINE
  5
177
100
AcDbEntity
  8
Layer_1
 62
7
100
AcDbPolyline
 90
62
 70
1
 10
27.920777
 20
6.750078
 30
0.0
 10
27.819235
 20
6.676436
 30
0.0
 10
27.837827
 20
4.813372
 30
0.0
 10
27.280108
 20
3.482058
 30
0.0
 10
27.239023
 20
3.430511
 30
0.0
 10
26.877806
 20
3.014257
 30
0.0
 10
26.867351
 20
2.825121
 30
0.0
 10
27.025482
 20
2.670479
 30
0.0
 10
27.207641
 20
2.580950
 30
0.0
 10
27.259571
 20
2.539482
 30
0.0
 10
27.350652
 20
2.424372
 30
0.0
 10
27.551803
 20
2.305774
 30
0.0
 10
27.672338
 20
2.209270
 30
0.0
 10
27.821942
 20
2.131754
 30
0.0
 10
27.875042
 20
2.075167
 30
0.0
 10
28.361833
 20
1.784488
 30
0.0
 10
28.415315
 20
1.727510
 30
0.0
 10
28.834669
 20
1.476364
 30
0.0
 10
28.886606
 20
1.434889
 30
0.0
 10
29.928792
 20
0.657417
 30
0.0
 10
29.980339
 20
0.615949
 30
0.0
 10
30.422173
 20
0.163651
 30
0.0
 10
30.489223
 20
0.124118
 30
0.0
 10
30.657818
 20
0.017536
 30
0.0
 10
30.678742
 20
0.000091
 30
0.0
 10
34.126983
 20
0.000091
 30
0.0
 10
33.731658
 20
0.562072
 30
0.0
 10
33.565001
 20
0.653153
 30
0.0
 10
33.513453
 20
0.694620
 30
0.0
 10
33.440973
 20
0.921351
 30
0.0
 10
33.451428
 20
1.110875
 30
0.0
 10
32.980138
 20
1.967412
 30
0.0
 10
33.097574
 20
3.453367
 30
0.0
 10
32.973937
 20
4.004109
 30
0.0
 10
32.984392
 20
5.039316
 30
0.0
 10
32.925870
 20
5.283877
 30
0.0
 10
32.948348
 20
5.364492
 30
0.0
 10
33.301040
 20
5.435029
 30
0.0
 10
33.871935
 20
5.373019
 30
0.0
 10
34.092076
 20
5.224965
 30
0.0
 10
34.178118
 20
5.156363
 30
0.0
 10
35.323397
 20
4.719178
 30
0.0
 10
36.135363
 20
4.605621
 30
0.0
 10
36.217915
 20
4.567641
 30
0.0
 10
36.517123
 20
4.412611
 30
0.0
 10
36.575645
 20
4.450592
 30
0.0
 10
37.702320
 20
4.042864
 30
0.0
 10
37.824406
 20
3.930856
 30
0.0
 10
37.989512
 20
3.855279
 30
0.0
 10
38.051522
 20
4.002944
 30
0.0
 10
37.920911
 20
4.192468
 30
0.0
 10
37.865876
 20
4.264558
 30
0.0
 10
37.312035
 20
4.594770
 30
0.0
 10
36.778734
 20
4.598670
 30
0.0
 10
35.884214
 20
4.891288
 30
0.0
 10
35.801662
 20
4.928885
 30
0.0
 10
35.557490
 20
5.152516
 30
0.0
 10
33.084385
 20
5.975333
 30
0.0
 10
32.286371
 20
6.388099
 30
0.0
 10
30.652363
 20
6.426469
 30
0.0
 10
29.764432
 20
6.233846
 30
0.0
 10
27.920746
 20
6.750093
 30
0.0
  0
LWPOLYLINE
  5
178
100
AcDbEntity
  8
Layer_1
 62
7
100
AcDbPolyline
 90
3
 70
1
 10
7.167781
 20
6.360178
 30
0.0
 10
7.177858
 20
6.267550
 30
0.0
 10
6.957716
 20
6.274525
 30
0.0
  0
LWPOLYLINE
  5
179
100
AcDbEntity
  8
Layer_1
 62
7
100
AcDbPolyline
 90
4
 70
1
 10
8.863802
 20
6.047020
 30
0.0
 10
8.904886
 20
5.957491
 30
0.0
 10
8.763810
 20
5.816413
 30
0.0
 10
8.684745
 20
5.964466
 30
0.0
  0
LWPOLYLINE
  5
17a
100
AcDbEntity
  8
Layer_1
 62
7
100
AcDbPolyline
 90
4
 70
1
 10
10.253639
 20
5.950514
 30
0.0
 10
10.212172
 20
5.757504
 30
0.0
 10
10.050554
 20
5.802459
 30
0.0
 10
10.012574
 20
5.860981
 30
0.0
  0
LWPOLYLINE
  5
17b
100
AcDbEntity
  8
Layer_1
 62
7
100
AcDbPolyline
 90
9
 70
1
 10
5.450832
 20
5.731147
 30
0.0
 10
5.684926
 20
5.600149
 30
0.0
 10
5.781044
 20
5.579606
 30
0.0
 10
5.888014
 20
5.466047
 30
0.0
 10
5.244643
 20
5.331947
 30
0.0
 10
4.965978
 20
5.300942
 30
0.0
 10
4.924507
 20
5.108318
 30
0.0
 10
4.931482
 20
5.328461
 30
0.0
 10
4.883423
 20
5.480002
 30
0.0
  0
LWPOLYLINE
  5
17c
100
AcDbEntity
  8
Layer_1
 62
7
100
AcDbPolyline
 90
7
 70
1
 10
9.568797
 20
5.623790
 30
0.0
 10
9.668404
 20
5.290090
 30
0.0
 10
9.579262
 20
5.248615
 30
0.0
 10
9.517252
 20
5.241640
 30
0.0
 10
9.472679
 20
5.362174
 30
0.0
 10
9.410669
 20
5.355199
 30
0.0
 10
9.482759
 20
5.551312
 30
0.0
  0
LWPOLYLINE
  5
17d
100
AcDbEntity
  8
Layer_1
 62
7
100
AcDbPolyline
 90
6
 70
1
 10
10.470292
 20
5.410238
 30
0.0
 10
10.538895
 20
5.355203
 30
0.0
 10
10.524945
 20
5.196685
 30
0.0
 10
10.435803
 20
5.155600
 30
0.0
 10
10.432278
 20
5.186605
 30
0.0
 10
10.425303
 20
5.248615
 30
0.0
  0
LWPOLYLINE
  5
17e
100
AcDbEntity
  8
Layer_1
 62
7
100
AcDbPolyline
 90
10
 70
1
 10
10.229222
 20
5.038555
 30
0.0
 10
10.390840
 20
4.711829
 30
0.0
 10
10.487346
 20
4.691287
 30
0.0
 10
10.600517
 20
4.515715
 30
0.0
 10
10.483858
 20
4.440138
 30
0.0
 10
10.356346
 20
4.457186
 30
0.0
 10
10.211782
 20
4.629269
 30
0.0
 10
10.204807
 20
4.691278
 30
0.0
 10
10.081171
 20
4.959479
 30
0.0
 10
10.139693
 20
4.997459
 30
0.0
  0
LWPOLYLINE
  5
17f
100
AcDbEntity
  8
Layer_1
 62
7
100
AcDbPolyline
 90
4
 70
1
 10
11.391942
 20
4.728883
 30
0.0
 10
11.460927
 20
4.673848
 30
0.0
 10
11.405892
 20
4.604855
 30
0.0
 10
11.340395
 20
4.628885
 30
0.0
  0
LWPOLYLINE
  5
180
100
AcDbEntity
  8
Layer_1
 62
7
100
AcDbPolyline
 90
5
 70
1
 10
6.668587
 20
4.643617
 30
0.0
 10
6.806175
 20
4.533547
 30
0.0
 10
6.751140
 20
4.464944
 30
0.0
 10
6.624016
 20
4.481992
 30
0.0
 10
6.668587
 20
4.643609
 30
0.0
  0
LWPOLYLINE
  5
181
100
AcDbEntity
  8
Layer_1
 62
7
100
AcDbPolyline
 90
5
 70
1
 10
8.047960
 20
4.640092
 30
0.0
 10
8.130513
 20
4.461031
 30
0.0
 10
8.134038
 20
4.430026
 30
0.0
 10
8.006915
 20
4.447471
 30
0.0
 10
7.965829
 20
4.536614
 30
0.0
  0
LWPOLYLINE
  5
182
100
AcDbEntity
  8
Layer_1
 62
7
100
AcDbPolyline
 90
10
 70
1
 10
11.378377
 20
4.570327
 30
0.0
 10
11.336909
 20
4.377704
 30
0.0
 10
11.443492
 20
3.982378
 30
0.0
 10
11.236916
 20
3.865332
 30
0.0
 10
11.106303
 20
3.913392
 30
0.0
 10
11.027238
 20
4.061444
 30
0.0
 10
11.047781
 20
4.157563
 30
0.0
 10
11.096231
 20
4.288562
 30
0.0
 10
11.209789
 20
4.395145
 30
0.0
 10
11.267929
 20
4.432742
 30
0.0
  0
LWPOLYLINE
  5
183
100
AcDbEntity
  8
Layer_1
 62
7
100
AcDbPolyline
 90
25
 70
1
 10
11.822148
 20
4.525754
 30
0.0
 10
11.856250
 20
4.498237
 30
0.0
 10
11.956245
 20
4.446689
 30
0.0
 10
11.997330
 20
4.357159
 30
0.0
 10
12.038797
 20
4.267630
 30
0.0
 10
11.952757
 20
4.195540
 30
0.0
 10
12.010889
 20
3.950981
 30
0.0
 10
12.010889
 20
3.669216
 30
0.0
 10
12.117472
 20
3.555656
 30
0.0
 10
12.124447
 20
3.493646
 30
0.0
 10
12.244983
 20
3.538219
 30
0.0
 10
12.386059
 20
3.397142
 30
0.0
 10
12.337999
 20
3.266531
 30
0.0
 10
12.839907
 20
3.259555
 30
0.0
 10
12.568219
 20
2.884386
 30
0.0
 10
12.437606
 20
2.932828
 30
0.0
 10
12.317071
 20
3.170023
 30
0.0
 10
11.993835
 20
3.259552
 30
0.0
 10
11.876788
 20
3.466130
 30
0.0
 10
11.749664
 20
3.483177
 30
0.0
 10
11.570605
 20
3.964930
 30
0.0
 10
11.622542
 20
4.064535
 30
0.0
 10
11.825243
 20
4.212589
 30
0.0
 10
11.870206
 20
4.374207
 30
0.0
 10
11.770212
 20
4.425754
 30
0.0
  0
LWPOLYLINE
  5
184
100
AcDbEntity
  8
Layer_1
 62
7
100
AcDbPolyline
 90
7
 70
1
 10
10.858641
 20
4.450178
 30
0.0
 10
10.817556
 20
4.257554
 30
0.0
 10
10.865616
 20
4.106014
 30
0.0
 10
10.724540
 20
4.247091
 30
0.0
 10
10.786549
 20
4.254066
 30
0.0
 10
10.690044
 20
4.274998
 30
0.0
 10
10.648959
 20
4.364527
 30
0.0
  0
LWPOLYLINE
  5
185
100
AcDbEntity
  8
Layer_1
 62
7
100
AcDbPolyline
 90
6
 70
1
 10
10.163722
 20
4.216471
 30
0.0
 10
10.198215
 20
4.188954
 30
0.0
 10
10.314875
 20
3.982376
 30
0.0
 10
10.170697
 20
3.872307
 30
0.0
 10
9.981174
 20
3.882762
 30
0.0
 10
10.053646
 20
4.078874
 30
0.0
  0
LWPOLYLINE
  5
186
100
AcDbEntity
  8
Layer_1
 62
7
100
AcDbPolyline
 90
5
 70
1
 10
13.510805
 20
3.992067
 30
0.0
 10
13.579790
 20
3.937032
 30
0.0
 10
13.535217
 20
3.775413
 30
0.0
 10
13.449176
 20
3.703323
 30
0.0
 10
13.456151
 20
3.923465
 30
0.0
  0
LWPOLYLINE
  5
187
100
AcDbEntity
  8
Layer_1
 62
7
100
AcDbPolyline
 90
4
 70
1
 10
15.654085
 20
3.885097
 30
0.0
 10
15.757567
 20
3.802543
 30
0.0
 10
15.709117
 20
3.671932
 30
0.0
 10
15.599046
 20
3.816495
 30
0.0
  0
LWPOLYLINE
  5
188
100
AcDbEntity
  8
Layer_1
 62
7
100
AcDbPolyline
 90
7
 70
1
 10
11.398531
 20
3.820372
 30
0.0
 10
11.364038
 20
3.566124
 30
0.0
 10
11.274896
 20
3.524649
 30
0.0
 10
11.147384
 20
3.542094
 30
0.0
 10
11.099324
 20
3.693248
 30
0.0
 10
11.212883
 20
3.799831
 30
0.0
 10
11.278381
 20
3.775801
 30
0.0
  0
LWPOLYLINE
  5
189
100
AcDbEntity
  8
Layer_1
 62
7
100
AcDbPolyline
 90
18
 70
1
 10
0.949167
 20
3.789791
 30
0.0
 10
0.794138
 20
3.772745
 30
0.0
 10
0.000000
 20
3.122007
 30
0.0
 10
0.000000
 20
1.900765
 30
0.0
 10
0.157743
 20
2.025176
 30
0.0
 10
0.229831
 20
2.080210
 30
0.0
 10
0.384473
 20
2.238728
 30
0.0
 10
0.425943
 20
2.290276
 30
0.0
 10
0.699570
 20
2.508479
 30
0.0
 10
0.770108
 20
2.720093
 30
0.0
 10
0.529038
 20
2.771641
 30
0.0
 10
0.339902
 20
2.499952
 30
0.0
 10
0.197275
 20
2.515447
 30
0.0
 10
0.147278
 20
2.682491
 30
0.0
 10
0.241846
 20
2.959219
 30
0.0
 10
0.298819
 20
3.012701
 30
0.0
 10
0.321299
 20
3.093317
 30
0.0
 10
0.837159
 20
3.527012
 30
0.0
  0
LWPOLYLINE
  5
18a
100
AcDbEntity
  8
Layer_1
 62
7
100
AcDbPolyline
 90
5
 70
1
 10
17.642722
 20
3.761111
 30
0.0
 10
17.711324
 20
3.706076
 30
0.0
 10
17.645827
 20
3.447952
 30
0.0
 10
17.422197
 20
3.485933
 30
0.0
 10
17.494670
 20
3.681657
 30
0.0
  0
LWPOLYLINE
  5
18b
100
AcDbEntity
  8
Layer_1
 62
7
100
AcDbPolyline
 90
39
 70
1
 10
38.622062
 20
3.742894
 30
0.0
 10
38.490287
 20
3.722741
 30
0.0
 10
38.474792
 20
3.580115
 30
0.0
 10
38.990264
 20
2.320889
 30
0.0
 10
38.983289
 20
2.100747
 30
0.0
 10
39.165449
 20
1.023682
 30
0.0
 10
39.031349
 20
0.538827
 30
0.0
 10
39.263505
 20
0.423331
 30
0.0
 10
39.403806
 20
0.000099
 30
0.0
 10
41.951713
 20
0.000099
 30
0.0
 10
41.951713
 20
2.111599
 30
0.0
 10
41.463757
 20
2.203454
 30
0.0
 10
40.927357
 20
2.520100
 30
0.0
 10
40.725818
 20
2.497623
 30
0.0
 10
40.968440
 20
1.725190
 30
0.0
 10
40.920380
 20
1.594578
 30
0.0
 10
40.957978
 20
1.536055
 30
0.0
 10
40.878915
 20
0.837649
 30
0.0
 10
40.885890
 20
0.775639
 30
0.0
 10
40.846357
 20
0.567512
 30
0.0
 10
40.796363
 20
0.452402
 30
0.0
 10
40.541727
 20
0.063667
 30
0.0
 10
40.421192
 20
0.019094
 30
0.0
 10
40.340188
 20
0.041182
 30
0.0
 10
40.077413
 20
0.717499
 30
0.0
 10
40.101443
 20
0.782614
 30
0.0
 10
39.987883
 20
1.240337
 30
0.0
 10
39.992908
 20
1.475982
 30
0.0
 10
39.925859
 20
1.515515
 30
0.0
 10
39.630141
 20
2.203845
 30
0.0
 10
39.695639
 20
2.461581
 30
0.0
 10
39.423949
 20
2.932870
 30
0.0
 10
39.503013
 20
3.067357
 30
0.0
 10
39.375890
 20
3.225488
 30
0.0
 10
39.229774
 20
3.271996
 30
0.0
 10
39.086761
 20
3.428577
 30
0.0
 10
38.954597
 20
3.492140
 30
0.0
 10
38.880572
 20
3.593684
 30
0.0
 10
38.622062
 20
3.742899
 30
0.0
  0
LWPOLYLINE
  5
18c
100
AcDbEntity
  8
Layer_1
 62
7
100
AcDbPolyline
 90
5
 70
1
 10
16.235443
 20
3.730114
 30
0.0
 10
16.345514
 20
3.585548
 30
0.0
 10
16.262961
 20
3.482454
 30
0.0
 10
16.073825
 20
3.492909
 30
0.0
 10
16.087775
 20
3.651038
 30
0.0
  0
LWPOLYLINE
  5
18d
100
AcDbEntity
  8
Layer_1
 62
7
100
AcDbPolyline
 90
6
 70
1
 10
13.982093
 20
3.699881
 30
0.0
 10
14.109604
 20
3.682436
 30
0.0
 10
14.071624
 20
3.458806
 30
0.0
 10
13.982095
 20
3.417721
 30
0.0
 10
13.789471
 20
3.458806
 30
0.0
 10
13.861951
 20
3.654919
 30
0.0
  0
LWPOLYLINE
  5
18e
100
AcDbEntity
  8
Layer_1
 62
7
100
AcDbPolyline
 90
4
 70
1
 10
9.375784
 20
3.690199
 30
0.0
 10
9.444769
 20
3.635164
 30
0.0
 10
9.362216
 20
3.532069
 30
0.0
 10
9.320749
 20
3.621598
 30
0.0
  0
LWPOLYLINE
  5
18f
100
AcDbEntity
  8
Layer_1
 62
7
100
AcDbPolyline
 90
3
 70
1
 10
17.226468
 20
3.558035
 30
0.0
 10
17.298558
 20
3.471995
 30
0.0
 10
17.109422
 20
3.482450
 30
0.0
  0
LWPOLYLINE
  5
190
100
AcDbEntity
  8
Layer_1
 62
7
100
AcDbPolyline
 90
20
 70
1
 10
17.188488
 20
3.334406
 30
0.0
 10
17.291582
 20
3.251852
 30
0.0
 10
17.357080
 20
3.227822
 30
0.0
 10
17.418707
 20
3.234797
 30
0.0
 10
17.549707
 20
3.186737
 30
0.0
 10
17.604742
 20
2.973182
 30
0.0
 10
17.828371
 20
2.935585
 30
0.0
 10
17.879919
 20
3.035191
 30
0.0
 10
17.945034
 20
3.011161
 30
0.0
 10
18.034563
 20
3.052246
 30
0.0
 10
18.120604
 20
2.842569
 30
0.0
 10
18.000069
 20
2.797614
 30
0.0
 10
17.938449
 20
2.790639
 30
0.0
 10
17.914029
 20
2.725524
 30
0.0
 10
17.704352
 20
2.639482
 30
0.0
 10
17.570252
 20
2.718547
 30
0.0
 10
17.463669
 20
2.832107
 30
0.0
 10
17.391189
 20
2.918147
 30
0.0
 10
17.247011
 20
3.090230
 30
0.0
 10
17.171048
 20
3.207277
 30
0.0
  0
LWPOLYLINE
  5
191
100
AcDbEntity
  8
Layer_1
 62
7
100
AcDbPolyline
 90
3
 70
1
 10
20.590606
 20
3.178988
 30
0.0
 10
20.542546
 20
3.048377
 30
0.0
 10
20.504566
 20
3.106899
 30
0.0
  0
LWPOLYLINE
  5
192
100
AcDbEntity
  8
Layer_1
 62
7
100
AcDbPolyline
 90
5
 70
1
 10
16.376522
 20
3.025121
 30
0.0
 10
16.442020
 20
3.001091
 30
0.0
 10
16.665262
 20
2.680956
 30
0.0
 10
16.452097
 20
2.625921
 30
0.0
 10
16.259473
 20
2.949157
 30
0.0
  0
LWPOLYLINE
  5
193
100
AcDbEntity
  8
Layer_1
 62
7
100
AcDbPolyline
 90
5
 70
1
 10
11.718279
 20
2.915826
 30
0.0
 10
11.759747
 20
2.826297
 30
0.0
 10
11.718279
 20
2.633674
 30
0.0
 10
11.598131
 20
2.589101
 30
0.0
 10
11.543096
 20
2.802267
 30
0.0
  0
LWPOLYLINE
  5
194
100
AcDbEntity
  8
Layer_1
 62
7
100
AcDbPolyline
 90
6
 70
1
 10
10.314877
 20
2.854206
 30
0.0
 10
10.380374
 20
2.830176
 30
0.0
 10
10.603616
 20
2.510041
 30
0.0
 10
10.510986
 20
2.499586
 30
0.0
 10
10.452464
 20
2.461988
 30
0.0
 10
10.197828
 20
2.778637
 30
0.0
  0
LWPOLYLINE
  5
195
100
AcDbEntity
  8
Layer_1
 62
7
100
AcDbPolyline
 90
9
 70
1
 10
10.982278
 20
2.489498
 30
0.0
 10
11.081884
 20
2.437568
 30
0.0
 10
11.160949
 20
2.289903
 30
0.0
 10
11.064831
 20
2.310446
 30
0.0
 10
11.071806
 20
2.248435
 30
0.0
 10
10.975300
 20
2.268978
 30
0.0
 10
10.765623
 20
2.183324
 30
0.0
 10
10.727643
 20
2.241847
 30
0.0
 10
10.738105
 20
2.430982
 30
0.0
  0
LWPOLYLINE
  5
196
100
AcDbEntity
  8
Layer_1
 62
7
100
AcDbPolyline
 90
3
 70
1
 10
12.024462
 20
2.417026
 30
0.0
 10
12.027987
 20
2.386021
 30
0.0
 10
11.966367
 20
2.379046
 30
0.0
  0
LWPOLYLINE
  5
197
100
AcDbEntity
  8
Layer_1
 62
7
100
AcDbPolyline
 90
3
 70
1
 10
12.093447
 20
2.361991
 30
0.0
 10
12.103527
 20
2.268974
 30
0.0
 10
12.003920
 20
2.320521
 30
0.0
  0
LWPOLYLINE
  5
198
100
AcDbEntity
  8
Layer_1
 62
7
100
AcDbPolyline
 90
9
 70
1
 10
16.830368
 20
2.323231
 30
0.0
 10
16.960979
 20
2.274788
 30
0.0
 10
17.109032
 20
2.072088
 30
0.0
 10
17.091977
 20
1.944576
 30
0.0
 10
16.960978
 20
1.993018
 30
0.0
 10
16.844318
 20
1.917055
 30
0.0
 10
16.806338
 20
1.975577
 30
0.0
 10
16.610226
 20
2.048057
 30
0.0
 10
16.620688
 20
2.237192
 30
0.0
  0
LWPOLYLINE
  5
199
100
AcDbEntity
  8
Layer_1
 62
7
100
AcDbPolyline
 90
14
 70
1
 10
11.016381
 20
2.179830
 30
0.0
 10
11.061343
 20
2.059295
 30
0.0
 10
11.037313
 20
1.993798
 30
0.0
 10
11.064831
 20
2.028290
 30
0.0
 10
11.525655
 20
1.828691
 30
0.0
 10
11.587665
 20
1.835666
 30
0.0
 10
11.914389
 20
1.715130
 30
0.0
 10
11.862842
 20
1.615525
 30
0.0
 10
11.838421
 20
1.550027
 30
0.0
 10
11.645798
 20
1.591495
 30
0.0
 10
11.577195
 20
1.646530
 30
0.0
 10
11.449684
 20
1.663577
 30
0.0
 10
11.150477
 20
1.536452
 30
0.0
 10
10.920259
 20
1.918212
 30
0.0
  0
LWPOLYLINE
  5
19a
100
AcDbEntity
  8
Layer_1
 62
7
100
AcDbPolyline
 90
6
 70
1
 10
20.081333
 20
2.119365
 30
0.0
 10
20.246438
 20
2.043788
 30
0.0
 10
20.177836
 20
1.816670
 30
0.0
 10
19.988315
 20
1.827125
 30
0.0
 10
19.912737
 20
1.944173
 30
0.0
 10
19.995289
 20
2.047268
 30
0.0
  0
LWPOLYLINE
  5
19b
100
AcDbEntity
  8
Layer_1
 62
7
100
AcDbPolyline
 90
3
 70
1
 10
17.208639
 20
2.020146
 30
0.0
 10
17.219102
 20
1.927516
 30
0.0
 10
17.153604
 20
1.951546
 30
0.0
  0
LWPOLYLINE
  5
19c
100
AcDbEntity
  8
Layer_1
 62
7
100
AcDbPolyline
 90
5
 70
1
 10
14.222774
 20
1.953486
 30
0.0
 10
14.301839
 20
1.948461
 30
0.0
 10
14.312302
 20
1.855832
 30
0.0
 10
14.195254
 20
1.780255
 30
0.0
 10
14.222772
 20
1.953499
 30
0.0
  0
LWPOLYLINE
  5
19d
100
AcDbEntity
  8
Layer_1
 62
7
100
AcDbPolyline
 90
6
 70
1
 10
16.069948
 20
1.831402
 30
0.0
 10
16.276526
 20
1.666295
 30
0.0
 10
16.235058
 20
1.473670
 30
0.0
 10
16.107934
 20
1.490718
 30
0.0
 10
16.001351
 20
1.604278
 30
0.0
 10
16.014919
 20
1.762407
 30
0.0
  0
LWPOLYLINE
  5
19e
100
AcDbEntity
  8
Layer_1
 62
7
100
AcDbPolyline
 90
22
 70
1
 10
13.796057
 20
1.704277
 30
0.0
 10
13.988681
 20
1.663192
 30
0.0
 10
14.030148
 20
1.573663
 30
0.0
 10
14.005728
 20
1.508165
 30
0.0
 10
14.105722
 20
1.456618
 30
0.0
 10
14.150294
 20
1.618235
 30
0.0
 10
14.480507
 20
1.467081
 30
0.0
 10
14.838625
 20
1.632188
 30
0.0
 10
14.903740
 20
1.607775
 30
0.0
 10
15.034352
 20
1.277561
 30
0.0
 10
15.134346
 20
1.226014
 30
0.0
 10
15.089391
 20
1.064394
 30
0.0
 10
14.958779
 20
0.548536
 30
0.0
 10
14.704144
 20
0.582639
 30
0.0
 10
14.707669
 20
1.115939
 30
0.0
 10
14.404974
 20
1.019822
 30
0.0
 10
14.401449
 20
1.050827
 30
0.0
 10
14.043719
 20
1.167875
 30
0.0
 10
13.999146
 20
1.288023
 30
0.0
 10
13.992171
 20
1.350033
 30
0.0
 10
13.785595
 20
1.515139
 30
0.0
 10
13.737535
 20
1.666679
 30
0.0
  0
LWPOLYLINE
  5
19f
100
AcDbEntity
  8
Layer_1
 62
7
100
AcDbPolyline
 90
5
 70
1
 10
17.377233
 20
1.631414
 30
0.0
 10
17.480328
 20
1.548860
 30
0.0
 10
17.459785
 20
1.452743
 30
0.0
 10
17.215614
 20
1.394221
 30
0.0
 10
17.167554
 20
1.545763
 30
0.0
  0
LWPOLYLINE
  5
1a0
100
AcDbEntity
  8
Layer_1
 62
7
100
AcDbPolyline
 90
5
 70
1
 10
11.848888
 20
1.457006
 30
0.0
 10
11.934929
 20
1.247329
 30
0.0
 10
11.841912
 20
1.236874
 30
0.0
 10
11.865942
 20
1.302371
 30
0.0
 10
11.828345
 20
1.360894
 30
0.0
  0
LWPOLYLINE
  5
1a1
100
AcDbEntity
  8
Layer_1
 62
7
100
AcDbPolyline
 90
16
 70
1
 10
25.597661
 20
1.132995
 30
0.0
 10
25.384108
 20
0.936883
 30
0.0
 10
25.346128
 20
0.854329
 30
0.0
 10
25.229467
 20
0.778752
 30
0.0
 10
25.072888
 20
0.636125
 30
0.0
 10
25.033355
 20
0.568685
 30
0.0
 10
24.768256
 20
0.272965
 30
0.0
 10
24.727172
 20
0.221418
 30
0.0
 10
24.482225
 20
0.000113
 30
0.0
 10
25.420540
 20
0.000113
 30
0.0
 10
25.578282
 20
0.033833
 30
0.0
 10
25.620529
 20
0.000113
 30
0.0
 10
27.037886
 20
0.000113
 30
0.0
 10
26.625893
 20
0.338078
 30
0.0
 10
26.445286
 20
0.412102
 30
0.0
 10
26.099569
 20
0.843859
 30
0.0
  0
LWPOLYLINE
  5
1a2
100
AcDbEntity
  8
Layer_1
 62
7
100
AcDbPolyline
 90
11
 70
1
 10
12.127553
 20
0.923704
 30
0.0
 10
12.162046
 20
0.896187
 30
0.0
 10
12.282193
 20
0.658993
 30
0.0
 10
12.443812
 20
0.614030
 30
0.0
 10
12.436837
 20
0.676040
 30
0.0
 10
12.495359
 20
0.431869
 30
0.0
 10
12.189176
 20
0.366371
 30
0.0
 10
12.134141
 20
0.579924
 30
0.0
 10
11.972524
 20
0.624496
 30
0.0
 10
11.896947
 20
0.741543
 30
0.0
 10
11.914002
 20
0.868668
 30
0.0
  0
LWPOLYLINE
  5
1a3
100
AcDbEntity
  8
Layer_1
 62
7
100
AcDbPolyline
 90
6
 70
1
 10
19.159294
 20
0.826036
 30
0.0
 10
19.389514
 20
0.726430
 30
0.0
 10
19.334479
 20
0.657445
 30
0.0
 10
19.269364
 20
0.681865
 30
0.0
 10
19.234871
 20
0.709382
 30
0.0
 10
19.135264
 20
0.760930
 30
0.0
  0
ENDSEC
  0
SECTION
  2
OBJECTS
  0
DICTIONARY
  5
C
330
0
100
AcDbDictionary
  3
ACAD_GROUP
350
D
  3
ACAD_MLINESTYLE
350
17
  0
DICTIONARY
  5
D
330
C
100
AcDbDictionary
  0
DICTIONARY
  5
1A
330
C
100
AcDbDictionary
  0
DICTIONARY
  5
17
330
C
100
AcDbDictionary
  3
STANDARD
350
18
  0
DICTIONARY
  5
19
330
C
100
AcDbDictionary
  0
ENDSEC
  0
EOF
